<?xml version="1.0" standalone="no"?>
<!DOCTYPE svg PUBLIC "-//W3C//DTD SVG 1.1//EN" "http://www.w3.org/Graphics/SVG/1.1/DTD/svg11.dtd" >
<svg xmlns="http://www.w3.org/2000/svg" xmlns:xlink="http://www.w3.org/1999/xlink" version="1.1">
<metadata>
Created by Christoph Koeberlin (http://christoph.koe.berlin)
Copyright (c) 2016 Swiss Typefaces Sa`rl. All rights reserved.
</metadata>
<defs>
<font id="Font" horiz-adv-x="250" >
  <font-face 
    font-family="Font"
    font-weight="500"
    font-stretch="normal"
    units-per-em="1000"
    panose-1="2 11 6 0 3 0 0 0 0 0"
    ascent="800"
    descent="-200"
    x-height="500"
    cap-height="710"
    bbox="-58 -243 1048 958"
    underline-thickness="90"
    underline-position="-90"
    unicode-range="U+0020-FB02"
  />
<missing-glyph horiz-adv-x="500" 
 />
    <glyph glyph-name=".notdef" horiz-adv-x="500" 
 />
    <glyph glyph-name="glyph1" horiz-adv-x="0" 
 />
    <glyph glyph-name="glyph2" horiz-adv-x="0" 
 />
    <glyph glyph-name="space" unicode=" " horiz-adv-x="230" 
 />
    <glyph glyph-name="exclam" unicode="!" horiz-adv-x="298" 
d="M94 425v285h111v-285l-21 -192h-68zM149 -8q-18 0 -33.5 7t-27 18.5t-18.5 27.5t-7 34q0 22 9.5 40t26.5 30h101q16 -12 26 -30t10 -40q0 -36 -25.5 -61.5t-61.5 -25.5z" />
    <glyph glyph-name="quotedbl" unicode="&#x22;" horiz-adv-x="428" 
d="M65 710h96v-264h-96v264zM267 710h96v-264h-96v264z" />
    <glyph glyph-name="numbersign" unicode="#" horiz-adv-x="740" 
d="M399 193h-162l-60 -193h-97l60 193h-103v88h130l48 152h-106v88h133l59 189h97l-59 -189h163l59 189h97l-59 -189h104v-88h-132l-47 -152h107v-88h-135l-60 -193h-97zM264 281h163l47 152h-162z" />
    <glyph glyph-name="dollar" unicode="$" horiz-adv-x="527" 
d="M217 -5q-65 8 -113 39t-76 79l80 66q24 -35 62.5 -60t89.5 -25q54 0 83.5 26t29.5 64q0 40 -27.5 63t-79.5 48l-56 28q-80 38 -117 88t-37 119q0 37 12.5 67.5t34.5 54t51.5 39.5t62.5 22v85h94v-84q43 -8 78 -29t67 -57l-73 -72q-27 31 -53.5 45.5t-64.5 14.5
q-45 0 -72.5 -24t-27.5 -59q0 -37 25.5 -60t79.5 -48l55 -27q36 -17 65 -37t49.5 -45t32 -55t11.5 -67q0 -79 -45.5 -132t-126.5 -66v-84h-94v83z" />
    <glyph glyph-name="percent" unicode="%" horiz-adv-x="430" 
d="M212 69q27 0 44.5 18t17.5 44q0 27 -17.5 45.5t-44.5 18.5t-44.5 -18.5t-17.5 -45.5q0 -26 17.5 -44t44.5 -18zM212 -5q-29 0 -54.5 10.5t-44.5 29t-30 43t-11 53.5q0 30 11 55t30 44t44.5 29.5t54.5 10.5t54.5 -10.5t44.5 -29.5t30 -44t11 -55q0 -29 -11 -53.5t-30 -43
t-44.5 -29t-54.5 -10.5zM67 398h296v-88h-296v88zM212 515q27 0 44.5 18.5t17.5 44.5t-17.5 44t-44.5 18t-44.5 -18t-17.5 -44t17.5 -44.5t44.5 -18.5zM212 440q-29 0 -54.5 10.5t-44.5 29t-30 44t-11 54.5t11 54t30 43.5t44.5 29t54.5 10.5t54.5 -10.5t44.5 -29t30 -43.5
t11 -54t-11 -54.5t-30 -44t-44.5 -29t-54.5 -10.5z" />
    <glyph glyph-name="ampersand" unicode="&#x26;" horiz-adv-x="612" 
d="M250 -8q-48 0 -89.5 17.5t-72 48.5t-47.5 71.5t-17 87.5q0 46 17 87t47.5 72t72 48.5t89.5 17.5q5 0 8.5 -0.5t8.5 -0.5l-136 269h376v-98h-207l312 -612h-121l-55 107q-27 -57 -75 -86t-111 -29zM250 95q25 0 46.5 9t37.5 25.5t25 39t9 48.5t-9 48.5t-25 39t-37.5 25.5
t-46.5 9q-26 0 -47.5 -9t-37.5 -25.5t-25 -39t-9 -48.5t9 -48.5t25 -39t37.5 -25.5t47.5 -9z" />
    <glyph glyph-name="quotesingle" unicode="'" horiz-adv-x="226" 
d="M65 710h96v-264h-96v264z" />
    <glyph glyph-name="parenleft" unicode="(" horiz-adv-x="257" 
d="M163 -151q-27 54 -47.5 106t-34 106.5t-20.5 113.5t-7 125t7 125t20.5 113.5t34 106.5t47.5 106l84 -37q-48 -104 -72.5 -204.5t-24.5 -209.5t24.5 -209.5t72.5 -204.5l-84 -37v0z" />
    <glyph glyph-name="parenright" unicode=")" horiz-adv-x="257" 
d="M94 -151l-84 37q48 104 72.5 204.5t24.5 209.5t-24.5 209.5t-72.5 204.5l84 37q27 -54 47.5 -106t34 -106.5t20.5 -113.5t7 -125t-7 -125t-20.5 -113.5t-34 -106.5t-47.5 -106z" />
    <glyph glyph-name="asterisk" unicode="*" horiz-adv-x="462" 
d="M232 452l-82 -110l-65 45l81 111l-131 44l24 77l133 -44v135h79v-135l132 43l24 -75l-130 -44l81 -112l-65 -46z" />
    <glyph glyph-name="plus" unicode="+" horiz-adv-x="615" 
d="M89 321h174v170h89v-170h174v-88h-174v-174h-89v174h-174v88z" />
    <glyph glyph-name="comma" unicode="," horiz-adv-x="268" 
d="M122 0h-58v141h141v-141l-59 -146h-68z" />
    <glyph glyph-name="hyphen" unicode="-" horiz-adv-x="345" 
d="M44 331h258v-109h-258v109z" />
    <glyph glyph-name="period" unicode="." horiz-adv-x="283" 
d="M142 -8q-36 0 -61.5 25.5t-25.5 61.5q0 18 7 33.5t18.5 27t27.5 18.5t34 7t33.5 -7t27.5 -18.5t18.5 -27t6.5 -33.5q0 -36 -25 -61.5t-61 -25.5z" />
    <glyph glyph-name="slash" unicode="/" horiz-adv-x="440" 
d="M339 710h101l-339 -710h-101z" />
    <glyph glyph-name="zero" unicode="0" horiz-adv-x="815" 
d="M407 94q55 0 101.5 20t80.5 55.5t53 83t19 102.5t-19 102.5t-53 82.5t-80.5 55.5t-101.5 20.5t-101.5 -20.5t-80 -55.5t-52.5 -82.5t-19 -102.5t19 -102.5t52.5 -83t80 -55.5t101.5 -20zM407 -8q-75 0 -141.5 28t-116 77t-78 115.5t-28.5 142.5t28.5 142.5t78 115.5
t116 77t141.5 28q76 0 142.5 -28t116 -77t78 -115.5t28.5 -142.5t-28.5 -142.5t-78 -115.5t-116 -77t-142.5 -28z" />
    <glyph glyph-name="one" unicode="1" horiz-adv-x="288" 
d="M89 608l110 110v-718h-110v608z" />
    <glyph glyph-name="two" unicode="2" horiz-adv-x="564" 
d="M273 287q-48 0 -87.5 17.5t-67 46.5t-43 67.5t-15.5 80.5q0 46 17 86t47.5 69.5t71.5 46.5t89 17t89 -17t71 -46.5t47.5 -69.5t17.5 -86q0 -63 -27 -115.5t-62 -91.5l-166 -189h254v-103h-488zM285 382q52 0 83.5 33t31.5 84q0 50 -31.5 83.5t-83.5 33.5q-53 0 -84 -33.5
t-31 -83.5q0 -51 31 -84t84 -33z" />
    <glyph glyph-name="three" unicode="3" horiz-adv-x="517" 
d="M233 -8q-64 0 -119.5 27t-88.5 75l81 68q18 -29 49.5 -48.5t73.5 -19.5q30 0 55 9.5t43.5 26.5t29 42t10.5 57q-1 61 -38.5 99.5t-103.5 38.5h-67l130 239h-233v104h400l-140 -258q77 -23 120 -81.5t43 -141.5q0 -53 -17.5 -96.5t-50 -75t-77.5 -48.5t-100 -17z" />
    <glyph glyph-name="four" unicode="4" horiz-adv-x="588" 
d="M376 183h-396l505 535v-432h83v-103h-83v-183h-109v183zM376 286v171l-162 -171h162z" />
    <glyph glyph-name="five" unicode="5" horiz-adv-x="543" 
d="M259 -8q-64 0 -122 27t-90 75l82 70q17 -29 50 -49.5t76 -20.5q60 0 96 37.5t36 93.5q0 28 -9.5 52.5t-26.5 42.5t-42 28.5t-56 10.5q-38 0 -64.5 -17t-40.5 -39l-72 32v375h369v-103h-259v-162q17 8 34.5 12t37.5 4q55 0 100 -17.5t76 -49t48 -75t17 -94.5t-17.5 -94
t-49 -73.5t-75.5 -48t-98 -17.5z" />
    <glyph glyph-name="six" unicode="6" horiz-adv-x="531" 
d="M265 -8q-51 0 -94.5 18t-76 49.5t-50.5 73.5t-18 91q0 37 13 70t30 63l204 353h122l-150 -258q15 3 30 3q44 0 85 -17t73 -47.5t51.5 -73t19.5 -93.5q0 -49 -18 -91t-50.5 -73.5t-76 -49.5t-94.5 -18zM265 94q29 0 53 10.5t40.5 28t25.5 41t9 50.5q0 26 -9 49.5
t-25.5 41.5t-40.5 28.5t-53 10.5t-52.5 -10.5t-40.5 -28.5t-26 -41.5t-9 -49.5q0 -27 9 -50.5t26 -41t40.5 -28t52.5 -10.5z" />
    <glyph glyph-name="seven" unicode="7" horiz-adv-x="510" 
d="M340 607h-309v103h474l-333 -710h-118z" />
    <glyph glyph-name="eight" unicode="8" horiz-adv-x="573" 
d="M286 -8q-51 0 -95 17.5t-76.5 48.5t-51 73t-18.5 90q0 62 29 110.5t79 77.5q-25 23 -38.5 54.5t-13.5 69.5q0 39 14 72.5t39 58.5t59 39.5t73 14.5q40 0 74 -14.5t59 -39.5t39.5 -58.5t14.5 -72.5q0 -38 -14 -70t-39 -55q50 -29 79 -77t29 -110q0 -48 -18.5 -90t-51 -73
t-76.5 -48.5t-96 -17.5zM286 94q30 0 54 10t41 27t26.5 40.5t9.5 49.5q0 27 -9.5 50t-26.5 40.5t-41 27.5t-54 10q-29 0 -52.5 -10t-40.5 -27.5t-26.5 -40.5t-9.5 -50q0 -26 9.5 -49.5t26.5 -40.5t40.5 -27t52.5 -10zM286 450q37 0 59.5 24t22.5 59t-22.5 59t-59.5 24
q-36 0 -58 -24t-22 -59t22 -59t58 -24z" />
    <glyph glyph-name="nine" unicode="9" horiz-adv-x="531" 
d="M285 258q-15 -3 -30 -3q-44 0 -85 17t-73 47.5t-51.5 73t-19.5 93.5q0 49 18 91t50.5 73.5t76 49.5t94.5 18t94.5 -18t76 -49.5t50.5 -73.5t18 -91q0 -37 -13 -70t-30 -63l-204 -353h-122zM265 356q29 0 52.5 10.5t40.5 28.5t26 41.5t9 49.5q0 27 -9 50.5t-26 41
t-40.5 28t-52.5 10.5t-53 -10.5t-40.5 -28t-25.5 -41t-9 -50.5q0 -26 9 -49.5t25.5 -41.5t40.5 -28.5t53 -10.5z" />
    <glyph glyph-name="colon" unicode=":" horiz-adv-x="283" 
d="M142 335q-36 0 -61.5 25.5t-25.5 61.5q0 18 7 33.5t18.5 27t27.5 18.5t34 7t33.5 -7t27.5 -18.5t18.5 -27t6.5 -33.5q0 -36 -25 -61.5t-61 -25.5zM142 -8q-36 0 -61.5 25.5t-25.5 61.5q0 18 7 33.5t18.5 27t27.5 18.5t34 7t33.5 -7t27.5 -18.5t18.5 -27t6.5 -33.5
q0 -36 -25 -61.5t-61 -25.5z" />
    <glyph glyph-name="semicolon" unicode=";" horiz-adv-x="283" 
d="M130 0h-58v141h141v-141l-59 -146h-68zM142 335q-36 0 -61.5 25.5t-25.5 61.5q0 18 7 33.5t18.5 27t27.5 18.5t34 7t33.5 -7t27.5 -18.5t18.5 -27t6.5 -33.5q0 -36 -25 -61.5t-61 -25.5z" />
    <glyph glyph-name="equal" unicode="=" horiz-adv-x="620" 
d="M89 215h442v-88h-442v88zM89 427h442v-88h-442v88z" />
    <glyph glyph-name="question" unicode="?" horiz-adv-x="480" 
d="M182 382h57q52 0 83.5 33.5t31.5 83.5t-31.5 83.5t-83.5 33.5q-53 0 -84 -33.5t-31 -83.5h-110q0 46 17 86t47.5 69.5t71.5 46.5t89 17t89 -17t71 -46.5t47.5 -69.5t17.5 -86t-17.5 -86t-47.5 -69.5t-71 -46.5t-89 -17h-57v102zM234 -8q-18 0 -33.5 7t-27 18.5
t-18.5 27.5t-7 34q0 22 9.5 40t26.5 30h101q16 -12 26 -30t10 -40q0 -36 -25.5 -61.5t-61.5 -25.5z" />
    <glyph glyph-name="at" unicode="@" horiz-adv-x="807" 
d="M364 165q-40 0 -71 13.5t-52 37t-32 55t-11 66.5q0 45 16 85t44.5 70t68.5 47t88 17q33 0 58 -10t45 -28l6 28h80l-49 -229q-7 -33 2.5 -56t41.5 -23q40 0 68 41t28 129q0 58 -21.5 103t-58.5 75t-86.5 45.5t-104.5 15.5q-62 0 -118 -21.5t-98 -61.5t-67 -97.5
t-25 -129.5q0 -59 18.5 -109t53.5 -86t85 -56t114 -20q45 0 94 10t90 31l25 -71q-47 -21 -103.5 -32.5t-105.5 -11.5q-81 0 -145.5 27t-110 73.5t-69.5 109.5t-24 135q0 85 31.5 155.5t84.5 120.5t123.5 77.5t147.5 27.5q74 0 137 -22t109 -62.5t72 -98t26 -129.5
q0 -65 -16 -111.5t-41.5 -75.5t-59 -42.5t-67.5 -13.5t-60 14t-38 37q-23 -23 -56 -36t-67 -13zM378 241q25 0 48 10t42 33l33 153q-15 23 -38 33t-46 10q-27 0 -51 -10t-42 -28t-29 -43t-11 -55q0 -50 25.5 -76.5t68.5 -26.5z" />
    <glyph glyph-name="A" unicode="A" horiz-adv-x="714" 
d="M357 718l347 -718h-125l-74 158h-297l-74 -158h-124zM258 264h197l-98 210z" />
    <glyph glyph-name="B" unicode="B" horiz-adv-x="620" 
d="M79 710h251q48 0 87 -15.5t66 -42t41.5 -62t14.5 -74.5q0 -48 -17 -81.5t-49 -56.5q50 -21 82 -64.5t32 -109.5q0 -47 -17.5 -84.5t-49 -64t-75 -41t-94.5 -14.5h-272v710zM351 108q60 0 89.5 28.5t29.5 72.5t-29.5 73.5t-89.5 29.5h-156v-204h156zM315 411
q54 0 80.5 27.5t26.5 68.5q0 39 -26.5 67.5t-80.5 28.5h-120v-192h120z" />
    <glyph glyph-name="C" unicode="C" horiz-adv-x="681" 
d="M401 -8q-75 0 -141.5 28t-115.5 76.5t-77.5 115t-28.5 143.5t28.5 143.5t77.5 115t115.5 76.5t141.5 28t138.5 -26t112.5 -77l-75 -82q-33 35 -78.5 55t-97.5 20q-53 0 -97.5 -19.5t-77.5 -53.5t-51.5 -80.5t-18.5 -99.5t18.5 -99.5t51.5 -80.5t77.5 -53.5t97.5 -19.5
q52 0 97.5 20t78.5 55l75 -82q-49 -51 -112.5 -77t-138.5 -26z" />
    <glyph glyph-name="D" unicode="D" horiz-adv-x="714" 
d="M304 108q57 0 104 19t80.5 52t51.5 78t18 98q0 52 -18 97.5t-51.5 78.5t-80.5 52t-104 19h-109v-494h109zM79 710h225q79 0 147.5 -27t118 -75t78 -113t28.5 -140t-28.5 -140t-78 -113t-118 -75t-147.5 -27h-225v710z" />
    <glyph glyph-name="E" unicode="E" horiz-adv-x="544" 
d="M79 710h421v-114h-305v-180h245v-112h-245v-190h305v-114h-421v710z" />
    <glyph glyph-name="F" unicode="F" horiz-adv-x="514" 
d="M79 710h412v-114h-296v-180h231v-112h-231v-304h-116v710z" />
    <glyph glyph-name="G" unicode="G" horiz-adv-x="730" 
d="M401 -8q-75 0 -141.5 28t-115.5 76.5t-77.5 115t-28.5 143.5t28.5 143.5t77.5 115t115.5 76.5t141.5 28q76 0 143 -26t116 -77l-75 -82q-33 35 -82 55t-102 20t-97.5 -19.5t-77.5 -53.5t-51.5 -80.5t-18.5 -99.5t18.5 -99.5t51.5 -80.5t77.5 -53.5t97.5 -19.5
q39 0 77 9.5t68 28.5v164h-195l51 112h260v-333q-50 -43 -118 -67t-143 -24z" />
    <glyph glyph-name="H" unicode="H" horiz-adv-x="742" 
d="M79 710h116v-294h352v294h116v-710h-116v304h-352v-304h-116v710z" />
    <glyph glyph-name="I" unicode="I" horiz-adv-x="274" 
d="M79 710h116v-710h-116v710z" />
    <glyph glyph-name="J" unicode="J" horiz-adv-x="530" 
d="M234 -8q-43 0 -82.5 13.5t-69.5 40.5t-48 68t-18 95h117q0 -54 29.5 -80t71.5 -27q42 0 72 26.5t30 80.5v501h116v-503q0 -54 -18 -94.5t-48 -67t-69.5 -40t-82.5 -13.5z" />
    <glyph glyph-name="K" unicode="K" horiz-adv-x="662" 
d="M79 710h116v-357l299 357h138l-301 -359l331 -351h-150l-317 335v-335h-116v710z" />
    <glyph glyph-name="L" unicode="L" horiz-adv-x="505" 
d="M79 710h116v-595h299v-115h-415v710z" />
    <glyph glyph-name="M" unicode="M" horiz-adv-x="856" 
d="M79 718l349 -372l349 372v-718h-116v436l-233 -252l-233 252v-436h-116v718z" />
    <glyph glyph-name="N" unicode="N" horiz-adv-x="759" 
d="M195 453v-453h-116v718l485 -461v453h116v-718z" />
    <glyph glyph-name="O" unicode="O" horiz-adv-x="802" 
d="M401 102q52 0 97 19.5t78 53.5t51.5 80.5t18.5 99.5t-18.5 99.5t-51.5 80.5t-78 53.5t-97 19.5q-53 0 -97.5 -19.5t-77.5 -53.5t-51.5 -80.5t-18.5 -99.5t18.5 -99.5t51.5 -80.5t77.5 -53.5t97.5 -19.5zM401 -8q-75 0 -141.5 28t-115.5 76.5t-77.5 115t-28.5 143.5
t28.5 143.5t77.5 115t115.5 76.5t141.5 28q76 0 142 -28t115 -76.5t77.5 -115t28.5 -143.5t-28.5 -143.5t-77.5 -115t-115 -76.5t-142 -28z" />
    <glyph glyph-name="P" unicode="P" horiz-adv-x="559" 
d="M79 710h212q55 0 100.5 -16.5t78.5 -46.5t51 -71.5t18 -91.5t-18 -91.5t-51 -71.5t-78.5 -46.5t-100.5 -16.5h-96v-258h-116v710zM286 366q64 0 99.5 32t35.5 86t-35.5 86t-99.5 32h-91v-236h91z" />
    <glyph glyph-name="Q" unicode="Q" horiz-adv-x="802" 
d="M642 81q-48 -42 -109.5 -65.5t-131.5 -23.5q-75 0 -141.5 28t-115.5 76.5t-77.5 115t-28.5 143.5t28.5 143.5t77.5 115t115.5 76.5t141.5 28q76 0 142 -28t115 -76.5t77.5 -115t28.5 -143.5q0 -54 -14 -101.5t-39 -89.5l110 -90l-69 -82zM401 102q44 0 82.5 13.5
t69.5 38.5l-101 83l69 82l99 -81q12 26 19 55.5t7 61.5q0 53 -18.5 99.5t-51.5 80.5t-78 53.5t-97 19.5q-53 0 -97.5 -19.5t-77.5 -53.5t-51.5 -80.5t-18.5 -99.5t18.5 -99.5t51.5 -80.5t77.5 -53.5t97.5 -19.5z" />
    <glyph glyph-name="R" unicode="R" horiz-adv-x="622" 
d="M262 302h-67v-302h-116v710h230q49 0 90.5 -15t71.5 -42t47 -64.5t17 -82.5q0 -69 -39 -120.5t-107 -72.5l226 -313h-139zM298 403q60 0 89.5 27t29.5 72q0 46 -29.5 73.5t-89.5 27.5h-103v-200h103z" />
    <glyph glyph-name="S" unicode="S" horiz-adv-x="518" 
d="M259 -8q-81 0 -143 33t-96 88l88 74q25 -34 64 -59.5t86 -25.5q52 0 80.5 22t28.5 60q0 40 -25 66t-78 49l-56 24q-160 70 -160 207q0 43 18 77.5t47 59t67 38t79 13.5q62 0 111 -21.5t88 -68.5l-80 -83q-28 33 -55 48t-65 15q-36 0 -65 -20t-29 -57q0 -35 24.5 -60.5
t78.5 -48.5l55 -25q73 -32 118 -80.5t45 -122.5q0 -45 -16 -82t-45.5 -64t-71.5 -41.5t-93 -14.5z" />
    <glyph glyph-name="T" unicode="T" horiz-adv-x="523" 
d="M203 596h-183v114h483v-114h-184v-596h-116v596z" />
    <glyph glyph-name="U" unicode="U" horiz-adv-x="711" 
d="M356 -8q-63 0 -115.5 20t-90.5 56.5t-59 89t-21 118.5v434h116v-437q0 -83 47 -127t123 -44t122.5 44t46.5 127v437h116v-434q0 -66 -21 -118.5t-59 -89t-90 -56.5t-115 -20z" />
    <glyph glyph-name="V" unicode="V" horiz-adv-x="662" 
d="M2 710h128l201 -454l202 454h127l-329 -718z" />
    <glyph glyph-name="W" unicode="W" horiz-adv-x="893" 
d="M11 710h119l140 -409l176 417l176 -417l140 409h120l-245 -718l-191 460l-191 -460z" />
    <glyph glyph-name="X" unicode="X" horiz-adv-x="672" 
d="M258 360l-230 350h134l174 -263l174 263h134l-229 -350l243 -360h-133l-188 276l-188 -276h-135z" />
    <glyph glyph-name="Y" unicode="Y" horiz-adv-x="641" 
d="M262 299l-261 411h136l183 -293l183 293h137l-262 -411v-299h-116v299z" />
    <glyph glyph-name="Z" unicode="Z" horiz-adv-x="613" 
d="M388 596h-329v114h528l-371 -596h364v-114h-563z" />
    <glyph glyph-name="bracketleft" unicode="[" horiz-adv-x="281" 
d="M65 748h204v-85h-107v-726h107v-85h-204v896z" />
    <glyph glyph-name="bracketright" unicode="]" horiz-adv-x="281" 
d="M216 -148h-204v85h107v726h-107v85h204v-896z" />
    <glyph glyph-name="underscore" unicode="_" horiz-adv-x="428" 
d="M0 0h428v-88h-428v88z" />
    <glyph glyph-name="grave" unicode="`" horiz-adv-x="328" 
d="M54 710h133l84 -165h-85z" />
    <glyph glyph-name="a" unicode="a" horiz-adv-x="611" 
d="M431 36q-26 -21 -60 -32.5t-74 -11.5q-56 0 -103 20t-81 54.5t-53.5 81.5t-19.5 102t19.5 102t53.5 81.5t81 54.5t103 20q40 0 74 -12t60 -33v37h110v-500h-110v36zM298 97q42 0 77.5 18.5t55.5 49.5v170q-20 31 -55.5 49.5t-77.5 18.5q-32 0 -58.5 -11.5t-46 -32
t-30 -48.5t-10.5 -61t10.5 -61t30 -48.5t46 -32t58.5 -11.5z" />
    <glyph glyph-name="b" unicode="b" horiz-adv-x="611" 
d="M70 710h110v-247q26 21 60 33t74 12q55 0 102.5 -20t81.5 -54.5t53.5 -81.5t19.5 -102t-19.5 -102t-53.5 -81.5t-81.5 -54.5t-102.5 -20q-81 0 -134 44v-36h-110v710zM313 403q-42 0 -77.5 -18.5t-55.5 -49.5v-170q20 -31 55.5 -49.5t77.5 -18.5q32 0 58.5 11.5t46 32
t30 48.5t10.5 61t-10.5 61t-30 48.5t-46 32t-58.5 11.5z" />
    <glyph glyph-name="c" unicode="c" horiz-adv-x="524" 
d="M298 -8q-56 0 -103 20t-81.5 54.5t-54 81.5t-19.5 102t19.5 102t54 81.5t81.5 54.5t103 20q60 0 108 -22.5t83 -60.5l-75 -77q-20 23 -48.5 38t-67.5 15q-32 0 -58.5 -11.5t-46 -31.5t-30 -47.5t-10.5 -60.5t10.5 -60.5t30 -47.5t46 -31.5t58.5 -11.5q39 0 67.5 15
t48.5 38l75 -77q-35 -38 -83 -60.5t-108 -22.5z" />
    <glyph glyph-name="d" unicode="d" horiz-adv-x="611" 
d="M431 36q-26 -21 -60 -32.5t-74 -11.5q-56 0 -103 20t-81 54.5t-53.5 81.5t-19.5 102t19.5 102t53.5 81.5t81 54.5t103 20q40 0 74 -12t60 -33v247h110v-710h-110v36zM298 97q42 0 77.5 18.5t55.5 49.5v170q-20 31 -55.5 49.5t-77.5 18.5q-32 0 -58.5 -11.5t-46 -32
t-30 -48.5t-10.5 -61t10.5 -61t30 -48.5t46 -32t58.5 -11.5z" />
    <glyph glyph-name="e" unicode="e" horiz-adv-x="574" 
d="M298 -8q-56 0 -103 20t-81.5 54.5t-54 81.5t-19.5 102t19.5 102t54 81.5t81 54.5t101.5 20q52 0 95 -18t74 -51t49 -81t21 -108v-30h-381q8 -54 47.5 -86.5t96.5 -32.5q45 0 77.5 17.5t52.5 39.5l74 -79q-32 -38 -85 -62.5t-119 -24.5zM288 407q-45 0 -81 -27t-50 -75
h257q-10 51 -43 76.5t-83 25.5z" />
    <glyph glyph-name="f" unicode="f" horiz-adv-x="359" 
d="M20 500h79q-16 17 -25 38.5t-9 47.5q0 27 10 49.5t28.5 39t44.5 26t58 9.5h132v-98h-102q-30 0 -48 -14t-18 -40t16.5 -41t36.5 -17h115v-98h-130v-402h-110v402h-78v98z" />
    <glyph glyph-name="g" unicode="g" horiz-adv-x="603" 
d="M289 -194q-52 0 -109 14t-106 46l58 96q32 -23 70.5 -37t86.5 -14q28 0 54.5 5t47.5 17t33.5 32.5t12.5 50.5q0 11 -2.5 25t-8.5 26q-26 -21 -60.5 -34t-76.5 -13q-56 0 -101.5 18.5t-78.5 51t-51 77t-18 97.5t18 97.5t51 77t78.5 51t101.5 18.5q40 0 73.5 -12t59.5 -33
v37h110v-399q11 -26 15.5 -51.5t4.5 -47.5q0 -54 -23 -91t-60 -60.5t-84.5 -34t-95.5 -10.5zM290 125q42 0 77 18t55 49v144q-20 31 -55 49t-77 18q-29 0 -54 -10t-43.5 -28.5t-29 -44t-10.5 -56.5t10.5 -56.5t29 -44t43.5 -28.5t54 -10z" />
    <glyph glyph-name="h" unicode="h" horiz-adv-x="583" 
d="M70 710h110v-257q26 29 63.5 42t76.5 13q46 0 84 -15.5t64 -43.5t40.5 -68t14.5 -88v-293h-110v291q0 20 -7.5 40t-22 36t-35.5 26t-49 10q-42 0 -73 -21.5t-46 -66.5v-315h-110v710z" />
    <glyph glyph-name="i" unicode="i" 
d="M70 597q-18 21 -18 48q0 30 21.5 51.5t51.5 21.5t51.5 -21.5t21.5 -51.5q0 -27 -18 -48h-110zM70 500h110v-500h-110v500z" />
    <glyph glyph-name="j" unicode="j" 
d="M-35 -80h30q38 0 56.5 15t18.5 53v512h110v-518q0 -91 -46 -128.5t-134 -37.5h-35v104zM70 597q-18 21 -18 48q0 30 21.5 51.5t51.5 21.5t51.5 -21.5t21.5 -51.5q0 -27 -18 -48h-110z" />
    <glyph glyph-name="k" unicode="k" horiz-adv-x="535" 
d="M70 710h110v-436l200 226h130l-208 -237l233 -263h-135l-220 249v-249h-110v710z" />
    <glyph glyph-name="l" unicode="l" 
d="M70 710h110v-710h-110v710z" />
    <glyph glyph-name="m" unicode="m" horiz-adv-x="883" 
d="M713 291q0 20 -6 40t-18.5 36t-32 26t-46.5 10q-37 0 -65 -21.5t-44 -65.5q1 -6 1 -11.5v-11.5v-293h-110v291q0 20 -6 40t-19 36t-32.5 26t-46.5 10q-36 0 -64.5 -21t-43.5 -64v-318h-110v500h110v-47q26 29 60 42t69 13q53 0 92 -20.5t64 -56.5q18 23 39 38t43 23.5
t43.5 12t39.5 3.5q93 0 143 -59t50 -156v-293h-110v291z" />
    <glyph glyph-name="n" unicode="n" horiz-adv-x="583" 
d="M70 500h110v-47q26 29 63.5 42t76.5 13q46 0 84 -15.5t64 -43.5t40.5 -68t14.5 -88v-293h-110v291q0 20 -7.5 40t-22 36t-35.5 26t-49 10q-42 0 -73 -21.5t-46 -66.5v-315h-110v500z" />
    <glyph glyph-name="o" unicode="o" horiz-adv-x="598" 
d="M299 97q32 0 58.5 11.5t46 32t30.5 48.5t11 61t-11 61t-30.5 48.5t-46 32t-58.5 11.5t-59 -11.5t-46.5 -32t-30 -48.5t-10.5 -61t10.5 -61t30 -48.5t46.5 -32t59 -11.5zM299 -8q-56 0 -103.5 20t-82 54.5t-54 81.5t-19.5 102t19.5 102t54 81.5t82 54.5t103.5 20
q55 0 102.5 -20t82.5 -54.5t54.5 -81.5t19.5 -102t-19.5 -102t-54.5 -81.5t-82.5 -54.5t-102.5 -20z" />
    <glyph glyph-name="p" unicode="p" horiz-adv-x="611" 
d="M70 500h110v-37q26 21 60 33t74 12q55 0 102.5 -20t81.5 -54.5t53.5 -81.5t19.5 -102t-19.5 -102t-53.5 -81.5t-81.5 -54.5t-102.5 -20q-81 0 -134 44v-220h-110v684zM313 403q-42 0 -77.5 -18.5t-55.5 -49.5v-170q20 -31 55.5 -49.5t77.5 -18.5q32 0 58.5 11.5t46 32
t30 48.5t10.5 61t-10.5 61t-30 48.5t-46 32t-58.5 11.5z" />
    <glyph glyph-name="q" unicode="q" horiz-adv-x="611" 
d="M431 36q-26 -21 -60 -32.5t-74 -11.5q-56 0 -103 20t-81 54.5t-53.5 81.5t-19.5 102t19.5 102t53.5 81.5t81 54.5t103 20q40 0 74 -12t60 -33v37h110v-684h-110v220zM298 97q42 0 77.5 18.5t55.5 49.5v170q-20 31 -55.5 49.5t-77.5 18.5q-32 0 -58.5 -11.5t-46 -32
t-30 -48.5t-10.5 -61t10.5 -61t30 -48.5t46 -32t58.5 -11.5z" />
    <glyph glyph-name="r" unicode="r" horiz-adv-x="367" 
d="M70 500h110v-49q47 56 129 56q19 0 36 -3v-115q-21 7 -55 7q-35 0 -64 -14t-46 -46v-336h-110v500z" />
    <glyph glyph-name="s" unicode="s" horiz-adv-x="416" 
d="M205 -8q-60 0 -107.5 24.5t-78.5 77.5l84 60q18 -31 41 -47.5t61 -16.5q29 0 46.5 13t17.5 33q0 22 -16 36t-51 27l-35 14q-64 25 -93 64t-29 90q0 30 12 56t33.5 45t51 29.5t64.5 10.5q48 0 88 -20t68 -67l-81 -56q-25 45 -73 45q-22 0 -38.5 -10.5t-16.5 -29.5
q0 -20 14.5 -33.5t49.5 -27.5l36 -13q63 -25 97 -60.5t34 -94.5q0 -33 -13 -60.5t-36.5 -47t-56.5 -30.5t-73 -11z" />
    <glyph glyph-name="t" unicode="t" horiz-adv-x="385" 
d="M-3 500h97v96l110 54v-150h152l-24 -98h-128v-227q0 -38 14 -56t57 -18h69v-101h-97q-72 0 -112.5 40t-40.5 112v250h-73z" />
    <glyph glyph-name="u" unicode="u" horiz-adv-x="580" 
d="M400 46q-26 -29 -63.5 -41.5t-76.5 -12.5q-47 0 -84.5 15.5t-63.5 43.5t-40.5 68t-14.5 88v293h110v-291q0 -20 7.5 -40t22 -36t36 -26t48.5 -10q42 0 72.5 21t46.5 64v318h110v-500h-110v46z" />
    <glyph glyph-name="v" unicode="v" horiz-adv-x="548" 
d="M0 500h124l150 -294l148 294h126l-274 -508z" />
    <glyph glyph-name="w" unicode="w" horiz-adv-x="723" 
d="M13 500h115l99 -327l135 335l134 -335l99 327h115l-158 -500h-86l-104 260l-105 -260h-86z" />
    <glyph glyph-name="x" unicode="x" horiz-adv-x="543" 
d="M202 253l-179 247h127l121 -166l121 166h127l-179 -247l189 -253h-128l-130 178l-130 -178h-128z" />
    <glyph glyph-name="y" unicode="y" horiz-adv-x="510" 
d="M197 26l-197 474h118l136 -345l137 345h118l-286 -684h-116z" />
    <glyph glyph-name="z" unicode="z" horiz-adv-x="507" 
d="M291 402h-240v98h430l-272 -402h258v-98h-448z" />
    <glyph glyph-name="braceleft" unicode="{" horiz-adv-x="303" 
d="M229 -148q-69 0 -102 37t-33 106v198q0 31 -11 48t-46 17h-13v84h13q35 0 46 17.5t11 47.5v198q0 69 31.5 106t100.5 37h64v-85h-42q-35 0 -46.5 -16t-11.5 -51v-190q0 -45 -13.5 -69.5t-42.5 -36.5q29 -11 42.5 -35.5t13.5 -70.5v-190q0 -35 11.5 -51t46.5 -16h42v-85
h-61v0z" />
    <glyph glyph-name="bar" unicode="|" horiz-adv-x="245" 
d="M74 710h97v-894h-97v894z" />
    <glyph glyph-name="braceright" unicode="}" horiz-adv-x="303" 
d="M74 -148h-61v85h42q35 0 46.5 16t11.5 51v190q0 46 13.5 70.5t42.5 35.5q-29 12 -42.5 36.5t-13.5 69.5v190q0 35 -11.5 51t-46.5 16h-42v85h64q69 0 100.5 -37t31.5 -106v-198q0 -30 11 -47.5t46 -17.5h13v-84h-13q-35 0 -46 -17t-11 -48v-198q0 -69 -33 -106t-102 -37z
" />
    <glyph glyph-name="uni00A0" unicode="&#xa0;" horiz-adv-x="230" 
 />
    <glyph glyph-name="exclamdown" unicode="&#xa1;" horiz-adv-x="299" 
d="M94 75l22 192h68l21 -192v-259h-111v259zM99 351q-17 11 -26.5 29.5t-9.5 40.5q0 18 7 34t18.5 27.5t27 18.5t33.5 7q36 0 61.5 -25.5t25.5 -61.5q0 -22 -10 -40.5t-26 -29.5h-101z" />
    <glyph glyph-name="sterling" unicode="&#xa3;" horiz-adv-x="618" 
d="M72 391h81q-19 23 -29 53t-10 61q0 42 16.5 81t45.5 68t69.5 46.5t88.5 17.5q46 0 86 -17t69.5 -46t47 -68t18.5 -84h-112q0 24 -8 44.5t-22 35.5t-34.5 24t-44.5 9q-48 0 -79 -31.5t-31 -79.5q0 -24 8 -44.5t23 -36t35 -24.5t44 -9h81v-90h-147v-198h303v-103h-499v103
h85v198h-85v90z" />
    <glyph glyph-name="yen" unicode="&#xa5;" horiz-adv-x="655" 
d="M108 369h120l-217 341h128l188 -299l187 299h129l-217 -341h121v-88h-165v-74h165v-88h-165v-119h-109v119h-165v88h165v74h-165v88z" />
    <glyph glyph-name="dieresis" unicode="&#xa8;" horiz-adv-x="466" 
d="M118 562q-28 0 -48 19.5t-20 47.5t20 48t48 20t48 -20t20 -48t-20 -47.5t-48 -19.5zM348 562q-29 0 -48 19.5t-19 47.5t19 48t48 20q28 0 47.5 -20t19.5 -48t-19.5 -47.5t-47.5 -19.5z" />
    <glyph glyph-name="copyright" unicode="&#xa9;" horiz-adv-x="802" 
d="M411 171q-40 0 -73.5 14t-58 38.5t-38.5 58.5t-14 73t14 73t38.5 58.5t58 38.5t73.5 14q96 0 148 -80l-60 -41q-14 23 -38 36.5t-52 13.5q-44 0 -74 -30.5t-30 -82.5t30 -82.5t74 -30.5q28 0 52 13.5t38 36.5l60 -41q-26 -38 -63 -59t-85 -21zM401 72q59 0 110 21.5
t88.5 59.5t59 89.5t21.5 112.5t-21.5 113t-59 89.5t-88.5 59t-110 21.5t-110 -21.5t-88.5 -59t-59.5 -89.5t-22 -113t22 -112.5t59.5 -89.5t88.5 -59.5t110 -21.5zM401 -8q-75 0 -141 27.5t-115.5 76.5t-78 115t-28.5 144t28.5 144t78 115t115.5 76.5t141 27.5t141 -27.5
t115.5 -76.5t78 -115t28.5 -144t-28.5 -144t-78 -115t-115.5 -76.5t-141 -27.5z" />
    <glyph glyph-name="guillemotleft" unicode="&#xab;" horiz-adv-x="520" 
d="M245 250l156 228l75 -51l-121 -177l121 -177l-75 -51zM31 250l156 228l75 -51l-121 -177l121 -177l-75 -51z" />
    <glyph glyph-name="uni00AD" unicode="&#xad;" horiz-adv-x="345" 
d="M44 331h258v-109h-258v109z" />
    <glyph glyph-name="macron" unicode="&#xaf;" horiz-adv-x="410" 
d="M52 677h306v-76h-306v76z" />
    <glyph glyph-name="degree" unicode="&#xb0;" horiz-adv-x="338" 
d="M169 537q23 0 39 16t16 39t-16 39t-39 16t-39 -16t-16 -39t16 -39t39 -16zM169 470q-25 0 -47.5 9.5t-39 26t-26 39t-9.5 47.5t9.5 47.5t26 39t39 26t47.5 9.5t47.5 -9.5t39 -26t26 -39t9.5 -47.5t-9.5 -47.5t-26 -39t-39 -26t-47.5 -9.5z" />
    <glyph glyph-name="acute" unicode="&#xb4;" horiz-adv-x="328" 
d="M140 710h133l-131 -165h-87z" />
    <glyph glyph-name="periodcentered" unicode="&#xb7;" horiz-adv-x="283" 
d="M142 189q-36 0 -61.5 25.5t-25.5 61.5q0 18 7 33.5t18.5 27t27.5 18.5t34 7t33.5 -7t27.5 -18.5t18.5 -27t6.5 -33.5q0 -36 -25 -61.5t-61 -25.5z" />
    <glyph glyph-name="cedilla" unicode="&#xb8;" horiz-adv-x="267" 
d="M110 0h82l-40 -132h-100z" />
    <glyph glyph-name="guillemotright" unicode="&#xbb;" horiz-adv-x="520" 
d="M336 22l-75 51l121 177l-121 177l75 51l156 -228zM122 22l-75 51l121 177l-121 177l75 51l156 -228z" />
    <glyph glyph-name="questiondown" unicode="&#xbf;" horiz-adv-x="480" 
d="M241 -194q-48 0 -89 17t-71 46.5t-47.5 69.5t-17.5 86t17.5 86t47.5 69.5t71 46.5t89 17h57v-102h-57q-52 0 -83.5 -33.5t-31.5 -83.5t31.5 -83.5t83.5 -33.5q53 0 84 33.5t31 83.5h110q0 -46 -17 -86t-47.5 -69.5t-71.5 -46.5t-89 -17zM195 351q-16 12 -26 30t-10 40
q0 36 25.5 61.5t61.5 25.5q18 0 33.5 -7t27 -18.5t18.5 -27.5t7 -34q0 -22 -9.5 -40t-26.5 -30h-101z" />
    <glyph glyph-name="Agrave" unicode="&#xc0;" horiz-adv-x="714" 
d="M357 718l347 -718h-125l-74 158h-297l-74 -158h-124zM258 264h197l-98 210zM205 913h130l75 -145h-87z" />
    <glyph glyph-name="Aacute" unicode="&#xc1;" horiz-adv-x="714" 
d="M357 718l347 -718h-125l-74 158h-297l-74 -158h-124zM258 264h197l-98 210zM390 913h130l-117 -145h-87z" />
    <glyph glyph-name="Acircumflex" unicode="&#xc2;" horiz-adv-x="714" 
d="M357 718l347 -718h-125l-74 158h-297l-74 -158h-124zM258 264h197l-98 210zM182 833l175 91l174 -91l-37 -73l-137 73l-138 -73z" />
    <glyph glyph-name="Atilde" unicode="&#xc3;" horiz-adv-x="714" 
d="M357 718l347 -718h-125l-74 158h-297l-74 -158h-124zM258 264h197l-98 210zM179 800q4 24 15 43.5t26 32.5t33 20t36 7q21 0 39 -6.5t33 -15t28.5 -15t25.5 -6.5q20 0 30 10t16 33h78l-3 -22q-4 -24 -14.5 -43.5t-25.5 -32.5t-32.5 -20t-36.5 -7q-22 0 -40 6.5t-33.5 15
t-28.5 15t-25 6.5q-20 0 -30.5 -10.5t-15.5 -33.5h-79z" />
    <glyph glyph-name="Adieresis" unicode="&#xc4;" horiz-adv-x="714" 
d="M357 718l347 -718h-125l-74 158h-297l-74 -158h-124zM258 264h197l-98 210zM242 774q-27 0 -47.5 19.5t-20.5 48.5q0 28 20.5 48t47.5 20q29 0 48.5 -20t19.5 -48q0 -29 -19.5 -48.5t-48.5 -19.5zM472 774q-28 0 -48 19.5t-20 48.5q0 28 20 48t48 20q29 0 48.5 -20
t19.5 -48q0 -29 -19.5 -48.5t-48.5 -19.5z" />
    <glyph glyph-name="Aring" unicode="&#xc5;" horiz-adv-x="714" 
d="M357 718l347 -718h-125l-74 158h-297l-74 -158h-124zM258 264h197l-98 210zM357 807q20 0 33.5 13t13.5 34q0 20 -13.5 34t-33.5 14t-34 -14t-14 -34q0 -21 14 -34t34 -13zM357 750q-23 0 -42.5 8t-33.5 22t-22.5 33t-8.5 41q0 45 31 74.5t76 29.5q22 0 41.5 -8t34 -22
t23 -33t8.5 -41t-8.5 -41t-23 -33t-34 -22t-41.5 -8z" />
    <glyph glyph-name="AE" unicode="&#xc6;" horiz-adv-x="992" 
d="M299 598l-52 112h392l55 -114h-278l87 -180h228l54 -112h-228l92 -190h278l55 -114h-403l-74 158h-297l-74 -158h-124zM258 264h197l-98 210z" />
    <glyph glyph-name="Ccedilla" unicode="&#xc7;" horiz-adv-x="681" 
d="M401 -8q-75 0 -141.5 28t-115.5 76.5t-77.5 115t-28.5 143.5t28.5 143.5t77.5 115t115.5 76.5t141.5 28t138.5 -26t112.5 -77l-75 -82q-33 35 -78.5 55t-97.5 20q-53 0 -97.5 -19.5t-77.5 -53.5t-51.5 -80.5t-18.5 -99.5t18.5 -99.5t51.5 -80.5t77.5 -53.5t97.5 -19.5
q52 0 97.5 20t78.5 55l75 -82q-49 -51 -112.5 -77t-138.5 -26zM331 0h82l-40 -132h-100z" />
    <glyph glyph-name="Egrave" unicode="&#xc8;" horiz-adv-x="544" 
d="M79 710h421v-114h-305v-180h245v-112h-245v-190h305v-114h-421v710zM158 913h130l75 -145h-87z" />
    <glyph glyph-name="Eacute" unicode="&#xc9;" horiz-adv-x="544" 
d="M79 710h421v-114h-305v-180h245v-112h-245v-190h305v-114h-421v710zM290 913h130l-117 -145h-87z" />
    <glyph glyph-name="Ecircumflex" unicode="&#xca;" horiz-adv-x="544" 
d="M79 710h421v-114h-305v-180h245v-112h-245v-190h305v-114h-421v710zM115 833l175 91l174 -91l-37 -73l-137 73l-138 -73z" />
    <glyph glyph-name="Edieresis" unicode="&#xcb;" horiz-adv-x="544" 
d="M79 710h421v-114h-305v-180h245v-112h-245v-190h305v-114h-421v710zM174 774q-27 0 -47.5 19.5t-20.5 48.5q0 28 20.5 48t47.5 20q29 0 48.5 -20t19.5 -48q0 -29 -19.5 -48.5t-48.5 -19.5zM404 774q-28 0 -48 19.5t-20 48.5q0 28 20 48t48 20q29 0 48.5 -20t19.5 -48
q0 -29 -19.5 -48.5t-48.5 -19.5z" />
    <glyph glyph-name="Igrave" unicode="&#xcc;" horiz-adv-x="274" 
d="M79 710h116v-710h-116v710zM6 913h130l75 -145h-87z" />
    <glyph glyph-name="Iacute" unicode="&#xcd;" horiz-adv-x="274" 
d="M79 710h116v-710h-116v710zM138 913h130l-117 -145h-87z" />
    <glyph glyph-name="Icircumflex" unicode="&#xce;" horiz-adv-x="274" 
d="M79 710h116v-710h-116v710zM-37 833l175 91l174 -91l-37 -73l-137 73l-138 -73z" />
    <glyph glyph-name="Idieresis" unicode="&#xcf;" horiz-adv-x="274" 
d="M79 710h116v-710h-116v710zM23 774q-27 0 -47.5 19.5t-20.5 48.5q0 28 20.5 48t47.5 20q29 0 48.5 -20t19.5 -48q0 -29 -19.5 -48.5t-48.5 -19.5zM253 774q-28 0 -48 19.5t-20 48.5q0 28 20 48t48 20q29 0 48.5 -20t19.5 -48q0 -29 -19.5 -48.5t-48.5 -19.5z" />
    <glyph glyph-name="Eth" unicode="&#xd0;" horiz-adv-x="738" 
d="M-6 421h109v289h225q79 0 147.5 -27t118 -75t78 -113t28.5 -140t-28.5 -140t-78 -113t-118 -75t-147.5 -27h-225v313h-109v108zM328 108q57 0 104 19t80.5 52t51.5 78t18 98q0 52 -18 97.5t-51.5 78.5t-80.5 52t-104 19h-109v-181h130v-108h-130v-205h109z" />
    <glyph glyph-name="Ntilde" unicode="&#xd1;" horiz-adv-x="759" 
d="M195 453v-453h-116v718l485 -461v453h116v-718zM201 800q4 24 15 43.5t26 32.5t33 20t36 7q21 0 39 -6.5t33 -15t28.5 -15t25.5 -6.5q20 0 30 10t16 33h78l-3 -22q-4 -24 -14.5 -43.5t-25.5 -32.5t-32.5 -20t-36.5 -7q-22 0 -40 6.5t-33.5 15t-28.5 15t-25 6.5
q-20 0 -30.5 -10.5t-15.5 -33.5h-79z" />
    <glyph glyph-name="Ograve" unicode="&#xd2;" horiz-adv-x="802" 
d="M401 102q52 0 97 19.5t78 53.5t51.5 80.5t18.5 99.5t-18.5 99.5t-51.5 80.5t-78 53.5t-97 19.5q-53 0 -97.5 -19.5t-77.5 -53.5t-51.5 -80.5t-18.5 -99.5t18.5 -99.5t51.5 -80.5t77.5 -53.5t97.5 -19.5zM401 -8q-75 0 -141.5 28t-115.5 76.5t-77.5 115t-28.5 143.5
t28.5 143.5t77.5 115t115.5 76.5t141.5 28q76 0 142 -28t115 -76.5t77.5 -115t28.5 -143.5t-28.5 -143.5t-77.5 -115t-115 -76.5t-142 -28zM260 913h130l75 -145h-87z" />
    <glyph glyph-name="Oacute" unicode="&#xd3;" horiz-adv-x="802" 
d="M401 102q52 0 97 19.5t78 53.5t51.5 80.5t18.5 99.5t-18.5 99.5t-51.5 80.5t-78 53.5t-97 19.5q-53 0 -97.5 -19.5t-77.5 -53.5t-51.5 -80.5t-18.5 -99.5t18.5 -99.5t51.5 -80.5t77.5 -53.5t97.5 -19.5zM401 -8q-75 0 -141.5 28t-115.5 76.5t-77.5 115t-28.5 143.5
t28.5 143.5t77.5 115t115.5 76.5t141.5 28q76 0 142 -28t115 -76.5t77.5 -115t28.5 -143.5t-28.5 -143.5t-77.5 -115t-115 -76.5t-142 -28zM411 913h130l-117 -145h-87z" />
    <glyph glyph-name="Ocircumflex" unicode="&#xd4;" horiz-adv-x="802" 
d="M401 102q52 0 97 19.5t78 53.5t51.5 80.5t18.5 99.5t-18.5 99.5t-51.5 80.5t-78 53.5t-97 19.5q-53 0 -97.5 -19.5t-77.5 -53.5t-51.5 -80.5t-18.5 -99.5t18.5 -99.5t51.5 -80.5t77.5 -53.5t97.5 -19.5zM401 -8q-75 0 -141.5 28t-115.5 76.5t-77.5 115t-28.5 143.5
t28.5 143.5t77.5 115t115.5 76.5t141.5 28q76 0 142 -28t115 -76.5t77.5 -115t28.5 -143.5t-28.5 -143.5t-77.5 -115t-115 -76.5t-142 -28zM226 833l175 91l174 -91l-37 -73l-137 73l-138 -73z" />
    <glyph glyph-name="Otilde" unicode="&#xd5;" horiz-adv-x="802" 
d="M401 102q52 0 97 19.5t78 53.5t51.5 80.5t18.5 99.5t-18.5 99.5t-51.5 80.5t-78 53.5t-97 19.5q-53 0 -97.5 -19.5t-77.5 -53.5t-51.5 -80.5t-18.5 -99.5t18.5 -99.5t51.5 -80.5t77.5 -53.5t97.5 -19.5zM401 -8q-75 0 -141.5 28t-115.5 76.5t-77.5 115t-28.5 143.5
t28.5 143.5t77.5 115t115.5 76.5t141.5 28q76 0 142 -28t115 -76.5t77.5 -115t28.5 -143.5t-28.5 -143.5t-77.5 -115t-115 -76.5t-142 -28zM223 800q4 24 15 43.5t26 32.5t33 20t36 7q21 0 39 -6.5t33 -15t28.5 -15t25.5 -6.5q20 0 30 10t16 33h78l-3 -22
q-4 -24 -14.5 -43.5t-25.5 -32.5t-32.5 -20t-36.5 -7q-22 0 -40 6.5t-33.5 15t-28.5 15t-25 6.5q-20 0 -30.5 -10.5t-15.5 -33.5h-79z" />
    <glyph glyph-name="Odieresis" unicode="&#xd6;" horiz-adv-x="802" 
d="M401 102q52 0 97 19.5t78 53.5t51.5 80.5t18.5 99.5t-18.5 99.5t-51.5 80.5t-78 53.5t-97 19.5q-53 0 -97.5 -19.5t-77.5 -53.5t-51.5 -80.5t-18.5 -99.5t18.5 -99.5t51.5 -80.5t77.5 -53.5t97.5 -19.5zM401 -8q-75 0 -141.5 28t-115.5 76.5t-77.5 115t-28.5 143.5
t28.5 143.5t77.5 115t115.5 76.5t141.5 28q76 0 142 -28t115 -76.5t77.5 -115t28.5 -143.5t-28.5 -143.5t-77.5 -115t-115 -76.5t-142 -28zM286 774q-27 0 -47.5 19.5t-20.5 48.5q0 28 20.5 48t47.5 20q29 0 48.5 -20t19.5 -48q0 -29 -19.5 -48.5t-48.5 -19.5zM516 774
q-28 0 -48 19.5t-20 48.5q0 28 20 48t48 20q29 0 48.5 -20t19.5 -48q0 -29 -19.5 -48.5t-48.5 -19.5z" />
    <glyph glyph-name="multiply" unicode="&#xd7;" horiz-adv-x="572" 
d="M89 131l135 134l-135 135l63 62l134 -135l135 135l62 -62l-135 -135l135 -134l-62 -62l-135 134l-134 -134z" />
    <glyph glyph-name="Oslash" unicode="&#xd8;" horiz-adv-x="802" 
d="M52 49l68 73q-38 48 -60 106.5t-22 126.5q0 77 28.5 143.5t77.5 115t115.5 76.5t141.5 28q60 0 113 -17t98 -49l72 77l68 -65l-71 -76q39 -48 61 -106.5t22 -126.5q0 -77 -28.5 -143.5t-77.5 -115t-115 -76.5t-142 -28q-60 0 -113.5 17t-98.5 49l-70 -75zM401 102
q52 0 97 19.5t78 53.5t51.5 80.5t18.5 99.5q0 42 -11.5 79t-32.5 68l-336 -361q59 -39 135 -39zM156 355q0 -42 11.5 -79t31.5 -68l336 360q-29 19 -62.5 29.5t-71.5 10.5q-53 0 -97.5 -19.5t-77.5 -53.5t-51.5 -80.5t-18.5 -99.5z" />
    <glyph glyph-name="Ugrave" unicode="&#xd9;" horiz-adv-x="711" 
d="M356 -8q-63 0 -115.5 20t-90.5 56.5t-59 89t-21 118.5v434h116v-437q0 -83 47 -127t123 -44t122.5 44t46.5 127v437h116v-434q0 -66 -21 -118.5t-59 -89t-90 -56.5t-115 -20zM213 913h130l75 -145h-87z" />
    <glyph glyph-name="Uacute" unicode="&#xda;" horiz-adv-x="711" 
d="M356 -8q-63 0 -115.5 20t-90.5 56.5t-59 89t-21 118.5v434h116v-437q0 -83 47 -127t123 -44t122.5 44t46.5 127v437h116v-434q0 -66 -21 -118.5t-59 -89t-90 -56.5t-115 -20zM366 913h130l-117 -145h-87z" />
    <glyph glyph-name="Ucircumflex" unicode="&#xdb;" horiz-adv-x="711" 
d="M356 -8q-63 0 -115.5 20t-90.5 56.5t-59 89t-21 118.5v434h116v-437q0 -83 47 -127t123 -44t122.5 44t46.5 127v437h116v-434q0 -66 -21 -118.5t-59 -89t-90 -56.5t-115 -20zM180 833l175 91l174 -91l-37 -73l-137 73l-138 -73z" />
    <glyph glyph-name="Udieresis" unicode="&#xdc;" horiz-adv-x="711" 
d="M356 -8q-63 0 -115.5 20t-90.5 56.5t-59 89t-21 118.5v434h116v-437q0 -83 47 -127t123 -44t122.5 44t46.5 127v437h116v-434q0 -66 -21 -118.5t-59 -89t-90 -56.5t-115 -20zM240 774q-27 0 -47.5 19.5t-20.5 48.5q0 28 20.5 48t47.5 20q29 0 48.5 -20t19.5 -48
q0 -29 -19.5 -48.5t-48.5 -19.5zM470 774q-28 0 -48 19.5t-20 48.5q0 28 20 48t48 20q29 0 48.5 -20t19.5 -48q0 -29 -19.5 -48.5t-48.5 -19.5z" />
    <glyph glyph-name="Yacute" unicode="&#xdd;" horiz-adv-x="641" 
d="M262 299l-261 411h136l183 -293l183 293h137l-262 -411v-299h-116v299zM342 913h130l-117 -145h-87z" />
    <glyph glyph-name="Thorn" unicode="&#xde;" horiz-adv-x="556" 
d="M79 710h116v-128h92q55 0 101 -17t79 -47t51 -71.5t18 -90.5q0 -50 -18 -91.5t-51 -71.5t-79 -46.5t-101 -16.5h-92v-130h-116v710zM286 238q64 0 99.5 32.5t35.5 85.5t-35.5 85t-99.5 32h-91v-235h91z" />
    <glyph glyph-name="germandbls" unicode="&#xdf;" horiz-adv-x="535" 
d="M65 558q0 72 40.5 112t112.5 40h62v-101h-34q-43 0 -57 -18t-14 -56v-35h341l-143 -234q66 -23 102 -79t36 -130q0 -52 -19 -96t-53.5 -76.5t-82 -50.5t-104.5 -18h-3v109h4q33 0 60 9.5t46.5 27t30.5 41.5t11 54q0 57 -38 96.5t-112 39.5h-34l126 209h-168v-402h-110
v558z" />
    <glyph glyph-name="agrave" unicode="&#xe0;" horiz-adv-x="611" 
d="M431 36q-26 -21 -60 -32.5t-74 -11.5q-56 0 -103 20t-81 54.5t-53.5 81.5t-19.5 102t19.5 102t53.5 81.5t81 54.5t103 20q40 0 74 -12t60 -33v37h110v-500h-110v36zM298 97q42 0 77.5 18.5t55.5 49.5v170q-20 31 -55.5 49.5t-77.5 18.5q-32 0 -58.5 -11.5t-46 -32
t-30 -48.5t-10.5 -61t10.5 -61t30 -48.5t46 -32t58.5 -11.5zM153 710h133l84 -165h-85z" />
    <glyph glyph-name="aacute" unicode="&#xe1;" horiz-adv-x="611" 
d="M431 36q-26 -21 -60 -32.5t-74 -11.5q-56 0 -103 20t-81 54.5t-53.5 81.5t-19.5 102t19.5 102t53.5 81.5t81 54.5t103 20q40 0 74 -12t60 -33v37h110v-500h-110v36zM298 97q42 0 77.5 18.5t55.5 49.5v170q-20 31 -55.5 49.5t-77.5 18.5q-32 0 -58.5 -11.5t-46 -32
t-30 -48.5t-10.5 -61t10.5 -61t30 -48.5t46 -32t58.5 -11.5zM325 710h133l-131 -165h-87z" />
    <glyph glyph-name="acircumflex" unicode="&#xe2;" horiz-adv-x="611" 
d="M431 36q-26 -21 -60 -32.5t-74 -11.5q-56 0 -103 20t-81 54.5t-53.5 81.5t-19.5 102t19.5 102t53.5 81.5t81 54.5t103 20q40 0 74 -12t60 -33v37h110v-500h-110v36zM298 97q42 0 77.5 18.5t55.5 49.5v170q-20 31 -55.5 49.5t-77.5 18.5q-32 0 -58.5 -11.5t-46 -32
t-30 -48.5t-10.5 -61t10.5 -61t30 -48.5t46 -32t58.5 -11.5zM145 613l173 105l173 -105l-40 -70l-133 81l-131 -81z" />
    <glyph glyph-name="atilde" unicode="&#xe3;" horiz-adv-x="611" 
d="M431 36q-26 -21 -60 -32.5t-74 -11.5q-56 0 -103 20t-81 54.5t-53.5 81.5t-19.5 102t19.5 102t53.5 81.5t81 54.5t103 20q40 0 74 -12t60 -33v37h110v-500h-110v36zM298 97q42 0 77.5 18.5t55.5 49.5v170q-20 31 -55.5 49.5t-77.5 18.5q-32 0 -58.5 -11.5t-46 -32
t-30 -48.5t-10.5 -61t10.5 -61t30 -48.5t46 -32t58.5 -11.5zM148 584q8 49 40 75.5t68 26.5q21 0 39 -6.5t33 -14.5t28.5 -14.5t25.5 -6.5q20 0 30 10t16 33h77l-3 -22q-8 -47 -39 -74.5t-69 -27.5q-22 0 -40 6.5t-33.5 14.5t-28.5 14.5t-25 6.5q-20 0 -30.5 -10t-15.5 -33
h-77z" />
    <glyph glyph-name="adieresis" unicode="&#xe4;" horiz-adv-x="611" 
d="M431 36q-26 -21 -60 -32.5t-74 -11.5q-56 0 -103 20t-81 54.5t-53.5 81.5t-19.5 102t19.5 102t53.5 81.5t81 54.5t103 20q40 0 74 -12t60 -33v37h110v-500h-110v36zM298 97q42 0 77.5 18.5t55.5 49.5v170q-20 31 -55.5 49.5t-77.5 18.5q-32 0 -58.5 -11.5t-46 -32
t-30 -48.5t-10.5 -61t10.5 -61t30 -48.5t46 -32t58.5 -11.5zM206 562q-28 0 -48 19.5t-20 47.5t20 48t48 20t48 -20t20 -48t-20 -47.5t-48 -19.5zM436 562q-29 0 -48 19.5t-19 47.5t19 48t48 20q28 0 47.5 -20t19.5 -48t-19.5 -47.5t-47.5 -19.5z" />
    <glyph glyph-name="aring" unicode="&#xe5;" horiz-adv-x="611" 
d="M431 36q-26 -21 -60 -32.5t-74 -11.5q-56 0 -103 20t-81 54.5t-53.5 81.5t-19.5 102t19.5 102t53.5 81.5t81 54.5t103 20q40 0 74 -12t60 -33v37h110v-500h-110v36zM298 97q42 0 77.5 18.5t55.5 49.5v170q-20 31 -55.5 49.5t-77.5 18.5q-32 0 -58.5 -11.5t-46 -32
t-30 -48.5t-10.5 -61t10.5 -61t30 -48.5t46 -32t58.5 -11.5zM298 608q20 0 33.5 13.5t13.5 33.5t-13.5 33.5t-33.5 13.5t-34 -13.5t-14 -33.5t14 -33.5t34 -13.5zM298 551q-23 0 -42.5 8t-33.5 22t-22.5 33t-8.5 41t8.5 41t23 33t34 22t41.5 8t41.5 -8t34 -22t23 -33
t8.5 -41t-8.5 -41t-23 -33t-34 -22t-41.5 -8z" />
    <glyph glyph-name="ae" unicode="&#xe6;" horiz-adv-x="908" 
d="M631 -8q-62 0 -112.5 23t-85.5 65q-40 -43 -90 -65.5t-113 -22.5q-91 0 -144.5 45.5t-53.5 125.5q0 36 15 65t41 48.5t62.5 30t80.5 10.5q43 0 77.5 -9.5t61.5 -23.5v21q-2 30 -13.5 49t-29.5 30.5t-40.5 16t-46.5 4.5q-42 0 -74.5 -12t-56.5 -29l-42 92q33 21 80 36.5
t102 15.5q28 0 55.5 -4.5t52.5 -15t45 -27t33 -39.5q35 40 84.5 63t109.5 23q52 0 95 -18t74 -51t49 -81t21 -108v-30h-381q8 -54 47.5 -86.5t96.5 -32.5q45 0 77.5 17.5t52.5 39.5l74 -79q-32 -38 -85 -62.5t-119 -24.5zM237 92q47 0 81.5 17.5t51.5 45.5v43
q-23 17 -54 26.5t-73 9.5t-72.5 -17.5t-30.5 -55.5q0 -19 8.5 -32t22 -21.5t31 -12t35.5 -3.5zM621 407q-45 0 -81 -27t-50 -75h257q-10 51 -43 76.5t-83 25.5z" />
    <glyph glyph-name="ccedilla" unicode="&#xe7;" horiz-adv-x="524" 
d="M298 -8q-56 0 -103 20t-81.5 54.5t-54 81.5t-19.5 102t19.5 102t54 81.5t81.5 54.5t103 20q60 0 108 -22.5t83 -60.5l-75 -77q-20 23 -48.5 38t-67.5 15q-32 0 -58.5 -11.5t-46 -31.5t-30 -47.5t-10.5 -60.5t10.5 -60.5t30 -47.5t46 -31.5t58.5 -11.5q39 0 67.5 15
t48.5 38l75 -77q-35 -38 -83 -60.5t-108 -22.5zM242 0h82l-40 -132h-100z" />
    <glyph glyph-name="egrave" unicode="&#xe8;" horiz-adv-x="574" 
d="M298 -8q-56 0 -103 20t-81.5 54.5t-54 81.5t-19.5 102t19.5 102t54 81.5t81 54.5t101.5 20q52 0 95 -18t74 -51t49 -81t21 -108v-30h-381q8 -54 47.5 -86.5t96.5 -32.5q45 0 77.5 17.5t52.5 39.5l74 -79q-32 -38 -85 -62.5t-119 -24.5zM288 407q-45 0 -81 -27t-50 -75
h257q-10 51 -43 76.5t-83 25.5zM144 710h133l84 -165h-85z" />
    <glyph glyph-name="eacute" unicode="&#xe9;" horiz-adv-x="574" 
d="M298 -8q-56 0 -103 20t-81.5 54.5t-54 81.5t-19.5 102t19.5 102t54 81.5t81 54.5t101.5 20q52 0 95 -18t74 -51t49 -81t21 -108v-30h-381q8 -54 47.5 -86.5t96.5 -32.5q45 0 77.5 17.5t52.5 39.5l74 -79q-32 -38 -85 -62.5t-119 -24.5zM288 407q-45 0 -81 -27t-50 -75
h257q-10 51 -43 76.5t-83 25.5zM321 710h133l-131 -165h-87z" />
    <glyph glyph-name="ecircumflex" unicode="&#xea;" horiz-adv-x="574" 
d="M298 -8q-56 0 -103 20t-81.5 54.5t-54 81.5t-19.5 102t19.5 102t54 81.5t81 54.5t101.5 20q52 0 95 -18t74 -51t49 -81t21 -108v-30h-381q8 -54 47.5 -86.5t96.5 -32.5q45 0 77.5 17.5t52.5 39.5l74 -79q-32 -38 -85 -62.5t-119 -24.5zM288 407q-45 0 -81 -27t-50 -75
h257q-10 51 -43 76.5t-83 25.5zM123 613l173 105l173 -105l-40 -70l-133 81l-131 -81z" />
    <glyph glyph-name="edieresis" unicode="&#xeb;" horiz-adv-x="574" 
d="M298 -8q-56 0 -103 20t-81.5 54.5t-54 81.5t-19.5 102t19.5 102t54 81.5t81 54.5t101.5 20q52 0 95 -18t74 -51t49 -81t21 -108v-30h-381q8 -54 47.5 -86.5t96.5 -32.5q45 0 77.5 17.5t52.5 39.5l74 -79q-32 -38 -85 -62.5t-119 -24.5zM288 407q-45 0 -81 -27t-50 -75
h257q-10 51 -43 76.5t-83 25.5zM180 562q-28 0 -48 19.5t-20 47.5t20 48t48 20t48 -20t20 -48t-20 -47.5t-48 -19.5zM410 562q-29 0 -48 19.5t-19 47.5t19 48t48 20q28 0 47.5 -20t19.5 -48t-19.5 -47.5t-47.5 -19.5z" />
    <glyph glyph-name="igrave" unicode="&#xec;" 
d="M70 500h110v-500h-110v500zM-17 710h133l84 -165h-85z" />
    <glyph glyph-name="iacute" unicode="&#xed;" 
d="M70 500h110v-500h-110v500zM137 710h133l-131 -165h-87z" />
    <glyph glyph-name="icircumflex" unicode="&#xee;" 
d="M70 500h110v-500h-110v500zM-47 613l173 105l173 -105l-40 -70l-133 81l-131 -81z" />
    <glyph glyph-name="idieresis" unicode="&#xef;" 
d="M70 500h110v-500h-110v500zM10 562q-28 0 -48 19.5t-20 47.5t20 48t48 20t48 -20t20 -48t-20 -47.5t-48 -19.5zM240 562q-29 0 -48 19.5t-19 47.5t19 48t48 20q28 0 47.5 -20t19.5 -48t-19.5 -47.5t-47.5 -19.5z" />
    <glyph glyph-name="eth" unicode="&#xf0;" horiz-adv-x="598" 
d="M153 631h83l-53 79h122l53 -79h117v-78h-65l100 -150q22 -32 35 -70.5t13 -82.5q0 -55 -19.5 -102t-54.5 -81.5t-82.5 -54.5t-102.5 -20q-56 0 -103.5 20t-82 54.5t-54 81.5t-19.5 102t20 102.5t54.5 82t80 54t97.5 19.5q7 0 16 -1t12 -2l-32 48h-135v78zM299 97
q32 0 58.5 11.5t46 32t30.5 48.5t11 61t-11 61t-30.5 48.5t-46 32t-58.5 11.5t-59 -11.5t-46.5 -32t-30 -48.5t-10.5 -61t10.5 -61t30 -48.5t46.5 -32t59 -11.5z" />
    <glyph glyph-name="ntilde" unicode="&#xf1;" horiz-adv-x="583" 
d="M70 500h110v-47q26 29 63.5 42t76.5 13q46 0 84 -15.5t64 -43.5t40.5 -68t14.5 -88v-293h-110v291q0 20 -7.5 40t-22 36t-35.5 26t-49 10q-42 0 -73 -21.5t-46 -66.5v-315h-110v500zM120 584q8 49 40 75.5t68 26.5q21 0 39 -6.5t33 -14.5t28.5 -14.5t25.5 -6.5
q20 0 30 10t16 33h77l-3 -22q-8 -47 -39 -74.5t-69 -27.5q-22 0 -40 6.5t-33.5 14.5t-28.5 14.5t-25 6.5q-20 0 -30.5 -10t-15.5 -33h-77z" />
    <glyph glyph-name="ograve" unicode="&#xf2;" horiz-adv-x="598" 
d="M299 97q32 0 58.5 11.5t46 32t30.5 48.5t11 61t-11 61t-30.5 48.5t-46 32t-58.5 11.5t-59 -11.5t-46.5 -32t-30 -48.5t-10.5 -61t10.5 -61t30 -48.5t46.5 -32t59 -11.5zM299 -8q-56 0 -103.5 20t-82 54.5t-54 81.5t-19.5 102t19.5 102t54 81.5t82 54.5t103.5 20
q55 0 102.5 -20t82.5 -54.5t54.5 -81.5t19.5 -102t-19.5 -102t-54.5 -81.5t-82.5 -54.5t-102.5 -20zM155 710h133l84 -165h-85z" />
    <glyph glyph-name="oacute" unicode="&#xf3;" horiz-adv-x="598" 
d="M299 97q32 0 58.5 11.5t46 32t30.5 48.5t11 61t-11 61t-30.5 48.5t-46 32t-58.5 11.5t-59 -11.5t-46.5 -32t-30 -48.5t-10.5 -61t10.5 -61t30 -48.5t46.5 -32t59 -11.5zM299 -8q-56 0 -103.5 20t-82 54.5t-54 81.5t-19.5 102t19.5 102t54 81.5t82 54.5t103.5 20
q55 0 102.5 -20t82.5 -54.5t54.5 -81.5t19.5 -102t-19.5 -102t-54.5 -81.5t-82.5 -54.5t-102.5 -20zM323 710h133l-131 -165h-87z" />
    <glyph glyph-name="ocircumflex" unicode="&#xf4;" horiz-adv-x="598" 
d="M299 97q32 0 58.5 11.5t46 32t30.5 48.5t11 61t-11 61t-30.5 48.5t-46 32t-58.5 11.5t-59 -11.5t-46.5 -32t-30 -48.5t-10.5 -61t10.5 -61t30 -48.5t46.5 -32t59 -11.5zM299 -8q-56 0 -103.5 20t-82 54.5t-54 81.5t-19.5 102t19.5 102t54 81.5t82 54.5t103.5 20
q55 0 102.5 -20t82.5 -54.5t54.5 -81.5t19.5 -102t-19.5 -102t-54.5 -81.5t-82.5 -54.5t-102.5 -20zM126 613l173 105l173 -105l-40 -70l-133 81l-131 -81z" />
    <glyph glyph-name="otilde" unicode="&#xf5;" horiz-adv-x="598" 
d="M299 97q32 0 58.5 11.5t46 32t30.5 48.5t11 61t-11 61t-30.5 48.5t-46 32t-58.5 11.5t-59 -11.5t-46.5 -32t-30 -48.5t-10.5 -61t10.5 -61t30 -48.5t46.5 -32t59 -11.5zM299 -8q-56 0 -103.5 20t-82 54.5t-54 81.5t-19.5 102t19.5 102t54 81.5t82 54.5t103.5 20
q55 0 102.5 -20t82.5 -54.5t54.5 -81.5t19.5 -102t-19.5 -102t-54.5 -81.5t-82.5 -54.5t-102.5 -20zM123 584q8 49 40 75.5t68 26.5q21 0 39 -6.5t33 -14.5t28.5 -14.5t25.5 -6.5q20 0 30 10t16 33h77l-3 -22q-8 -47 -39 -74.5t-69 -27.5q-22 0 -40 6.5t-33.5 14.5
t-28.5 14.5t-25 6.5q-20 0 -30.5 -10t-15.5 -33h-77z" />
    <glyph glyph-name="odieresis" unicode="&#xf6;" horiz-adv-x="598" 
d="M299 97q32 0 58.5 11.5t46 32t30.5 48.5t11 61t-11 61t-30.5 48.5t-46 32t-58.5 11.5t-59 -11.5t-46.5 -32t-30 -48.5t-10.5 -61t10.5 -61t30 -48.5t46.5 -32t59 -11.5zM299 -8q-56 0 -103.5 20t-82 54.5t-54 81.5t-19.5 102t19.5 102t54 81.5t82 54.5t103.5 20
q55 0 102.5 -20t82.5 -54.5t54.5 -81.5t19.5 -102t-19.5 -102t-54.5 -81.5t-82.5 -54.5t-102.5 -20zM184 562q-28 0 -48 19.5t-20 47.5t20 48t48 20t48 -20t20 -48t-20 -47.5t-48 -19.5zM414 562q-29 0 -48 19.5t-19 47.5t19 48t48 20q28 0 47.5 -20t19.5 -48t-19.5 -47.5
t-47.5 -19.5z" />
    <glyph glyph-name="divide" unicode="&#xf7;" horiz-adv-x="615" 
d="M307 46q-29 0 -50 21t-21 50q0 30 21 50.5t50 20.5q30 0 51 -20.5t21 -50.5q0 -29 -21 -50t-51 -21zM89 321h437v-88h-437v88zM307 365q-29 0 -50 21t-21 51q0 29 21 50t50 21q30 0 51 -21t21 -50q0 -30 -21 -51t-51 -21z" />
    <glyph glyph-name="oslash" unicode="&#xf8;" horiz-adv-x="600" 
d="M40 39l52 53q-24 32 -37.5 72t-13.5 86q0 55 19.5 102t54 81.5t82 54.5t103.5 20q45 0 84.5 -13t71.5 -37l53 54l51 -51l-53 -53q25 -32 38.5 -72.5t13.5 -85.5q0 -55 -19.5 -102t-54.5 -81.5t-82.5 -54.5t-102.5 -20q-45 0 -84.5 13t-71.5 36l-53 -54zM154 250
q0 -44 18 -78l207 208q-17 11 -37 17t-42 6q-32 0 -59 -11.5t-46.5 -32t-30 -48.5t-10.5 -61zM300 97q32 0 58.5 11.5t46 32t30.5 48.5t11 61q0 41 -19 77l-206 -208q35 -22 79 -22z" />
    <glyph glyph-name="ugrave" unicode="&#xf9;" horiz-adv-x="580" 
d="M400 46q-26 -29 -63.5 -41.5t-76.5 -12.5q-47 0 -84.5 15.5t-63.5 43.5t-40.5 68t-14.5 88v293h110v-291q0 -20 7.5 -40t22 -36t36 -26t48.5 -10q42 0 72.5 21t46.5 64v318h110v-500h-110v46zM128 710h133l84 -165h-85z" />
    <glyph glyph-name="uacute" unicode="&#xfa;" horiz-adv-x="580" 
d="M400 46q-26 -29 -63.5 -41.5t-76.5 -12.5q-47 0 -84.5 15.5t-63.5 43.5t-40.5 68t-14.5 88v293h110v-291q0 -20 7.5 -40t22 -36t36 -26t48.5 -10q42 0 72.5 21t46.5 64v318h110v-500h-110v46zM303 710h133l-131 -165h-87z" />
    <glyph glyph-name="ucircumflex" unicode="&#xfb;" horiz-adv-x="580" 
d="M400 46q-26 -29 -63.5 -41.5t-76.5 -12.5q-47 0 -84.5 15.5t-63.5 43.5t-40.5 68t-14.5 88v293h110v-291q0 -20 7.5 -40t22 -36t36 -26t48.5 -10q42 0 72.5 21t46.5 64v318h110v-500h-110v46zM109 613l173 105l173 -105l-40 -70l-133 81l-131 -81z" />
    <glyph glyph-name="udieresis" unicode="&#xfc;" horiz-adv-x="580" 
d="M400 46q-26 -29 -63.5 -41.5t-76.5 -12.5q-47 0 -84.5 15.5t-63.5 43.5t-40.5 68t-14.5 88v293h110v-291q0 -20 7.5 -40t22 -36t36 -26t48.5 -10q42 0 72.5 21t46.5 64v318h110v-500h-110v46zM166 562q-28 0 -48 19.5t-20 47.5t20 48t48 20t48 -20t20 -48t-20 -47.5
t-48 -19.5zM396 562q-29 0 -48 19.5t-19 47.5t19 48t48 20q28 0 47.5 -20t19.5 -48t-19.5 -47.5t-47.5 -19.5z" />
    <glyph glyph-name="yacute" unicode="&#xfd;" horiz-adv-x="509" 
d="M197 26l-197 474h118l136 -345l137 345h118l-286 -684h-116zM286 710h133l-131 -165h-87z" />
    <glyph glyph-name="thorn" unicode="&#xfe;" horiz-adv-x="611" 
d="M70 710h110v-247q26 21 60 33t74 12q55 0 102.5 -20t81.5 -54.5t53.5 -81.5t19.5 -102t-19.5 -102t-53.5 -81.5t-81.5 -54.5t-102.5 -20q-81 0 -134 44v-220h-110v894zM313 403q-42 0 -77.5 -18.5t-55.5 -49.5v-170q20 -31 55.5 -49.5t77.5 -18.5q32 0 58.5 11.5t46 32
t30 48.5t10.5 61t-10.5 61t-30 48.5t-46 32t-58.5 11.5z" />
    <glyph glyph-name="ydieresis" unicode="&#xff;" horiz-adv-x="509" 
d="M197 26l-197 474h118l136 -345l137 345h118l-286 -684h-116zM138 562q-28 0 -48 19.5t-20 47.5t20 48t48 20t48 -20t20 -48t-20 -47.5t-48 -19.5zM368 562q-29 0 -48 19.5t-19 47.5t19 48t48 20q28 0 47.5 -20t19.5 -48t-19.5 -47.5t-47.5 -19.5z" />
    <glyph glyph-name="Abreve" unicode="&#x102;" horiz-adv-x="714" 
d="M357 718l347 -718h-125l-74 158h-297l-74 -158h-124zM258 264h197l-98 210zM356 763q-36 0 -66 12t-52 33t-34.5 49.5t-13.5 60.5h71q2 -35 27.5 -60.5t68.5 -25.5q42 0 68 25.5t27 60.5h72q-1 -32 -13.5 -60.5t-34.5 -49.5t-52.5 -33t-67.5 -12z" />
    <glyph glyph-name="Amacron" unicode="&#x100;" horiz-adv-x="714" 
d="M357 718l347 -718h-125l-74 158h-297l-74 -158h-124zM258 264h197l-98 210zM204 875h306v-76h-306v76z" />
    <glyph glyph-name="Aogonek" unicode="&#x104;" horiz-adv-x="714" 
d="M630 -189q-47 0 -79 27t-32 71q0 29 19 53t45 38h-4l-74 158h-297l-74 -158h-124l347 718l347 -718h-2q-37 -17 -57 -34t-20 -38q0 -17 11.5 -27.5t31.5 -10.5q11 0 20.5 3t15.5 6v-69q-17 -10 -35.5 -14.5t-38.5 -4.5zM258 264h197l-98 210z" />
    <glyph glyph-name="Cacute" unicode="&#x106;" horiz-adv-x="681" 
d="M401 -8q-75 0 -141.5 28t-115.5 76.5t-77.5 115t-28.5 143.5t28.5 143.5t77.5 115t115.5 76.5t141.5 28t138.5 -26t112.5 -77l-75 -82q-33 35 -78.5 55t-97.5 20q-53 0 -97.5 -19.5t-77.5 -53.5t-51.5 -80.5t-18.5 -99.5t18.5 -99.5t51.5 -80.5t77.5 -53.5t97.5 -19.5
q52 0 97.5 20t78.5 55l75 -82q-49 -51 -112.5 -77t-138.5 -26zM403 913h130l-117 -145h-87z" />
    <glyph glyph-name="Ccaron" unicode="&#x10c;" horiz-adv-x="681" 
d="M401 -8q-75 0 -141.5 28t-115.5 76.5t-77.5 115t-28.5 143.5t28.5 143.5t77.5 115t115.5 76.5t141.5 28t138.5 -26t112.5 -77l-75 -82q-33 35 -78.5 55t-97.5 20q-53 0 -97.5 -19.5t-77.5 -53.5t-51.5 -80.5t-18.5 -99.5t18.5 -99.5t51.5 -80.5t77.5 -53.5t97.5 -19.5
q52 0 97.5 20t78.5 55l75 -82q-49 -51 -112.5 -77t-138.5 -26zM227 851l37 72l137 -73l138 73l37 -73l-175 -91z" />
    <glyph glyph-name="Ccircumflex" unicode="&#x108;" horiz-adv-x="681" 
d="M401 -8q-75 0 -141.5 28t-115.5 76.5t-77.5 115t-28.5 143.5t28.5 143.5t77.5 115t115.5 76.5t141.5 28t138.5 -26t112.5 -77l-75 -82q-33 35 -78.5 55t-97.5 20q-53 0 -97.5 -19.5t-77.5 -53.5t-51.5 -80.5t-18.5 -99.5t18.5 -99.5t51.5 -80.5t77.5 -53.5t97.5 -19.5
q52 0 97.5 20t78.5 55l75 -82q-49 -51 -112.5 -77t-138.5 -26zM227 833l175 91l174 -91l-37 -73l-137 73l-138 -73z" />
    <glyph glyph-name="Cdotaccent" unicode="&#x10a;" horiz-adv-x="681" 
d="M401 -8q-75 0 -141.5 28t-115.5 76.5t-77.5 115t-28.5 143.5t28.5 143.5t77.5 115t115.5 76.5t141.5 28t138.5 -26t112.5 -77l-75 -82q-33 35 -78.5 55t-97.5 20q-53 0 -97.5 -19.5t-77.5 -53.5t-51.5 -80.5t-18.5 -99.5t18.5 -99.5t51.5 -80.5t77.5 -53.5t97.5 -19.5
q52 0 97.5 20t78.5 55l75 -82q-49 -51 -112.5 -77t-138.5 -26zM401 770q-29 0 -50.5 21t-21.5 51t21.5 51t50.5 21q30 0 51 -21t21 -51t-21 -51t-51 -21z" />
    <glyph glyph-name="Dcaron" unicode="&#x10e;" horiz-adv-x="714" 
d="M304 108q57 0 104 19t80.5 52t51.5 78t18 98q0 52 -18 97.5t-51.5 78.5t-80.5 52t-104 19h-109v-494h109zM79 710h225q79 0 147.5 -27t118 -75t78 -113t28.5 -140t-28.5 -140t-78 -113t-118 -75t-147.5 -27h-225v710zM133 851l37 72l137 -73l138 73l37 -73l-175 -91z" />
    <glyph glyph-name="Dcroat" unicode="&#x110;" horiz-adv-x="738" 
d="M-6 421h109v289h225q79 0 147.5 -27t118 -75t78 -113t28.5 -140t-28.5 -140t-78 -113t-118 -75t-147.5 -27h-225v313h-109v108zM328 108q57 0 104 19t80.5 52t51.5 78t18 98q0 52 -18 97.5t-51.5 78.5t-80.5 52t-104 19h-109v-181h130v-108h-130v-205h109z" />
    <glyph glyph-name="Ebreve" unicode="&#x114;" horiz-adv-x="544" 
d="M79 710h421v-114h-305v-180h245v-112h-245v-190h305v-114h-421v710zM288 763q-36 0 -66 12t-52 33t-34.5 49.5t-13.5 60.5h71q2 -35 27.5 -60.5t68.5 -25.5q42 0 68 25.5t27 60.5h72q-1 -32 -13.5 -60.5t-34.5 -49.5t-52.5 -33t-67.5 -12z" />
    <glyph glyph-name="Ecaron" unicode="&#x11a;" horiz-adv-x="544" 
d="M79 710h421v-114h-305v-180h245v-112h-245v-190h305v-114h-421v710zM115 851l37 72l137 -73l138 73l37 -73l-175 -91z" />
    <glyph glyph-name="Emacron" unicode="&#x112;" horiz-adv-x="544" 
d="M79 710h421v-114h-305v-180h245v-112h-245v-190h305v-114h-421v710zM136 875h306v-76h-306v76z" />
    <glyph glyph-name="Eogonek" unicode="&#x118;" horiz-adv-x="544" 
d="M79 710h421v-114h-305v-180h245v-112h-245v-190h305v-114h-421v710zM426 -189q-47 0 -79 27t-32 71q0 29 19 53t45 38h119q-37 -17 -57 -34t-20 -38q0 -17 11.5 -27.5t31.5 -10.5q11 0 20.5 3t15.5 6v-69q-17 -10 -35.5 -14.5t-38.5 -4.5z" />
    <glyph glyph-name="Edotaccent" unicode="&#x116;" horiz-adv-x="544" 
d="M79 710h421v-114h-305v-180h245v-112h-245v-190h305v-114h-421v710zM290 770q-29 0 -50.5 21t-21.5 51t21.5 51t50.5 21q30 0 51 -21t21 -51t-21 -51t-51 -21z" />
    <glyph glyph-name="Gbreve" unicode="&#x11e;" horiz-adv-x="730" 
d="M401 -8q-75 0 -141.5 28t-115.5 76.5t-77.5 115t-28.5 143.5t28.5 143.5t77.5 115t115.5 76.5t141.5 28q76 0 143 -26t116 -77l-75 -82q-33 35 -82 55t-102 20t-97.5 -19.5t-77.5 -53.5t-51.5 -80.5t-18.5 -99.5t18.5 -99.5t51.5 -80.5t77.5 -53.5t97.5 -19.5
q39 0 77 9.5t68 28.5v164h-195l51 112h260v-333q-50 -43 -118 -67t-143 -24zM400 763q-36 0 -66 12t-52 33t-34.5 49.5t-13.5 60.5h71q2 -35 27.5 -60.5t68.5 -25.5q42 0 68 25.5t27 60.5h72q-1 -32 -13.5 -60.5t-34.5 -49.5t-52.5 -33t-67.5 -12z" />
    <glyph glyph-name="Gcircumflex" unicode="&#x11c;" horiz-adv-x="730" 
d="M401 -8q-75 0 -141.5 28t-115.5 76.5t-77.5 115t-28.5 143.5t28.5 143.5t77.5 115t115.5 76.5t141.5 28q76 0 143 -26t116 -77l-75 -82q-33 35 -82 55t-102 20t-97.5 -19.5t-77.5 -53.5t-51.5 -80.5t-18.5 -99.5t18.5 -99.5t51.5 -80.5t77.5 -53.5t97.5 -19.5
q39 0 77 9.5t68 28.5v164h-195l51 112h260v-333q-50 -43 -118 -67t-143 -24zM226 833l175 91l174 -91l-37 -73l-137 73l-138 -73z" />
    <glyph glyph-name="uni0122" unicode="&#x122;" horiz-adv-x="730" 
d="M401 -8q-75 0 -141.5 28t-115.5 76.5t-77.5 115t-28.5 143.5t28.5 143.5t77.5 115t115.5 76.5t141.5 28q76 0 143 -26t116 -77l-75 -82q-33 35 -82 55t-102 20t-97.5 -19.5t-77.5 -53.5t-51.5 -80.5t-18.5 -99.5t18.5 -99.5t51.5 -80.5t77.5 -53.5t97.5 -19.5
q39 0 77 9.5t68 28.5v164h-195l51 112h260v-333q-50 -43 -118 -67t-143 -24zM344 -50h114l-100 -193h-73z" />
    <glyph glyph-name="Gdotaccent" unicode="&#x120;" horiz-adv-x="730" 
d="M401 -8q-75 0 -141.5 28t-115.5 76.5t-77.5 115t-28.5 143.5t28.5 143.5t77.5 115t115.5 76.5t141.5 28q76 0 143 -26t116 -77l-75 -82q-33 35 -82 55t-102 20t-97.5 -19.5t-77.5 -53.5t-51.5 -80.5t-18.5 -99.5t18.5 -99.5t51.5 -80.5t77.5 -53.5t97.5 -19.5
q39 0 77 9.5t68 28.5v164h-195l51 112h260v-333q-50 -43 -118 -67t-143 -24zM401 770q-29 0 -50.5 21t-21.5 51t21.5 51t50.5 21q30 0 51 -21t21 -51t-21 -51t-51 -21z" />
    <glyph glyph-name="Hbar" unicode="&#x126;" horiz-adv-x="742" 
d="M14 610h65v100h116v-100h352v100h116v-100h65v-94h-65v-516h-116v304h-352v-304h-116v516h-65v94zM547 416v100h-352v-100h352z" />
    <glyph glyph-name="Hcircumflex" unicode="&#x124;" horiz-adv-x="742" 
d="M79 710h116v-294h352v294h116v-710h-116v304h-352v-304h-116v710zM196 833l175 91l174 -91l-37 -73l-137 73l-138 -73z" />
    <glyph glyph-name="Ibreve" unicode="&#x12c;" horiz-adv-x="274" 
d="M79 710h116v-710h-116v710zM137 763q-36 0 -66 12t-52 33t-34.5 49.5t-13.5 60.5h71q2 -35 27.5 -60.5t68.5 -25.5q42 0 68 25.5t27 60.5h72q-1 -32 -13.5 -60.5t-34.5 -49.5t-52.5 -33t-67.5 -12z" />
    <glyph glyph-name="Idotaccent" unicode="&#x130;" horiz-adv-x="274" 
d="M79 710h116v-710h-116v710zM137 770q-29 0 -50.5 21t-21.5 51t21.5 51t50.5 21q30 0 51 -21t21 -51t-21 -51t-51 -21z" />
    <glyph glyph-name="Imacron" unicode="&#x12a;" horiz-adv-x="274" 
d="M79 710h116v-710h-116v710zM-15 875h306v-76h-306v76z" />
    <glyph glyph-name="Iogonek" unicode="&#x12e;" horiz-adv-x="274" 
d="M125 -189q-47 0 -79 27t-32 71q0 29 19.5 53t45.5 38v710h116v-710q-37 -17 -56 -34t-19 -38q0 -17 11.5 -27.5t31.5 -10.5q11 0 20.5 3t15.5 6v-69q-17 -10 -35.5 -14.5t-38.5 -4.5z" />
    <glyph glyph-name="Itilde" unicode="&#x128;" horiz-adv-x="274" 
d="M79 710h116v-710h-116v710zM-40 800q4 24 15 43.5t26 32.5t33 20t36 7q21 0 39 -6.5t33 -15t28.5 -15t25.5 -6.5q20 0 30 10t16 33h78l-3 -22q-4 -24 -14.5 -43.5t-25.5 -32.5t-32.5 -20t-36.5 -7q-22 0 -40 6.5t-33.5 15t-28.5 15t-25 6.5q-20 0 -30.5 -10.5
t-15.5 -33.5h-79z" />
    <glyph glyph-name="uni1ECA" unicode="&#x1eca;" horiz-adv-x="274" 
d="M79 710h116v-710h-116v710zM135 -194q-29 0 -50 20.5t-21 50.5t21 50.5t50 20.5q30 0 51 -20.5t21 -50.5t-21 -50.5t-51 -20.5z" />
    <glyph glyph-name="Jcircumflex" unicode="&#x134;" horiz-adv-x="530" 
d="M234 -8q-43 0 -82.5 13.5t-69.5 40.5t-48 68t-18 95h117q0 -54 29.5 -80t71.5 -27q42 0 72 26.5t30 80.5v501h116v-503q0 -54 -18 -94.5t-48 -67t-69.5 -40t-82.5 -13.5zM219 833l175 91l174 -91l-37 -73l-137 73l-138 -73z" />
    <glyph glyph-name="uni0136" unicode="&#x136;" horiz-adv-x="662" 
d="M79 710h116v-357l299 357h138l-301 -359l331 -351h-150l-317 335v-335h-116v710zM293 -50h114l-100 -193h-73z" />
    <glyph glyph-name="Lacute" unicode="&#x139;" horiz-adv-x="505" 
d="M79 710h116v-595h299v-115h-415v710zM168 913h130l-117 -145h-87z" />
    <glyph glyph-name="Lcaron" unicode="&#x13d;" horiz-adv-x="505" 
d="M79 710h116v-595h299v-115h-415v710zM300 710h109l-57 -163h-75z" />
    <glyph glyph-name="uni013B" unicode="&#x13b;" horiz-adv-x="505" 
d="M79 710h116v-595h299v-115h-415v710zM229 -50h114l-100 -193h-73z" />
    <glyph glyph-name="Ldot" unicode="&#x13f;" horiz-adv-x="505" 
d="M79 710h116v-595h299v-115h-415v710zM390 343q-29 0 -50 20.5t-21 50.5t21 50.5t50 20.5q30 0 51 -20.5t21 -50.5t-21 -50.5t-51 -20.5z" />
    <glyph glyph-name="Lslash" unicode="&#x141;" horiz-adv-x="536" 
d="M-17 279l127 79v352h116v-279l144 90l51 -87l-195 -121v-198h299v-115h-415v241l-77 -48z" />
    <glyph glyph-name="Nacute" unicode="&#x143;" horiz-adv-x="759" 
d="M195 453v-453h-116v718l485 -461v453h116v-718zM381 913h130l-117 -145h-87z" />
    <glyph glyph-name="Ncaron" unicode="&#x147;" horiz-adv-x="759" 
d="M195 453v-453h-116v718l485 -461v453h116v-718zM205 851l37 72l137 -73l138 73l37 -73l-175 -91z" />
    <glyph glyph-name="uni0145" unicode="&#x145;" horiz-adv-x="759" 
d="M195 453v-453h-116v718l485 -461v453h116v-718zM352 -50h114l-100 -193h-73z" />
    <glyph glyph-name="OE" unicode="&#x152;" horiz-adv-x="1046" 
d="M401 -8q-75 0 -141.5 28t-115.5 76.5t-77.5 115t-28.5 143.5t28.5 143.5t77.5 115t115.5 76.5t141.5 28q49 0 93.5 -12t84.5 -34v38h422v-114h-312v-18q26 -35 44 -75.5t26 -86.5h205v-112h-204q-6 -49 -24.5 -92.5t-46.5 -80.5v-17h313v-114h-423v37
q-40 -22 -84.5 -33.5t-93.5 -11.5zM401 102q52 0 97 19.5t78 53.5t51.5 80.5t18.5 99.5t-18.5 99.5t-51.5 80.5t-78 53.5t-97 19.5q-53 0 -97.5 -19.5t-77.5 -53.5t-51.5 -80.5t-18.5 -99.5t18.5 -99.5t51.5 -80.5t77.5 -53.5t97.5 -19.5z" />
    <glyph glyph-name="Obreve" unicode="&#x14e;" horiz-adv-x="802" 
d="M401 102q52 0 97 19.5t78 53.5t51.5 80.5t18.5 99.5t-18.5 99.5t-51.5 80.5t-78 53.5t-97 19.5q-53 0 -97.5 -19.5t-77.5 -53.5t-51.5 -80.5t-18.5 -99.5t18.5 -99.5t51.5 -80.5t77.5 -53.5t97.5 -19.5zM401 -8q-75 0 -141.5 28t-115.5 76.5t-77.5 115t-28.5 143.5
t28.5 143.5t77.5 115t115.5 76.5t141.5 28q76 0 142 -28t115 -76.5t77.5 -115t28.5 -143.5t-28.5 -143.5t-77.5 -115t-115 -76.5t-142 -28zM400 763q-36 0 -66 12t-52 33t-34.5 49.5t-13.5 60.5h71q2 -35 27.5 -60.5t68.5 -25.5q42 0 68 25.5t27 60.5h72q-1 -32 -13.5 -60.5
t-34.5 -49.5t-52.5 -33t-67.5 -12z" />
    <glyph glyph-name="Ohungarumlaut" unicode="&#x150;" horiz-adv-x="802" 
d="M401 102q52 0 97 19.5t78 53.5t51.5 80.5t18.5 99.5t-18.5 99.5t-51.5 80.5t-78 53.5t-97 19.5q-53 0 -97.5 -19.5t-77.5 -53.5t-51.5 -80.5t-18.5 -99.5t18.5 -99.5t51.5 -80.5t77.5 -53.5t97.5 -19.5zM401 -8q-75 0 -141.5 28t-115.5 76.5t-77.5 115t-28.5 143.5
t28.5 143.5t77.5 115t115.5 76.5t141.5 28q76 0 142 -28t115 -76.5t77.5 -115t28.5 -143.5t-28.5 -143.5t-77.5 -115t-115 -76.5t-142 -28zM318 913h121l-117 -145h-78zM519 913h120l-117 -145h-78z" />
    <glyph glyph-name="Omacron" unicode="&#x14c;" horiz-adv-x="802" 
d="M401 102q52 0 97 19.5t78 53.5t51.5 80.5t18.5 99.5t-18.5 99.5t-51.5 80.5t-78 53.5t-97 19.5q-53 0 -97.5 -19.5t-77.5 -53.5t-51.5 -80.5t-18.5 -99.5t18.5 -99.5t51.5 -80.5t77.5 -53.5t97.5 -19.5zM401 -8q-75 0 -141.5 28t-115.5 76.5t-77.5 115t-28.5 143.5
t28.5 143.5t77.5 115t115.5 76.5t141.5 28q76 0 142 -28t115 -76.5t77.5 -115t28.5 -143.5t-28.5 -143.5t-77.5 -115t-115 -76.5t-142 -28zM248 875h306v-76h-306v76z" />
    <glyph glyph-name="uni1ECC" unicode="&#x1ecc;" horiz-adv-x="802" 
d="M401 102q52 0 97 19.5t78 53.5t51.5 80.5t18.5 99.5t-18.5 99.5t-51.5 80.5t-78 53.5t-97 19.5q-53 0 -97.5 -19.5t-77.5 -53.5t-51.5 -80.5t-18.5 -99.5t18.5 -99.5t51.5 -80.5t77.5 -53.5t97.5 -19.5zM401 -8q-75 0 -141.5 28t-115.5 76.5t-77.5 115t-28.5 143.5
t28.5 143.5t77.5 115t115.5 76.5t141.5 28q76 0 142 -28t115 -76.5t77.5 -115t28.5 -143.5t-28.5 -143.5t-77.5 -115t-115 -76.5t-142 -28zM400 -194q-29 0 -50 20.5t-21 50.5t21 50.5t50 20.5q30 0 51 -20.5t21 -50.5t-21 -50.5t-51 -20.5z" />
    <glyph glyph-name="Racute" unicode="&#x154;" horiz-adv-x="622" 
d="M262 302h-67v-302h-116v710h230q49 0 90.5 -15t71.5 -42t47 -64.5t17 -82.5q0 -69 -39 -120.5t-107 -72.5l226 -313h-139zM298 403q60 0 89.5 27t29.5 72q0 46 -29.5 73.5t-89.5 27.5h-103v-200h103zM290 913h130l-117 -145h-87z" />
    <glyph glyph-name="Rcaron" unicode="&#x158;" horiz-adv-x="622" 
d="M262 302h-67v-302h-116v710h230q49 0 90.5 -15t71.5 -42t47 -64.5t17 -82.5q0 -69 -39 -120.5t-107 -72.5l226 -313h-139zM298 403q60 0 89.5 27t29.5 72q0 46 -29.5 73.5t-89.5 27.5h-103v-200h103zM103 851l37 72l137 -73l138 73l37 -73l-175 -91z" />
    <glyph glyph-name="uni0156" unicode="&#x156;" horiz-adv-x="622" 
d="M262 302h-67v-302h-116v710h230q49 0 90.5 -15t71.5 -42t47 -64.5t17 -82.5q0 -69 -39 -120.5t-107 -72.5l226 -313h-139zM298 403q60 0 89.5 27t29.5 72q0 46 -29.5 73.5t-89.5 27.5h-103v-200h103zM280 -50h114l-100 -193h-73z" />
    <glyph glyph-name="Sacute" unicode="&#x15a;" horiz-adv-x="518" 
d="M259 -8q-81 0 -143 33t-96 88l88 74q25 -34 64 -59.5t86 -25.5q52 0 80.5 22t28.5 60q0 40 -25 66t-78 49l-56 24q-160 70 -160 207q0 43 18 77.5t47 59t67 38t79 13.5q62 0 111 -21.5t88 -68.5l-80 -83q-28 33 -55 48t-65 15q-36 0 -65 -20t-29 -57q0 -35 24.5 -60.5
t78.5 -48.5l55 -25q73 -32 118 -80.5t45 -122.5q0 -45 -16 -82t-45.5 -64t-71.5 -41.5t-93 -14.5zM285 913h130l-117 -145h-87z" />
    <glyph glyph-name="Scaron" unicode="&#x160;" horiz-adv-x="518" 
d="M259 -8q-81 0 -143 33t-96 88l88 74q25 -34 64 -59.5t86 -25.5q52 0 80.5 22t28.5 60q0 40 -25 66t-78 49l-56 24q-160 70 -160 207q0 43 18 77.5t47 59t67 38t79 13.5q62 0 111 -21.5t88 -68.5l-80 -83q-28 33 -55 48t-65 15q-36 0 -65 -20t-29 -57q0 -35 24.5 -60.5
t78.5 -48.5l55 -25q73 -32 118 -80.5t45 -122.5q0 -45 -16 -82t-45.5 -64t-71.5 -41.5t-93 -14.5zM86 851l37 72l137 -73l138 73l37 -73l-175 -91z" />
    <glyph glyph-name="Scedilla" unicode="&#x15e;" horiz-adv-x="518" 
d="M259 -8q-81 0 -143 33t-96 88l88 74q25 -34 64 -59.5t86 -25.5q52 0 80.5 22t28.5 60q0 40 -25 66t-78 49l-56 24q-160 70 -160 207q0 43 18 77.5t47 59t67 38t79 13.5q62 0 111 -21.5t88 -68.5l-80 -83q-28 33 -55 48t-65 15q-36 0 -65 -20t-29 -57q0 -35 24.5 -60.5
t78.5 -48.5l55 -25q73 -32 118 -80.5t45 -122.5q0 -45 -16 -82t-45.5 -64t-71.5 -41.5t-93 -14.5zM230 0h82l-40 -132h-100z" />
    <glyph glyph-name="Scircumflex" unicode="&#x15c;" horiz-adv-x="518" 
d="M259 -8q-81 0 -143 33t-96 88l88 74q25 -34 64 -59.5t86 -25.5q52 0 80.5 22t28.5 60q0 40 -25 66t-78 49l-56 24q-160 70 -160 207q0 43 18 77.5t47 59t67 38t79 13.5q62 0 111 -21.5t88 -68.5l-80 -83q-28 33 -55 48t-65 15q-36 0 -65 -20t-29 -57q0 -35 24.5 -60.5
t78.5 -48.5l55 -25q73 -32 118 -80.5t45 -122.5q0 -45 -16 -82t-45.5 -64t-71.5 -41.5t-93 -14.5zM85 833l175 91l174 -91l-37 -73l-137 73l-138 -73z" />
    <glyph glyph-name="uni0218" unicode="&#x218;" horiz-adv-x="518" 
d="M259 -8q-81 0 -143 33t-96 88l88 74q25 -34 64 -59.5t86 -25.5q52 0 80.5 22t28.5 60q0 40 -25 66t-78 49l-56 24q-160 70 -160 207q0 43 18 77.5t47 59t67 38t79 13.5q62 0 111 -21.5t88 -68.5l-80 -83q-28 33 -55 48t-65 15q-36 0 -65 -20t-29 -57q0 -35 24.5 -60.5
t78.5 -48.5l55 -25q73 -32 118 -80.5t45 -122.5q0 -45 -16 -82t-45.5 -64t-71.5 -41.5t-93 -14.5zM203 -50h114l-100 -193h-73z" />
    <glyph glyph-name="Tcaron" unicode="&#x164;" horiz-adv-x="523" 
d="M203 596h-183v114h483v-114h-184v-596h-116v596zM87 851l37 72l137 -73l138 73l37 -73l-175 -91z" />
    <glyph glyph-name="uni0162" unicode="&#x162;" horiz-adv-x="523" 
d="M203 596h-183v114h483v-114h-184v-596h-116v596zM204 -50h114l-100 -193h-73z" />
    <glyph glyph-name="uni021A" unicode="&#x21a;" horiz-adv-x="523" 
d="M203 596h-183v114h483v-114h-184v-596h-116v596zM204 -50h114l-100 -193h-73z" />
    <glyph glyph-name="Ubreve" unicode="&#x16c;" horiz-adv-x="711" 
d="M356 -8q-63 0 -115.5 20t-90.5 56.5t-59 89t-21 118.5v434h116v-437q0 -83 47 -127t123 -44t122.5 44t46.5 127v437h116v-434q0 -66 -21 -118.5t-59 -89t-90 -56.5t-115 -20zM354 763q-36 0 -66 12t-52 33t-34.5 49.5t-13.5 60.5h71q2 -35 27.5 -60.5t68.5 -25.5
q42 0 68 25.5t27 60.5h72q-1 -32 -13.5 -60.5t-34.5 -49.5t-52.5 -33t-67.5 -12z" />
    <glyph glyph-name="Uhungarumlaut" unicode="&#x170;" horiz-adv-x="711" 
d="M356 -8q-63 0 -115.5 20t-90.5 56.5t-59 89t-21 118.5v434h116v-437q0 -83 47 -127t123 -44t122.5 44t46.5 127v437h116v-434q0 -66 -21 -118.5t-59 -89t-90 -56.5t-115 -20zM282 913h121l-117 -145h-78zM483 913h120l-117 -145h-78z" />
    <glyph glyph-name="Umacron" unicode="&#x16a;" horiz-adv-x="711" 
d="M356 -8q-63 0 -115.5 20t-90.5 56.5t-59 89t-21 118.5v434h116v-437q0 -83 47 -127t123 -44t122.5 44t46.5 127v437h116v-434q0 -66 -21 -118.5t-59 -89t-90 -56.5t-115 -20zM202 875h306v-76h-306v76z" />
    <glyph glyph-name="Uogonek" unicode="&#x172;" horiz-adv-x="711" 
d="M374 -189q-47 0 -79 27t-32 71q0 26 15.5 48.5t38.5 36.5q-55 6 -100.5 28t-78 58.5t-50.5 86t-18 109.5v434h116v-437q0 -83 47 -127t123 -44t122.5 44t46.5 127v437h116v-434q0 -57 -16 -103.5t-44.5 -82t-68.5 -59t-89 -32.5q-26 -16 -40 -34.5t-14 -36.5
q0 -17 11.5 -27.5t31.5 -10.5q11 0 20.5 3t15.5 6v-69q-17 -10 -35.5 -14.5t-38.5 -4.5z" />
    <glyph glyph-name="Uring" unicode="&#x16e;" horiz-adv-x="711" 
d="M356 -8q-63 0 -115.5 20t-90.5 56.5t-59 89t-21 118.5v434h116v-437q0 -83 47 -127t123 -44t122.5 44t46.5 127v437h116v-434q0 -66 -21 -118.5t-59 -89t-90 -56.5t-115 -20zM355 807q20 0 33.5 13t13.5 34q0 20 -13.5 34t-33.5 14t-34 -14t-14 -34q0 -21 14 -34t34 -13z
M355 750q-23 0 -42.5 8t-33.5 22t-22.5 33t-8.5 41q0 45 31 74.5t76 29.5q22 0 41.5 -8t34 -22t23 -33t8.5 -41t-8.5 -41t-23 -33t-34 -22t-41.5 -8z" />
    <glyph glyph-name="Utilde" unicode="&#x168;" horiz-adv-x="711" 
d="M356 -8q-63 0 -115.5 20t-90.5 56.5t-59 89t-21 118.5v434h116v-437q0 -83 47 -127t123 -44t122.5 44t46.5 127v437h116v-434q0 -66 -21 -118.5t-59 -89t-90 -56.5t-115 -20zM177 800q4 24 15 43.5t26 32.5t33 20t36 7q21 0 39 -6.5t33 -15t28.5 -15t25.5 -6.5
q20 0 30 10t16 33h78l-3 -22q-4 -24 -14.5 -43.5t-25.5 -32.5t-32.5 -20t-36.5 -7q-22 0 -40 6.5t-33.5 15t-28.5 15t-25 6.5q-20 0 -30.5 -10.5t-15.5 -33.5h-79z" />
    <glyph glyph-name="uni1EE4" unicode="&#x1ee4;" horiz-adv-x="711" 
d="M356 -8q-63 0 -115.5 20t-90.5 56.5t-59 89t-21 118.5v434h116v-437q0 -83 47 -127t123 -44t122.5 44t46.5 127v437h116v-434q0 -66 -21 -118.5t-59 -89t-90 -56.5t-115 -20zM355 -194q-29 0 -50 20.5t-21 50.5t21 50.5t50 20.5q30 0 51 -20.5t21 -50.5t-21 -50.5
t-51 -20.5z" />
    <glyph glyph-name="Wacute" unicode="&#x1e82;" horiz-adv-x="893" 
d="M11 710h119l140 -409l176 417l176 -417l140 409h120l-245 -718l-191 460l-191 -460zM478 913h130l-117 -145h-87z" />
    <glyph glyph-name="Wcircumflex" unicode="&#x174;" horiz-adv-x="893" 
d="M11 710h119l140 -409l176 417l176 -417l140 409h120l-245 -718l-191 460l-191 -460zM272 833l175 91l174 -91l-37 -73l-137 73l-138 -73z" />
    <glyph glyph-name="Wdieresis" unicode="&#x1e84;" horiz-adv-x="893" 
d="M11 710h119l140 -409l176 417l176 -417l140 409h120l-245 -718l-191 460l-191 -460zM331 774q-27 0 -47.5 19.5t-20.5 48.5q0 28 20.5 48t47.5 20q29 0 48.5 -20t19.5 -48q0 -29 -19.5 -48.5t-48.5 -19.5zM561 774q-28 0 -48 19.5t-20 48.5q0 28 20 48t48 20
q29 0 48.5 -20t19.5 -48q0 -29 -19.5 -48.5t-48.5 -19.5z" />
    <glyph glyph-name="Wgrave" unicode="&#x1e80;" horiz-adv-x="893" 
d="M11 710h119l140 -409l176 417l176 -417l140 409h120l-245 -718l-191 460l-191 -460zM287 913h130l75 -145h-87z" />
    <glyph glyph-name="Ycircumflex" unicode="&#x176;" horiz-adv-x="641" 
d="M262 299l-261 411h136l183 -293l183 293h137l-262 -411v-299h-116v299zM146 833l175 91l174 -91l-37 -73l-137 73l-138 -73z" />
    <glyph glyph-name="Ydieresis" unicode="&#x178;" horiz-adv-x="641" 
d="M262 299l-261 411h136l183 -293l183 293h137l-262 -411v-299h-116v299zM205 774q-27 0 -47.5 19.5t-20.5 48.5q0 28 20.5 48t47.5 20q29 0 48.5 -20t19.5 -48q0 -29 -19.5 -48.5t-48.5 -19.5zM435 774q-28 0 -48 19.5t-20 48.5q0 28 20 48t48 20q29 0 48.5 -20t19.5 -48
q0 -29 -19.5 -48.5t-48.5 -19.5z" />
    <glyph glyph-name="Ygrave" unicode="&#x1ef2;" horiz-adv-x="641" 
d="M262 299l-261 411h136l183 -293l183 293h137l-262 -411v-299h-116v299zM168 913h130l75 -145h-87z" />
    <glyph glyph-name="uni0232" unicode="&#x232;" horiz-adv-x="641" 
d="M262 299l-261 411h136l183 -293l183 293h137l-262 -411v-299h-116v299zM167 875h306v-76h-306v76z" />
    <glyph glyph-name="Zacute" unicode="&#x179;" horiz-adv-x="613" 
d="M388 596h-329v114h528l-371 -596h364v-114h-563zM324 913h130l-117 -145h-87z" />
    <glyph glyph-name="Zcaron" unicode="&#x17d;" horiz-adv-x="613" 
d="M388 596h-329v114h528l-371 -596h364v-114h-563zM149 851l37 72l137 -73l138 73l37 -73l-175 -91z" />
    <glyph glyph-name="Zdotaccent" unicode="&#x17b;" horiz-adv-x="613" 
d="M388 596h-329v114h528l-371 -596h364v-114h-563zM323 770q-29 0 -50.5 21t-21.5 51t21.5 51t50.5 21q30 0 51 -21t21 -51t-21 -51t-51 -21z" />
    <glyph glyph-name="abreve" unicode="&#x103;" horiz-adv-x="611" 
d="M431 36q-26 -21 -60 -32.5t-74 -11.5q-56 0 -103 20t-81 54.5t-53.5 81.5t-19.5 102t19.5 102t53.5 81.5t81 54.5t103 20q40 0 74 -12t60 -33v37h110v-500h-110v36zM298 97q42 0 77.5 18.5t55.5 49.5v170q-20 31 -55.5 49.5t-77.5 18.5q-32 0 -58.5 -11.5t-46 -32
t-30 -48.5t-10.5 -61t10.5 -61t30 -48.5t46 -32t58.5 -11.5zM308 556q-36 0 -66 12t-52 33t-34.5 49t-13.5 60h71q2 -35 27.5 -60.5t68.5 -25.5q42 0 68 25.5t27 60.5h72q-1 -32 -13.5 -60t-34.5 -49t-52.5 -33t-67.5 -12z" />
    <glyph glyph-name="amacron" unicode="&#x101;" horiz-adv-x="611" 
d="M431 36q-26 -21 -60 -32.5t-74 -11.5q-56 0 -103 20t-81 54.5t-53.5 81.5t-19.5 102t19.5 102t53.5 81.5t81 54.5t103 20q40 0 74 -12t60 -33v37h110v-500h-110v36zM298 97q42 0 77.5 18.5t55.5 49.5v170q-20 31 -55.5 49.5t-77.5 18.5q-32 0 -58.5 -11.5t-46 -32
t-30 -48.5t-10.5 -61t10.5 -61t30 -48.5t46 -32t58.5 -11.5zM167 677h306v-76h-306v76z" />
    <glyph glyph-name="aogonek" unicode="&#x105;" horiz-adv-x="612" 
d="M473 -182q-43 0 -74.5 25.5t-31.5 69.5q0 29 19 51t45 36v36q-26 -21 -60 -32.5t-74 -11.5q-56 0 -103 20t-81 54.5t-53.5 81.5t-19.5 102t19.5 102t53.5 81.5t81 54.5t103 20q40 0 74 -12t60 -33v37h110v-500q-38 -17 -55 -33.5t-17 -34.5q0 -14 11 -24.5t31 -10.5
q11 0 18.5 3t12.5 6v-69q-14 -11 -31.5 -15t-37.5 -4zM298 97q42 0 77.5 18.5t55.5 49.5v170q-20 31 -55.5 49.5t-77.5 18.5q-32 0 -58.5 -11.5t-46 -32t-30 -48.5t-10.5 -61t10.5 -61t30 -48.5t46 -32t58.5 -11.5z" />
    <glyph glyph-name="cacute" unicode="&#x107;" horiz-adv-x="524" 
d="M298 -8q-56 0 -103 20t-81.5 54.5t-54 81.5t-19.5 102t19.5 102t54 81.5t81.5 54.5t103 20q60 0 108 -22.5t83 -60.5l-75 -77q-20 23 -48.5 38t-67.5 15q-32 0 -58.5 -11.5t-46 -31.5t-30 -47.5t-10.5 -60.5t10.5 -60.5t30 -47.5t46 -31.5t58.5 -11.5q39 0 67.5 15
t48.5 38l75 -77q-35 -38 -83 -60.5t-108 -22.5zM323 710h133l-131 -165h-87z" />
    <glyph glyph-name="ccaron" unicode="&#x10d;" horiz-adv-x="524" 
d="M298 -8q-56 0 -103 20t-81.5 54.5t-54 81.5t-19.5 102t19.5 102t54 81.5t81.5 54.5t103 20q60 0 108 -22.5t83 -60.5l-75 -77q-20 23 -48.5 38t-67.5 15q-32 0 -58.5 -11.5t-46 -31.5t-30 -47.5t-10.5 -60.5t10.5 -60.5t30 -47.5t46 -31.5t58.5 -11.5q39 0 67.5 15
t48.5 38l75 -77q-35 -38 -83 -60.5t-108 -22.5zM299 553l-173 105l42 70l131 -81l133 81l40 -70z" />
    <glyph glyph-name="ccircumflex" unicode="&#x109;" horiz-adv-x="524" 
d="M298 -8q-56 0 -103 20t-81.5 54.5t-54 81.5t-19.5 102t19.5 102t54 81.5t81.5 54.5t103 20q60 0 108 -22.5t83 -60.5l-75 -77q-20 23 -48.5 38t-67.5 15q-32 0 -58.5 -11.5t-46 -31.5t-30 -47.5t-10.5 -60.5t10.5 -60.5t30 -47.5t46 -31.5t58.5 -11.5q39 0 67.5 15
t48.5 38l75 -77q-35 -38 -83 -60.5t-108 -22.5zM126 613l173 105l173 -105l-40 -70l-133 81l-131 -81z" />
    <glyph glyph-name="cdotaccent" unicode="&#x10b;" horiz-adv-x="524" 
d="M298 -8q-56 0 -103 20t-81.5 54.5t-54 81.5t-19.5 102t19.5 102t54 81.5t81.5 54.5t103 20q60 0 108 -22.5t83 -60.5l-75 -77q-20 23 -48.5 38t-67.5 15q-32 0 -58.5 -11.5t-46 -31.5t-30 -47.5t-10.5 -60.5t10.5 -60.5t30 -47.5t46 -31.5t58.5 -11.5q39 0 67.5 15
t48.5 38l75 -77q-35 -38 -83 -60.5t-108 -22.5zM297 558q-29 0 -50 20.5t-21 50.5t21 50.5t50 20.5q30 0 51 -20.5t21 -50.5t-21 -50.5t-51 -20.5z" />
    <glyph glyph-name="dcaron" unicode="&#x10f;" horiz-adv-x="611" 
d="M431 36q-26 -21 -60 -32.5t-74 -11.5q-56 0 -103 20t-81 54.5t-53.5 81.5t-19.5 102t19.5 102t53.5 81.5t81 54.5t103 20q40 0 74 -12t60 -33v247h110v-710h-110v36zM298 97q42 0 77.5 18.5t55.5 49.5v170q-20 31 -55.5 49.5t-77.5 18.5q-32 0 -58.5 -11.5t-46 -32
t-30 -48.5t-10.5 -61t10.5 -61t30 -48.5t46 -32t58.5 -11.5zM609 710h109l-57 -163h-75z" />
    <glyph glyph-name="dcroat" unicode="&#x111;" horiz-adv-x="611" 
d="M275 650h156v60h110v-60h66v-73h-66v-577h-110v36q-26 -21 -60 -32.5t-74 -11.5q-56 0 -103 20t-81 54.5t-53.5 81.5t-19.5 102t19.5 102t53.5 81.5t81 54.5t103 20q40 0 74 -12t60 -33v114h-156v73zM298 97q42 0 77.5 18.5t55.5 49.5v170q-20 31 -55.5 49.5t-77.5 18.5
q-32 0 -58.5 -11.5t-46 -32t-30 -48.5t-10.5 -61t10.5 -61t30 -48.5t46 -32t58.5 -11.5z" />
    <glyph glyph-name="ebreve" unicode="&#x115;" horiz-adv-x="574" 
d="M298 -8q-56 0 -103 20t-81.5 54.5t-54 81.5t-19.5 102t19.5 102t54 81.5t81 54.5t101.5 20q52 0 95 -18t74 -51t49 -81t21 -108v-30h-381q8 -54 47.5 -86.5t96.5 -32.5q45 0 77.5 17.5t52.5 39.5l74 -79q-32 -38 -85 -62.5t-119 -24.5zM288 407q-45 0 -81 -27t-50 -75
h257q-10 51 -43 76.5t-83 25.5zM296 556q-36 0 -66 12t-52 33t-34.5 49t-13.5 60h71q2 -35 27.5 -60.5t68.5 -25.5q42 0 68 25.5t27 60.5h72q-1 -32 -13.5 -60t-34.5 -49t-52.5 -33t-67.5 -12z" />
    <glyph glyph-name="ecaron" unicode="&#x11b;" horiz-adv-x="574" 
d="M298 -8q-56 0 -103 20t-81.5 54.5t-54 81.5t-19.5 102t19.5 102t54 81.5t81 54.5t101.5 20q52 0 95 -18t74 -51t49 -81t21 -108v-30h-381q8 -54 47.5 -86.5t96.5 -32.5q45 0 77.5 17.5t52.5 39.5l74 -79q-32 -38 -85 -62.5t-119 -24.5zM288 407q-45 0 -81 -27t-50 -75
h257q-10 51 -43 76.5t-83 25.5zM296 553l-173 105l42 70l131 -81l133 81l40 -70z" />
    <glyph glyph-name="emacron" unicode="&#x113;" horiz-adv-x="574" 
d="M298 -8q-56 0 -103 20t-81.5 54.5t-54 81.5t-19.5 102t19.5 102t54 81.5t81 54.5t101.5 20q52 0 95 -18t74 -51t49 -81t21 -108v-30h-381q8 -54 47.5 -86.5t96.5 -32.5q45 0 77.5 17.5t52.5 39.5l74 -79q-32 -38 -85 -62.5t-119 -24.5zM288 407q-45 0 -81 -27t-50 -75
h257q-10 51 -43 76.5t-83 25.5zM144 677h306v-76h-306v76z" />
    <glyph glyph-name="eogonek" unicode="&#x119;" horiz-adv-x="574" 
d="M298 -8q-56 0 -103 20t-81.5 54.5t-54 81.5t-19.5 102t19.5 102t54 81.5t81 54.5t101.5 20q52 0 95 -18t74 -51t49 -81t21 -108v-30h-381q8 -54 47.5 -86.5t96.5 -32.5q45 0 77.5 17.5t52.5 39.5l74 -79q-32 -38 -85 -62.5t-119 -24.5zM288 407q-45 0 -81 -27t-50 -75
h257q-10 51 -43 76.5t-83 25.5zM299 -182q-43 0 -74.5 25.5t-31.5 69.5q0 29 19 51t45 36h110q-38 -17 -55 -33.5t-17 -34.5q0 -14 11 -24.5t31 -10.5q11 0 18.5 3t12.5 6v-69q-14 -11 -31.5 -15t-37.5 -4z" />
    <glyph glyph-name="edotaccent" unicode="&#x117;" horiz-adv-x="574" 
d="M298 -8q-56 0 -103 20t-81.5 54.5t-54 81.5t-19.5 102t19.5 102t54 81.5t81 54.5t101.5 20q52 0 95 -18t74 -51t49 -81t21 -108v-30h-381q8 -54 47.5 -86.5t96.5 -32.5q45 0 77.5 17.5t52.5 39.5l74 -79q-32 -38 -85 -62.5t-119 -24.5zM288 407q-45 0 -81 -27t-50 -75
h257q-10 51 -43 76.5t-83 25.5zM295 558q-29 0 -50 20.5t-21 50.5t21 50.5t50 20.5q30 0 51 -20.5t21 -50.5t-21 -50.5t-51 -20.5z" />
    <glyph glyph-name="gbreve" unicode="&#x11f;" horiz-adv-x="603" 
d="M289 -194q-52 0 -109 14t-106 46l58 96q32 -23 70.5 -37t86.5 -14q28 0 54.5 5t47.5 17t33.5 32.5t12.5 50.5q0 11 -2.5 25t-8.5 26q-26 -21 -60.5 -34t-76.5 -13q-56 0 -101.5 18.5t-78.5 51t-51 77t-18 97.5t18 97.5t51 77t78.5 51t101.5 18.5q40 0 73.5 -12t59.5 -33
v37h110v-399q11 -26 15.5 -51.5t4.5 -47.5q0 -54 -23 -91t-60 -60.5t-84.5 -34t-95.5 -10.5zM290 125q42 0 77 18t55 49v144q-20 31 -55 49t-77 18q-29 0 -54 -10t-43.5 -28.5t-29 -44t-10.5 -56.5t10.5 -56.5t29 -44t43.5 -28.5t54 -10zM295 556q-36 0 -66 12t-52 33
t-34.5 49t-13.5 60h71q2 -35 27.5 -60.5t68.5 -25.5q42 0 68 25.5t27 60.5h72q-1 -32 -13.5 -60t-34.5 -49t-52.5 -33t-67.5 -12z" />
    <glyph glyph-name="gcircumflex" unicode="&#x11d;" horiz-adv-x="603" 
d="M289 -194q-52 0 -109 14t-106 46l58 96q32 -23 70.5 -37t86.5 -14q28 0 54.5 5t47.5 17t33.5 32.5t12.5 50.5q0 11 -2.5 25t-8.5 26q-26 -21 -60.5 -34t-76.5 -13q-56 0 -101.5 18.5t-78.5 51t-51 77t-18 97.5t18 97.5t51 77t78.5 51t101.5 18.5q40 0 73.5 -12t59.5 -33
v37h110v-399q11 -26 15.5 -51.5t4.5 -47.5q0 -54 -23 -91t-60 -60.5t-84.5 -34t-95.5 -10.5zM290 125q42 0 77 18t55 49v144q-20 31 -55 49t-77 18q-29 0 -54 -10t-43.5 -28.5t-29 -44t-10.5 -56.5t10.5 -56.5t29 -44t43.5 -28.5t54 -10zM123 613l173 105l173 -105l-40 -70
l-133 81l-131 -81z" />
    <glyph glyph-name="uni0123" unicode="&#x123;" horiz-adv-x="603" 
d="M289 -194q-52 0 -109 14t-106 46l58 96q32 -23 70.5 -37t86.5 -14q28 0 54.5 5t47.5 17t33.5 32.5t12.5 50.5q0 11 -2.5 25t-8.5 26q-26 -21 -60.5 -34t-76.5 -13q-56 0 -101.5 18.5t-78.5 51t-51 77t-18 97.5t18 97.5t51 77t78.5 51t101.5 18.5q40 0 73.5 -12t59.5 -33
v37h110v-399q11 -26 15.5 -51.5t4.5 -47.5q0 -54 -23 -91t-60 -60.5t-84.5 -34t-95.5 -10.5zM290 125q42 0 77 18t55 49v144q-20 31 -55 49t-77 18q-29 0 -54 -10t-43.5 -28.5t-29 -44t-10.5 -56.5t10.5 -56.5t29 -44t43.5 -28.5t54 -10zM346.979 543.967h-113.993
l99.9941 192.988h72.9961z" />
    <glyph glyph-name="gdotaccent" unicode="&#x121;" horiz-adv-x="603" 
d="M289 -194q-52 0 -109 14t-106 46l58 96q32 -23 70.5 -37t86.5 -14q28 0 54.5 5t47.5 17t33.5 32.5t12.5 50.5q0 11 -2.5 25t-8.5 26q-26 -21 -60.5 -34t-76.5 -13q-56 0 -101.5 18.5t-78.5 51t-51 77t-18 97.5t18 97.5t51 77t78.5 51t101.5 18.5q40 0 73.5 -12t59.5 -33
v37h110v-399q11 -26 15.5 -51.5t4.5 -47.5q0 -54 -23 -91t-60 -60.5t-84.5 -34t-95.5 -10.5zM290 125q42 0 77 18t55 49v144q-20 31 -55 49t-77 18q-29 0 -54 -10t-43.5 -28.5t-29 -44t-10.5 -56.5t10.5 -56.5t29 -44t43.5 -28.5t54 -10zM296 558q-29 0 -50 20.5t-21 50.5
t21 50.5t50 20.5q30 0 51 -20.5t21 -50.5t-21 -50.5t-51 -20.5z" />
    <glyph glyph-name="hbar" unicode="&#x127;" horiz-adv-x="583" 
d="M-7 650h77v60h110v-60h145v-73h-145v-124q26 29 63.5 42t76.5 13q46 0 84 -15.5t64 -43.5t40.5 -68t14.5 -88v-293h-110v291q0 20 -7.5 40t-22 36t-35.5 26t-49 10q-42 0 -73 -21.5t-46 -66.5v-315h-110v577h-77v73z" />
    <glyph glyph-name="hcircumflex" unicode="&#x125;" horiz-adv-x="583" 
d="M70 710h110v-257q26 29 63.5 42t76.5 13q46 0 84 -15.5t64 -43.5t40.5 -68t14.5 -88v-293h-110v291q0 20 -7.5 40t-22 36t-35.5 26t-49 10q-42 0 -73 -21.5t-46 -66.5v-315h-110v710zM122 833l175 91l174 -91l-37 -73l-137 73l-138 -73z" />
    <glyph glyph-name="dotlessi" unicode="&#x131;" 
d="M70 500h110v-500h-110v500z" />
    <glyph glyph-name="ibreve" unicode="&#x12d;" 
d="M70 500h110v-500h-110v500zM125 556q-36 0 -66 12t-52 33t-34.5 49t-13.5 60h71q2 -35 27.5 -60.5t68.5 -25.5q42 0 68 25.5t27 60.5h72q-1 -32 -13.5 -60t-34.5 -49t-52.5 -33t-67.5 -12z" />
    <glyph glyph-name="imacron" unicode="&#x12b;" 
d="M70 500h110v-500h-110v500zM-27 677h306v-76h-306v76z" />
    <glyph glyph-name="iogonek" unicode="&#x12f;" 
d="M70 597q-18 21 -18 48q0 30 21.5 51.5t51.5 21.5t51.5 -21.5t21.5 -51.5q0 -27 -18 -48h-110zM70 500h110v-500h-110v500zM113 -182q-43 0 -74.5 25.5t-31.5 69.5q0 29 19 51t45 36h110q-38 -17 -55 -33.5t-17 -34.5q0 -14 11 -24.5t31 -10.5q11 0 18.5 3t12.5 6v-69
q-14 -11 -31.5 -15t-37.5 -4z" />
    <glyph glyph-name="itilde" unicode="&#x129;" 
d="M70 500h110v-500h-110v500zM-50 584q8 49 40 75.5t68 26.5q21 0 39 -6.5t33 -14.5t28.5 -14.5t25.5 -6.5q20 0 30 10t16 33h77l-3 -22q-8 -47 -39 -74.5t-69 -27.5q-22 0 -40 6.5t-33.5 14.5t-28.5 14.5t-25 6.5q-20 0 -30.5 -10t-15.5 -33h-77z" />
    <glyph glyph-name="uni1ECB" unicode="&#x1ecb;" 
d="M70 597q-18 21 -18 48q0 30 21.5 51.5t51.5 21.5t51.5 -21.5t21.5 -51.5q0 -27 -18 -48h-110zM70 500h110v-500h-110v500zM125 -194q-29 0 -50 20.5t-21 50.5t21 50.5t50 20.5q30 0 51 -20.5t21 -50.5t-21 -50.5t-51 -20.5z" />
    <glyph glyph-name="uni0237" unicode="&#x237;" 
d="M-35 -80h30q38 0 56.5 15t18.5 53v512h110v-518q0 -91 -46 -128.5t-134 -37.5h-35v104z" />
    <glyph glyph-name="jcircumflex" unicode="&#x135;" 
d="M-35 -80h30q38 0 56.5 15t18.5 53v512h110v-518q0 -91 -46 -128.5t-134 -37.5h-35v104zM-46 613l173 105l173 -105l-40 -70l-133 81l-131 -81z" />
    <glyph glyph-name="uni0137" unicode="&#x137;" horiz-adv-x="535" 
d="M70 710h110v-436l200 226h130l-208 -237l233 -263h-135l-220 249v-249h-110v710zM241 -50h114l-100 -193h-73z" />
    <glyph glyph-name="lacute" unicode="&#x13a;" 
d="M70 710h110v-710h-110v710zM148 913h130l-117 -145h-87z" />
    <glyph glyph-name="lcaron" unicode="&#x13e;" 
d="M70 710h110v-710h-110v710zM248 710h109l-57 -163h-75z" />
    <glyph glyph-name="uni013C" unicode="&#x13c;" 
d="M70 710h110v-710h-110v710zM69 -50h114l-100 -193h-73z" />
    <glyph glyph-name="ldot" unicode="&#x140;" horiz-adv-x="371" 
d="M310 285q-29 0 -50 20.5t-21 50.5t21 50.5t50 20.5q30 0 51 -20.5t21 -50.5t-21 -50.5t-51 -20.5zM70 710h110v-710h-110v710z" />
    <glyph glyph-name="lslash" unicode="&#x142;" horiz-adv-x="340" 
d="M-3 306l118 72v332h110v-265l79 49l40 -67l-119 -74v-353h-110v286l-78 -48z" />
    <glyph glyph-name="nacute" unicode="&#x144;" horiz-adv-x="583" 
d="M70 500h110v-47q26 29 63.5 42t76.5 13q46 0 84 -15.5t64 -43.5t40.5 -68t14.5 -88v-293h-110v291q0 20 -7.5 40t-22 36t-35.5 26t-49 10q-42 0 -73 -21.5t-46 -66.5v-315h-110v500zM309 710h133l-131 -165h-87z" />
    <glyph glyph-name="ncaron" unicode="&#x148;" horiz-adv-x="583" 
d="M70 500h110v-47q26 29 63.5 42t76.5 13q46 0 84 -15.5t64 -43.5t40.5 -68t14.5 -88v-293h-110v291q0 20 -7.5 40t-22 36t-35.5 26t-49 10q-42 0 -73 -21.5t-46 -66.5v-315h-110v500zM296 553l-173 105l42 70l131 -81l133 81l40 -70z" />
    <glyph glyph-name="uni0146" unicode="&#x146;" horiz-adv-x="583" 
d="M70 500h110v-47q26 29 63.5 42t76.5 13q46 0 84 -15.5t64 -43.5t40.5 -68t14.5 -88v-293h-110v291q0 20 -7.5 40t-22 36t-35.5 26t-49 10q-42 0 -73 -21.5t-46 -66.5v-315h-110v500zM239 -50h114l-100 -193h-73z" />
    <glyph glyph-name="oe" unicode="&#x153;" horiz-adv-x="980" 
d="M299 -8q-56 0 -103.5 20t-82 54.5t-54 81.5t-19.5 102t19.5 102t54 81.5t82 54.5t103.5 20q63 0 115.5 -25t87.5 -69q35 44 86 69t114 25q52 0 95 -18t74 -51t49 -81t21 -108v-30h-382q8 -54 48 -86.5t97 -32.5q45 0 77.5 17.5t52.5 39.5l74 -79q-32 -38 -85 -62.5
t-119 -24.5q-63 0 -115 25t-87 69q-35 -44 -87.5 -69t-115.5 -25zM299 97q32 0 59 11.5t46.5 32t30.5 48.5t11 61t-11 61t-30.5 48.5t-46.5 32t-59 11.5t-59 -11.5t-46.5 -32t-30 -48.5t-10.5 -61t10.5 -61t30 -48.5t46.5 -32t59 -11.5zM820 305q-10 51 -43 76.5t-83 25.5
q-45 0 -81.5 -27t-49.5 -75h257z" />
    <glyph glyph-name="obreve" unicode="&#x14f;" horiz-adv-x="598" 
d="M299 97q32 0 58.5 11.5t46 32t30.5 48.5t11 61t-11 61t-30.5 48.5t-46 32t-58.5 11.5t-59 -11.5t-46.5 -32t-30 -48.5t-10.5 -61t10.5 -61t30 -48.5t46.5 -32t59 -11.5zM299 -8q-56 0 -103.5 20t-82 54.5t-54 81.5t-19.5 102t19.5 102t54 81.5t82 54.5t103.5 20
q55 0 102.5 -20t82.5 -54.5t54.5 -81.5t19.5 -102t-19.5 -102t-54.5 -81.5t-82.5 -54.5t-102.5 -20zM298 556q-36 0 -66 12t-52 33t-34.5 49t-13.5 60h71q2 -35 27.5 -60.5t68.5 -25.5q42 0 68 25.5t27 60.5h72q-1 -32 -13.5 -60t-34.5 -49t-52.5 -33t-67.5 -12z" />
    <glyph glyph-name="ohungarumlaut" unicode="&#x151;" horiz-adv-x="598" 
d="M299 97q32 0 58.5 11.5t46 32t30.5 48.5t11 61t-11 61t-30.5 48.5t-46 32t-58.5 11.5t-59 -11.5t-46.5 -32t-30 -48.5t-10.5 -61t10.5 -61t30 -48.5t46.5 -32t59 -11.5zM299 -8q-56 0 -103.5 20t-82 54.5t-54 81.5t-19.5 102t19.5 102t54 81.5t82 54.5t103.5 20
q55 0 102.5 -20t82.5 -54.5t54.5 -81.5t19.5 -102t-19.5 -102t-54.5 -81.5t-82.5 -54.5t-102.5 -20zM250 710h117l-132 -165h-70zM428 710h116l-131 -165h-70z" />
    <glyph glyph-name="omacron" unicode="&#x14d;" horiz-adv-x="598" 
d="M299 97q32 0 58.5 11.5t46 32t30.5 48.5t11 61t-11 61t-30.5 48.5t-46 32t-58.5 11.5t-59 -11.5t-46.5 -32t-30 -48.5t-10.5 -61t10.5 -61t30 -48.5t46.5 -32t59 -11.5zM299 -8q-56 0 -103.5 20t-82 54.5t-54 81.5t-19.5 102t19.5 102t54 81.5t82 54.5t103.5 20
q55 0 102.5 -20t82.5 -54.5t54.5 -81.5t19.5 -102t-19.5 -102t-54.5 -81.5t-82.5 -54.5t-102.5 -20zM146 677h306v-76h-306v76z" />
    <glyph glyph-name="uni1ECD" unicode="&#x1ecd;" horiz-adv-x="598" 
d="M299 97q32 0 58.5 11.5t46 32t30.5 48.5t11 61t-11 61t-30.5 48.5t-46 32t-58.5 11.5t-59 -11.5t-46.5 -32t-30 -48.5t-10.5 -61t10.5 -61t30 -48.5t46.5 -32t59 -11.5zM299 -8q-56 0 -103.5 20t-82 54.5t-54 81.5t-19.5 102t19.5 102t54 81.5t82 54.5t103.5 20
q55 0 102.5 -20t82.5 -54.5t54.5 -81.5t19.5 -102t-19.5 -102t-54.5 -81.5t-82.5 -54.5t-102.5 -20zM298 -194q-29 0 -50 20.5t-21 50.5t21 50.5t50 20.5q30 0 51 -20.5t21 -50.5t-21 -50.5t-51 -20.5z" />
    <glyph glyph-name="racute" unicode="&#x155;" horiz-adv-x="367" 
d="M220 710h133l-131 -165h-87zM70 500h110v-49q47 56 129 56q19 0 36 -3v-115q-21 7 -55 7q-35 0 -64 -14t-46 -46v-336h-110v500z" />
    <glyph glyph-name="rcaron" unicode="&#x159;" horiz-adv-x="367" 
d="M70 500h110v-49q47 56 129 56q19 0 36 -3v-115q-21 7 -55 7q-35 0 -64 -14t-46 -46v-336h-110v500zM208 553l-173 105l42 70l131 -81l133 81l40 -70z" />
    <glyph glyph-name="uni0157" unicode="&#x157;" horiz-adv-x="367" 
d="M70 500h110v-49q47 56 129 56q19 0 36 -3v-115q-21 7 -55 7q-35 0 -64 -14t-46 -46v-336h-110v500zM71 -50h114l-100 -193h-73z" />
    <glyph glyph-name="sacute" unicode="&#x15b;" horiz-adv-x="416" 
d="M206 -8q-60 0 -107.5 24.5t-78.5 77.5l84 60q18 -31 41 -47.5t61 -16.5q29 0 46.5 13t17.5 33q0 22 -16 36t-51 27l-35 14q-64 25 -93 64t-29 90q0 30 12 56t33.5 45t51 29.5t64.5 10.5q48 0 88 -20t68 -67l-81 -56q-25 45 -73 45q-22 0 -38.5 -10.5t-16.5 -29.5
q0 -20 14.5 -33.5t49.5 -27.5l36 -13q63 -25 97 -60.5t34 -94.5q0 -33 -13 -60.5t-36.5 -47t-56.5 -30.5t-73 -11zM245 710h133l-131 -165h-87z" />
    <glyph glyph-name="scaron" unicode="&#x161;" horiz-adv-x="416" 
d="M205 -8q-60 0 -107.5 24.5t-78.5 77.5l84 60q18 -31 41 -47.5t61 -16.5q29 0 46.5 13t17.5 33q0 22 -16 36t-51 27l-35 14q-64 25 -93 64t-29 90q0 30 12 56t33.5 45t51 29.5t64.5 10.5q48 0 88 -20t68 -67l-81 -56q-25 45 -73 45q-22 0 -38.5 -10.5t-16.5 -29.5
q0 -20 14.5 -33.5t49.5 -27.5l36 -13q63 -25 97 -60.5t34 -94.5q0 -33 -13 -60.5t-36.5 -47t-56.5 -30.5t-73 -11zM208 553l-173 105l42 70l131 -81l133 81l40 -70z" />
    <glyph glyph-name="scedilla" unicode="&#x15f;" horiz-adv-x="416" 
d="M205 -8q-60 0 -107.5 24.5t-78.5 77.5l84 60q18 -31 41 -47.5t61 -16.5q29 0 46.5 13t17.5 33q0 22 -16 36t-51 27l-35 14q-64 25 -93 64t-29 90q0 30 12 56t33.5 45t51 29.5t64.5 10.5q48 0 88 -20t68 -67l-81 -56q-25 45 -73 45q-22 0 -38.5 -10.5t-16.5 -29.5
q0 -20 14.5 -33.5t49.5 -27.5l36 -13q63 -25 97 -60.5t34 -94.5q0 -33 -13 -60.5t-36.5 -47t-56.5 -30.5t-73 -11zM159 0h82l-40 -132h-100z" />
    <glyph glyph-name="scircumflex" unicode="&#x15d;" horiz-adv-x="416" 
d="M205 -8q-60 0 -107.5 24.5t-78.5 77.5l84 60q18 -31 41 -47.5t61 -16.5q29 0 46.5 13t17.5 33q0 22 -16 36t-51 27l-35 14q-64 25 -93 64t-29 90q0 30 12 56t33.5 45t51 29.5t64.5 10.5q48 0 88 -20t68 -67l-81 -56q-25 45 -73 45q-22 0 -38.5 -10.5t-16.5 -29.5
q0 -20 14.5 -33.5t49.5 -27.5l36 -13q63 -25 97 -60.5t34 -94.5q0 -33 -13 -60.5t-36.5 -47t-56.5 -30.5t-73 -11zM35 613l173 105l173 -105l-40 -70l-133 81l-131 -81z" />
    <glyph glyph-name="uni0219" unicode="&#x219;" horiz-adv-x="416" 
d="M205 -8q-60 0 -107.5 24.5t-78.5 77.5l84 60q18 -31 41 -47.5t61 -16.5q29 0 46.5 13t17.5 33q0 22 -16 36t-51 27l-35 14q-64 25 -93 64t-29 90q0 30 12 56t33.5 45t51 29.5t64.5 10.5q48 0 88 -20t68 -67l-81 -56q-25 45 -73 45q-22 0 -38.5 -10.5t-16.5 -29.5
q0 -20 14.5 -33.5t49.5 -27.5l36 -13q63 -25 97 -60.5t34 -94.5q0 -33 -13 -60.5t-36.5 -47t-56.5 -30.5t-73 -11zM144 -50h114l-100 -193h-73z" />
    <glyph glyph-name="tcaron" unicode="&#x165;" horiz-adv-x="385" 
d="M-3 500h97v96l110 54v-150h152l-24 -98h-128v-227q0 -38 14 -56t57 -18h69v-101h-97q-72 0 -112.5 40t-40.5 112v250h-73zM284 710h109l-57 -163h-75z" />
    <glyph glyph-name="uni0163" unicode="&#x163;" horiz-adv-x="385" 
d="M-3 500h97v96l110 54v-150h152l-24 -98h-128v-227q0 -38 14 -56t57 -18h69v-101h-97q-72 0 -112.5 40t-40.5 112v250h-73zM166 -50h114l-100 -193h-73z" />
    <glyph glyph-name="uni021B" unicode="&#x21b;" horiz-adv-x="385" 
d="M-3 500h97v96l110 54v-150h152l-24 -98h-128v-227q0 -38 14 -56t57 -18h69v-101h-97q-72 0 -112.5 40t-40.5 112v250h-73zM166 -50h114l-100 -193h-73z" />
    <glyph glyph-name="ubreve" unicode="&#x16d;" horiz-adv-x="580" 
d="M400 46q-26 -29 -63.5 -41.5t-76.5 -12.5q-47 0 -84.5 15.5t-63.5 43.5t-40.5 68t-14.5 88v293h110v-291q0 -20 7.5 -40t22 -36t36 -26t48.5 -10q42 0 72.5 21t46.5 64v318h110v-500h-110v46zM282 556q-36 0 -66 12t-52 33t-34.5 49t-13.5 60h71q2 -35 27.5 -60.5
t68.5 -25.5q42 0 68 25.5t27 60.5h72q-1 -32 -13.5 -60t-34.5 -49t-52.5 -33t-67.5 -12z" />
    <glyph glyph-name="uhungarumlaut" unicode="&#x171;" horiz-adv-x="580" 
d="M400 46q-26 -29 -63.5 -41.5t-76.5 -12.5q-47 0 -84.5 15.5t-63.5 43.5t-40.5 68t-14.5 88v293h110v-291q0 -20 7.5 -40t22 -36t36 -26t48.5 -10q42 0 72.5 21t46.5 64v318h110v-500h-110v46zM229 710h117l-132 -165h-70zM407 710h116l-131 -165h-70z" />
    <glyph glyph-name="umacron" unicode="&#x16b;" horiz-adv-x="580" 
d="M400 46q-26 -29 -63.5 -41.5t-76.5 -12.5q-47 0 -84.5 15.5t-63.5 43.5t-40.5 68t-14.5 88v293h110v-291q0 -20 7.5 -40t22 -36t36 -26t48.5 -10q42 0 72.5 21t46.5 64v318h110v-500h-110v46zM130 677h306v-76h-306v76z" />
    <glyph glyph-name="uogonek" unicode="&#x173;" horiz-adv-x="581" 
d="M400 46q-26 -29 -63.5 -41.5t-76.5 -12.5q-47 0 -84.5 15.5t-63.5 43.5t-40.5 68t-14.5 88v293h110v-291q0 -20 7.5 -40t22 -36t36 -26t48.5 -10q42 0 72.5 21t46.5 64v318h110v-500h-110v46zM442 -182q-43 0 -74.5 25.5t-31.5 69.5q0 29 19 51t45 36h110
q-38 -17 -55 -33.5t-17 -34.5q0 -14 11 -24.5t31 -10.5q11 0 18.5 3t12.5 6v-69q-14 -11 -31.5 -15t-37.5 -4z" />
    <glyph glyph-name="uring" unicode="&#x16f;" horiz-adv-x="580" 
d="M400 46q-26 -29 -63.5 -41.5t-76.5 -12.5q-47 0 -84.5 15.5t-63.5 43.5t-40.5 68t-14.5 88v293h110v-291q0 -20 7.5 -40t22 -36t36 -26t48.5 -10q42 0 72.5 21t46.5 64v318h110v-500h-110v46zM282 608q20 0 33.5 13.5t13.5 33.5t-13.5 33.5t-33.5 13.5t-34 -13.5
t-14 -33.5t14 -33.5t34 -13.5zM282 551q-23 0 -42.5 8t-33.5 22t-22.5 33t-8.5 41t8.5 41t23 33t34 22t41.5 8t41.5 -8t34 -22t23 -33t8.5 -41t-8.5 -41t-23 -33t-34 -22t-41.5 -8z" />
    <glyph glyph-name="utilde" unicode="&#x169;" horiz-adv-x="580" 
d="M400 46q-26 -29 -63.5 -41.5t-76.5 -12.5q-47 0 -84.5 15.5t-63.5 43.5t-40.5 68t-14.5 88v293h110v-291q0 -20 7.5 -40t22 -36t36 -26t48.5 -10q42 0 72.5 21t46.5 64v318h110v-500h-110v46zM117 584q8 49 40 75.5t68 26.5q21 0 39 -6.5t33 -14.5t28.5 -14.5t25.5 -6.5
q20 0 30 10t16 33h77l-3 -22q-8 -47 -39 -74.5t-69 -27.5q-22 0 -40 6.5t-33.5 14.5t-28.5 14.5t-25 6.5q-20 0 -30.5 -10t-15.5 -33h-77z" />
    <glyph glyph-name="uni1EE5" unicode="&#x1ee5;" horiz-adv-x="580" 
d="M400 46q-26 -29 -63.5 -41.5t-76.5 -12.5q-47 0 -84.5 15.5t-63.5 43.5t-40.5 68t-14.5 88v293h110v-291q0 -20 7.5 -40t22 -36t36 -26t48.5 -10q42 0 72.5 21t46.5 64v318h110v-500h-110v46zM282 -194q-29 0 -50 20.5t-21 50.5t21 50.5t50 20.5q30 0 51 -20.5t21 -50.5
t-21 -50.5t-51 -20.5z" />
    <glyph glyph-name="wacute" unicode="&#x1e83;" horiz-adv-x="723" 
d="M13 500h115l99 -327l135 335l134 -335l99 327h115l-158 -500h-86l-104 260l-105 -260h-86zM402 710h133l-131 -165h-87z" />
    <glyph glyph-name="wcircumflex" unicode="&#x175;" horiz-adv-x="723" 
d="M13 500h115l99 -327l135 335l134 -335l99 327h115l-158 -500h-86l-104 260l-105 -260h-86zM188 613l173 105l173 -105l-40 -70l-133 81l-131 -81z" />
    <glyph glyph-name="wdieresis" unicode="&#x1e85;" horiz-adv-x="723" 
d="M13 500h115l99 -327l135 335l134 -335l99 327h115l-158 -500h-86l-104 260l-105 -260h-86zM247 562q-28 0 -48 19.5t-20 47.5t20 48t48 20t48 -20t20 -48t-20 -47.5t-48 -19.5zM477 562q-29 0 -48 19.5t-19 47.5t19 48t48 20q28 0 47.5 -20t19.5 -48t-19.5 -47.5
t-47.5 -19.5z" />
    <glyph glyph-name="wgrave" unicode="&#x1e81;" horiz-adv-x="723" 
d="M13 500h115l99 -327l135 335l134 -335l99 327h115l-158 -500h-86l-104 260l-105 -260h-86zM187 710h133l84 -165h-85z" />
    <glyph glyph-name="ycircumflex" unicode="&#x177;" horiz-adv-x="509" 
d="M197 26l-197 474h118l136 -345l137 345h118l-286 -684h-116zM81 613l173 105l173 -105l-40 -70l-133 81l-131 -81z" />
    <glyph glyph-name="ygrave" unicode="&#x1ef3;" horiz-adv-x="509" 
d="M197 26l-197 474h118l136 -345l137 345h118l-286 -684h-116zM110 710h133l84 -165h-85z" />
    <glyph glyph-name="uni0233" unicode="&#x233;" horiz-adv-x="509" 
d="M197 26l-197 474h118l136 -345l137 345h118l-286 -684h-116zM101 677h306v-76h-306v76z" />
    <glyph glyph-name="zacute" unicode="&#x17a;" horiz-adv-x="507" 
d="M291 402h-240v98h430l-272 -402h258v-98h-448zM277 710h133l-131 -165h-87z" />
    <glyph glyph-name="zcaron" unicode="&#x17e;" horiz-adv-x="507" 
d="M291 402h-240v98h430l-272 -402h258v-98h-448zM267 553l-173 105l42 70l131 -81l133 81l40 -70z" />
    <glyph glyph-name="zdotaccent" unicode="&#x17c;" horiz-adv-x="507" 
d="M291 402h-240v98h430l-272 -402h258v-98h-448zM266 558q-29 0 -50 20.5t-21 50.5t21 50.5t50 20.5q30 0 51 -20.5t21 -50.5t-21 -50.5t-51 -20.5z" />
    <glyph glyph-name="uni0410" unicode="&#x410;" horiz-adv-x="714" 
d="M357 718l347 -718h-125l-74 158h-297l-74 -158h-124zM258 264h197l-98 210z" />
    <glyph glyph-name="uni0411" unicode="&#x411;" horiz-adv-x="626" 
d="M201 597v-170h148q53 0 97.5 -16t76.5 -44.5t50 -68t18 -86.5q0 -49 -19.5 -88t-53.5 -66.5t-80.5 -42.5t-101.5 -15h-251v710h443v-113h-327zM201 109h145q61 0 96 28t35 76t-35 77.5t-96 29.5h-145v-211z" />
    <glyph glyph-name="uni0412" unicode="&#x412;" horiz-adv-x="631" 
d="M85 710h251q48 0 87 -15.5t66 -42t41.5 -62t14.5 -74.5q0 -48 -17 -81.5t-49 -56.5q50 -21 82 -64.5t32 -109.5q0 -47 -17.5 -84.5t-49 -64t-75 -41t-94.5 -14.5h-272v710zM357 108q60 0 89.5 28.5t29.5 72.5t-29.5 73.5t-89.5 29.5h-156v-204h156zM321 411
q54 0 80.5 27.5t26.5 68.5q0 39 -26.5 67.5t-80.5 28.5h-120v-192h120z" />
    <glyph glyph-name="uni0413" unicode="&#x413;" horiz-adv-x="495" 
d="M201 597v-597h-116v710h385v-113h-269z" />
    <glyph glyph-name="uni0414" unicode="&#x414;" horiz-adv-x="774" 
d="M759 112v-260h-113v148h-518v-148h-113v260h82l289 606l290 -606h83zM555 112l-169 362l-170 -362h339z" />
    <glyph glyph-name="uni0415" unicode="&#x415;" horiz-adv-x="560" 
d="M85 710h421v-114h-305v-180h245v-112h-245v-190h305v-114h-421v710z" />
    <glyph glyph-name="uni0401" unicode="&#x401;" horiz-adv-x="560" 
d="M85 710h421v-114h-305v-180h245v-112h-245v-190h305v-114h-421v710zM180 774q-27 0 -47.5 19.5t-20.5 48.5q0 28 20.5 48t47.5 20q29 0 48.5 -20t19.5 -48q0 -29 -19.5 -48.5t-48.5 -19.5zM410 774q-28 0 -48 19.5t-20 48.5q0 28 20 48t48 20q29 0 48.5 -20t19.5 -48
q0 -29 -19.5 -48.5t-48.5 -19.5z" />
    <glyph glyph-name="uni0416" unicode="&#x416;" horiz-adv-x="1040" 
d="M145 0h-150l331 351l-301 359h138l299 -357v357h116v-357l299 357h138l-301 -359l331 -351h-150l-317 335v-335h-116v335z" />
    <glyph glyph-name="uni0417" unicode="&#x417;" horiz-adv-x="537" 
d="M48 624q46 49 99.5 71.5t113.5 22.5q54 0 94 -16t66.5 -42.5t40 -61.5t13.5 -74q0 -48 -20.5 -85.5t-66.5 -66.5q51 -21 81 -60.5t30 -106.5q0 -51 -20 -91t-54 -67t-78.5 -41t-93.5 -14q-78 0 -136.5 30.5t-96.5 87.5l86 72q26 -40 65 -60.5t87 -20.5q60 0 93 32t33 80
q0 46 -33 75t-94 29h-74v99h72q48 0 77 26.5t29 68.5q0 41 -29 69.5t-83 28.5q-38 0 -68 -16t-59 -45z" />
    <glyph glyph-name="uni0418" unicode="&#x418;" horiz-adv-x="771" 
d="M85 -8v718h116v-453l485 461v-718h-116v453z" />
    <glyph glyph-name="uni0419" unicode="&#x419;" horiz-adv-x="771" 
d="M570 914q-2 -81 -48.5 -122t-119.5 -41t-119.5 41t-48.5 122h91q1 -43 21 -65.5t56 -22.5t56 22.5t21 65.5h91zM85 -8v718h116v-453l485 461v-718h-116v453z" />
    <glyph glyph-name="uni041A" unicode="&#x41a;" horiz-adv-x="668" 
d="M85 710h116v-357l299 357h138l-301 -359l331 -351h-150l-317 335v-335h-116v710z" />
    <glyph glyph-name="uni041B" unicode="&#x41b;" horiz-adv-x="714" 
d="M357 474l-223 -474h-124l347 718l347 -718h-125z" />
    <glyph glyph-name="uni041C" unicode="&#x41c;" horiz-adv-x="868" 
d="M85 718l349 -372l349 372v-718h-116v436l-233 -252l-233 252v-436h-116v718z" />
    <glyph glyph-name="uni041D" unicode="&#x41d;" horiz-adv-x="754" 
d="M85 710h116v-294h352v294h116v-710h-116v304h-352v-304h-116v710z" />
    <glyph glyph-name="uni041E" unicode="&#x41e;" horiz-adv-x="816" 
d="M408 102q52 0 97 19.5t78 53.5t51.5 80.5t18.5 99.5t-18.5 99.5t-51.5 80.5t-78 53.5t-97 19.5q-53 0 -97.5 -19.5t-77.5 -53.5t-51.5 -80.5t-18.5 -99.5t18.5 -99.5t51.5 -80.5t77.5 -53.5t97.5 -19.5zM408 -8q-75 0 -141.5 28t-115.5 76.5t-77.5 115t-28.5 143.5
t28.5 143.5t77.5 115t115.5 76.5t141.5 28q76 0 142 -28t115 -76.5t77.5 -115t28.5 -143.5t-28.5 -143.5t-77.5 -115t-115 -76.5t-142 -28z" />
    <glyph glyph-name="uni041F" unicode="&#x41f;" horiz-adv-x="730" 
d="M529 0v598h-328v-598h-116v710h560v-710h-116z" />
    <glyph glyph-name="uni0420" unicode="&#x420;" horiz-adv-x="580" 
d="M85 710h212q55 0 100.5 -16.5t78.5 -46.5t51 -71.5t18 -91.5t-18 -91.5t-51 -71.5t-78.5 -46.5t-100.5 -16.5h-96v-258h-116v710zM292 366q64 0 99.5 32t35.5 86t-35.5 86t-99.5 32h-91v-236h91z" />
    <glyph glyph-name="uni0421" unicode="&#x421;" horiz-adv-x="691" 
d="M408 -8q-75 0 -141.5 28t-115.5 76.5t-77.5 115t-28.5 143.5t28.5 143.5t77.5 115t115.5 76.5t141.5 28t138.5 -26t112.5 -77l-75 -82q-33 35 -78.5 55t-97.5 20q-53 0 -97.5 -19.5t-77.5 -53.5t-51.5 -80.5t-18.5 -99.5t18.5 -99.5t51.5 -80.5t77.5 -53.5t97.5 -19.5
q52 0 97.5 20t78.5 55l75 -82q-49 -51 -112.5 -77t-138.5 -26z" />
    <glyph glyph-name="uni0422" unicode="&#x422;" horiz-adv-x="523" 
d="M203 596h-183v114h483v-114h-184v-596h-116v596z" />
    <glyph glyph-name="uni0423" unicode="&#x423;" horiz-adv-x="651" 
d="M174 0l90 181l-274 529h133l206 -398l198 398h134l-356 -710h-131z" />
    <glyph glyph-name="uni0424" unicode="&#x424;" horiz-adv-x="906" 
d="M511 752v-65h16q75 0 137.5 -23.5t106.5 -64.5t68.5 -98t24.5 -124q0 -66 -24.5 -122.5t-68.5 -97.5t-106.5 -64t-137.5 -23h-16v-78h-116v78h-16q-75 0 -137.5 23t-106.5 64t-68.5 97.5t-24.5 122.5q0 67 24.5 124t68.5 98t106.5 64.5t137.5 23.5h16v65h116zM395 578
h-17q-109 0 -164 -55.5t-55 -145.5q0 -44 14 -80.5t41.5 -63t68.5 -41t95 -14.5h17v400zM511 578v-400h17q54 0 95 14.5t68.5 41t41.5 63t14 80.5q0 90 -55 145.5t-164 55.5h-17z" />
    <glyph glyph-name="uni0425" unicode="&#x425;" horiz-adv-x="672" 
d="M258 360l-230 350h134l174 -263l174 263h134l-229 -350l243 -360h-133l-188 276l-188 -276h-135z" />
    <glyph glyph-name="uni0426" unicode="&#x426;" horiz-adv-x="755" 
d="M710 112v-260h-113v148h-512v710h116v-598h313v599h116v-599h80z" />
    <glyph glyph-name="uni0427" unicode="&#x427;" horiz-adv-x="681" 
d="M480 0v293q-38 -14 -85 -24.5t-104 -10.5q-54 0 -99.5 16t-78 44.5t-50.5 67.5t-18 86v238h116v-216q0 -36 11.5 -59.5t32 -38t47.5 -20.5t58 -6q45 0 87.5 8.5t82.5 25.5v306h116v-710h-116z" />
    <glyph glyph-name="uni0428" unicode="&#x428;" horiz-adv-x="972" 
d="M85 0v710h116v-598h227v598h116v-598h227v598h116v-710h-802z" />
    <glyph glyph-name="uni0429" unicode="&#x429;" horiz-adv-x="1011" 
d="M966 112v-260h-113v148h-768v710h116v-598h227v598h116v-598h227v598h116v-598h79z" />
    <glyph glyph-name="uni042A" unicode="&#x42a;" horiz-adv-x="715" 
d="M433 440q55 0 100.5 -16t78 -45t50.5 -69.5t18 -89.5q0 -50 -18 -90.5t-50.5 -69t-78 -44.5t-100.5 -16h-230v597h-183v113h299v-270h114zM319 108h113q63 0 98.5 28.5t35.5 83.5t-35.5 84t-98.5 29h-113v-225z" />
    <glyph glyph-name="uni042B" unicode="&#x42b;" horiz-adv-x="865" 
d="M316 440q55 0 100.5 -16t78 -45t50.5 -69.5t18 -89.5q0 -50 -18 -90.5t-50.5 -69t-78 -44.5t-100.5 -16h-231v710h116v-270h115zM201 108h113q64 0 99.5 28.5t35.5 83.5t-35.5 84t-99.5 29h-113v-225zM664 710h116v-710h-116v710z" />
    <glyph glyph-name="uni042C" unicode="&#x42c;" horiz-adv-x="598" 
d="M316 440q55 0 100.5 -16t78 -45t50.5 -69.5t18 -89.5q0 -50 -18 -90.5t-50.5 -69t-78 -44.5t-100.5 -16h-231v710h116v-270h115zM201 108h113q64 0 99.5 28.5t35.5 83.5t-35.5 84t-99.5 29h-113v-225z" />
    <glyph glyph-name="uni042D" unicode="&#x42d;" horiz-adv-x="689" 
d="M27 609q48 52 113 81t141 29t142 -28t115 -77t77.5 -115.5t28.5 -142.5q0 -77 -28.5 -143t-77.5 -115t-115 -77t-142 -28t-141 28.5t-113 80.5l78 80q32 -35 76.5 -56.5t99.5 -21.5q46 0 85.5 15t70.5 42t52.5 63.5t30.5 79.5h-315v112h315q-9 43 -30.5 78t-52.5 60
t-70.5 39t-85.5 14q-55 0 -99.5 -21.5t-76.5 -56.5z" />
    <glyph glyph-name="uni042E" unicode="&#x42e;" horiz-adv-x="1093" 
d="M326 416q11 65 43 120.5t79.5 96t108 63t128.5 22.5q76 0 142 -28t115 -77t77.5 -115.5t28.5 -142.5q0 -77 -28.5 -143t-77.5 -115t-115 -77t-142 -28q-69 0 -130.5 23.5t-109.5 65.5t-79 99t-40 124h-125v-304h-116v710h116v-294h125zM685 607q-53 0 -98 -19.5
t-78 -53.5t-51.5 -80t-18.5 -99t18.5 -99t51.5 -80t78 -53.5t98 -19.5q52 0 97 19.5t78 53.5t51.5 80t18.5 99t-18.5 99t-51.5 80t-78 53.5t-97 19.5z" />
    <glyph glyph-name="uni042F" unicode="&#x42f;" horiz-adv-x="634" 
d="M433 0v258h-87l-180 -258h-136l194 276q-41 16 -73 45q-33 30 -51 71t-18 92q0 50 18 91.5t51 71.5t78.5 46.5t100.5 16.5h219v-710h-116zM433 602h-98q-64 0 -99.5 -32t-35.5 -86t35.5 -86t99.5 -32h98v236z" />
    <glyph glyph-name="uni0402" unicode="&#x402;" horiz-adv-x="743" 
d="M312 597v-187q46 18 86 26t94 8q45 0 85 -14.5t70.5 -43t48 -71t17.5 -99.5v-20q0 -69 -22 -122t-59.5 -89.5t-87.5 -55.5t-107 -19h-13v104h11q30 0 58.5 9.5t51 30.5t36 55t13.5 82v10q0 63 -34.5 97t-94.5 34q-23 0 -41 -2t-35.5 -5.5t-36 -10t-40.5 -15.5v-299h-116
v597h-176v113h484v-113h-192z" />
    <glyph glyph-name="uni0403" unicode="&#x403;" horiz-adv-x="495" 
d="M201 597v-597h-116v710h385v-113h-269zM308 913h130l-117 -145h-87z" />
    <glyph glyph-name="uni0404" unicode="&#x404;" horiz-adv-x="695" 
d="M663 101q-48 -51 -113.5 -80t-141.5 -29q-75 0 -141.5 28t-115.5 77t-77.5 115t-28.5 143q0 76 28.5 142.5t77.5 115.5t115.5 77t141.5 28q76 0 141.5 -29t113.5 -80l-78 -80q-32 35 -77 56.5t-100 21.5q-46 0 -85.5 -14t-70.5 -39t-52 -60t-30 -78h327v-112h-327
q8 -44 29.5 -80.5t53 -63.5t71 -42t84.5 -15q55 0 100 21.5t77 56.5z" />
    <glyph glyph-name="uni0405" unicode="&#x405;" horiz-adv-x="519" 
d="M259 -8q-81 0 -143 33t-96 88l88 74q25 -34 64 -59.5t86 -25.5q52 0 80.5 22t28.5 60q0 40 -25 66t-78 49l-56 24q-160 70 -160 207q0 43 18 77.5t47 59t67 38t79 13.5q62 0 111 -21.5t88 -68.5l-80 -83q-28 33 -55 48t-65 15q-36 0 -65 -20t-29 -57q0 -35 24.5 -60.5
t78.5 -48.5l55 -25q73 -32 118 -80.5t45 -122.5q0 -45 -16 -82t-45.5 -64t-71.5 -41.5t-93 -14.5z" />
    <glyph glyph-name="uni0406" unicode="&#x406;" horiz-adv-x="286" 
d="M85 710h116v-710h-116v710z" />
    <glyph glyph-name="uni0407" unicode="&#x407;" horiz-adv-x="286" 
d="M40 904q26 0 44 -17.5t18 -42.5q0 -26 -18 -44t-44 -18q-24 0 -42.5 18t-18.5 44q0 25 18.5 42.5t42.5 17.5zM245 904q26 0 44 -17.5t18 -42.5q0 -26 -18 -44t-44 -18q-25 0 -43 18t-18 44q0 25 18 42.5t43 17.5zM85 710h116v-710h-116v710z" />
    <glyph glyph-name="uni0408" unicode="&#x408;" horiz-adv-x="509" 
d="M234 -8q-43 0 -82.5 13.5t-69.5 40.5t-48 68t-18 95h117q0 -54 29.5 -80t71.5 -27q42 0 72 26.5t30 80.5v501h116v-503q0 -54 -18 -94.5t-48 -67t-69.5 -40t-82.5 -13.5z" />
    <glyph glyph-name="uni0409" unicode="&#x409;" horiz-adv-x="983" 
d="M701 440q55 0 100.5 -16t78 -45t50.5 -69.5t18 -89.5q0 -50 -18 -90.5t-50.5 -69t-78 -44.5t-100.5 -16h-119l-225 477l-224 -477h-123l348 727l137 -287h206zM653 108h47q63 0 98.5 28.5t35.5 83.5t-35.5 84t-98.5 29h-154z" />
    <glyph glyph-name="uni040A" unicode="&#x40a;" horiz-adv-x="993" 
d="M710 416q57 0 103 -15t78 -42t49.5 -64t17.5 -80q0 -48 -18 -87.5t-50.5 -68t-78.5 -44t-101 -15.5h-208v304h-301v-304h-116v710h116v-294h301v294h116v-294h92zM618 108h91q134 0 134 105q0 91 -134 91h-91v-196z" />
    <glyph glyph-name="uni040B" unicode="&#x40b;" horiz-adv-x="770" 
d="M197 597h-177v113h484v-113h-191v-186q47 17 90 24.5t99 7.5q49 0 90.5 -16t70.5 -44.5t45.5 -68t16.5 -85.5v-229h-116v208q-1 57 -32.5 90.5t-89.5 33.5q-48 0 -88.5 -7.5t-85.5 -25.5v-299h-116v597z" />
    <glyph glyph-name="uni040C" unicode="&#x40c;" horiz-adv-x="668" 
d="M85 710h116v-357l299 357h138l-301 -359l331 -351h-150l-317 335v-335h-116v710zM361 913h130l-117 -145h-87z" />
    <glyph glyph-name="uni040E" unicode="&#x40e;" horiz-adv-x="651" 
d="M174 0l90 181l-274 529h133l206 -398l198 398h134l-356 -710h-131zM483 914q-2 -81 -48.5 -122t-119.5 -41t-119.5 41t-48.5 122h91q1 -43 21 -65.5t56 -22.5t56 22.5t21 65.5h91z" />
    <glyph glyph-name="uni040F" unicode="&#x40f;" horiz-adv-x="724" 
d="M418 0v-140h-112v140h-221v710h116v-598h322v598h116v-710h-221z" />
    <glyph glyph-name="uni0490" unicode="&#x490;" horiz-adv-x="495" 
d="M201 597v-597h-116v710h272v137h113v-250h-269z" />
    <glyph glyph-name="uni0462" unicode="&#x462;" horiz-adv-x="622" 
d="M428 630v-114h-194v-90h114q56 0 100.5 -15.5t75 -43.5t47 -67.5t16.5 -87.5q0 -46 -16.5 -84.5t-47.5 -67t-75.5 -44.5t-99.5 -16h-230v516h-105v114h105v80h116v-80h194zM234 106h108q63 0 97 27.5t34 81.5t-34 81t-97 27h-108v-217z" />
    <glyph glyph-name="uni0472" unicode="&#x472;" horiz-adv-x="816" 
d="M408 718q76 0 142 -28t115 -77t77.5 -115.5t28.5 -142.5q0 -77 -28.5 -143t-77.5 -115t-115 -77t-142 -28q-75 0 -141.5 28t-115.5 77t-77.5 115t-28.5 143q0 76 28.5 142.5t77.5 115.5t115.5 77t141.5 28zM408 607q-47 0 -88 -16t-72.5 -44t-52 -66.5t-26.5 -83.5
q32 16 65 23.5t64 7.5q33 0 61 -6.5t55 -15t55.5 -15t61.5 -6.5q30 0 61 6.5t55 19.5q-9 42 -30 78t-52 62.5t-71 41t-86 14.5zM284 333q-29 0 -58.5 -9.5t-55.5 -29.5q10 -42 31.5 -77t52.5 -60.5t70 -39.5t84 -14q48 0 89 16t72.5 44t52.5 67t28 84q-63 -23 -118 -23
q-35 0 -67.5 6.5t-63.5 14.5t-60 14.5t-57 6.5z" />
    <glyph glyph-name="uni0474" unicode="&#x474;" horiz-adv-x="665" 
d="M483 601q25 61 65 85t97 24v-116q-21 0 -36 -9t-26 -33l-252 -570l-330 728h128l202 -463z" />
    <glyph glyph-name="uni0492" unicode="&#x492;" horiz-adv-x="504" 
d="M218 597v-189h172v-113h-172v-295h-116v295h-91v113h91v302h384v-113h-268z" />
    <glyph glyph-name="uni0496" unicode="&#x496;" horiz-adv-x="1066" 
d="M939 112h102v-260h-110v148h-39l-314 339v-339h-116v339l-313 -339h-149l324 350l-294 360h138l294 -360v360h116v-360l294 360h138l-294 -360z" />
    <glyph glyph-name="uni049A" unicode="&#x49a;" horiz-adv-x="695" 
d="M560 -148v148h-42l-317 344v-344h-116v710h116v-366l299 366h138l-293 -359l220 -239h105v-260h-110z" />
    <glyph glyph-name="uni04A2" unicode="&#x4a2;" horiz-adv-x="796" 
d="M751 112v-260h-110v148h-87v304h-353v-304h-116v710h116v-294h353v294h116v-598h81z" />
    <glyph glyph-name="uni04AE" unicode="&#x4ae;" horiz-adv-x="641" 
d="M262 299l-261 411h136l183 -293l183 293h137l-262 -411v-299h-116v299z" />
    <glyph glyph-name="uni04B0" unicode="&#x4b0;" horiz-adv-x="641" 
d="M379 279h121v-113h-121v-166h-117v166h-121v113h121v21l-261 410h135l184 -294l184 294h136l-261 -410v-21z" />
    <glyph glyph-name="uni04B2" unicode="&#x4b2;" horiz-adv-x="710" 
d="M583 112h102v-260h-110v148h-51l-188 277l-188 -277h-135l245 360l-231 350h134l174 -263l174 263h134l-229 -350z" />
    <glyph glyph-name="uni04B6" unicode="&#x4b6;" horiz-adv-x="706" 
d="M661 112v-260h-110v148h-100v258h-184q-50 0 -89 16t-66.5 44.5t-42 67.5t-14.5 86v238h116v-215q0 -26 6.5 -48.5t20 -39.5t34 -27t48.5 -10h171v340h116v-598h94z" />
    <glyph glyph-name="uni04BA" unicode="&#x4ba;" horiz-adv-x="652" 
d="M171.989 709.957v-292.982q37.998 13.999 84.9951 24.498q46.9971 10.5 103.993 10.5q53.9971 0 99.4941 -15.999t77.9951 -44.4971q32.498 -28.499 50.4971 -67.4961q17.999 -38.998 17.999 -85.9951v-237.985h-115.993v215.986q0 35.998 -11.499 59.4971
q-11.499 23.498 -31.998 37.9971q-20.499 14.5 -47.4971 20.499q-26.998 6 -57.9961 6q-44.998 0 -87.4951 -8.5q-42.4971 -8.49902 -82.4951 -25.498v-305.981h-115.993v709.957h115.993z" />
    <glyph glyph-name="uni04C0" unicode="&#x4c0;" horiz-adv-x="286" 
d="M85 710h116v-710h-116v710z" />
    <glyph glyph-name="uni04D8" unicode="&#x4d8;" horiz-adv-x="796" 
d="M134 609q48 52 113.5 81t150.5 29q73 0 137 -28t112 -77t76 -115.5t28 -142.5q0 -77 -27 -143t-74 -115t-111.5 -77t-140.5 -28q-80 0 -145 29t-111.5 82.5t-71.5 128t-25 165.5h583q-8 47 -28.5 85.5t-50.5 66t-68.5 42.5t-82.5 15q-63 0 -108.5 -21.5t-77.5 -56.5z
M170 299q7 -42 26 -78t48 -62t68 -40.5t86 -14.5q45 0 83 14.5t67 40.5t48.5 62t27.5 78h-454z" />
    <glyph glyph-name="uni04E2" unicode="&#x4e2;" horiz-adv-x="771" 
d="M85 -8v718h116v-453l485 461v-718h-116v453zM264 875h306v-76h-306v76z" />
    <glyph glyph-name="uni04E8" unicode="&#x4e8;" horiz-adv-x="816" 
d="M408 718q76 0 142 -28t115 -77t77.5 -115.5t28.5 -142.5q0 -77 -28.5 -143t-77.5 -115t-115 -77t-142 -28q-75 0 -141.5 28t-115.5 77t-77.5 115t-28.5 143q0 76 28.5 142.5t77.5 115.5t115.5 77t141.5 28zM647 414q-9 42 -30.5 77t-53 61t-71 40.5t-84.5 14.5
t-84.5 -14.5t-70.5 -40.5t-52.5 -61t-30.5 -77h477zM168 307q8 -44 29 -81.5t52.5 -64.5t71.5 -42.5t87 -15.5t87.5 15.5t72 42.5t52.5 64.5t29 81.5h-481z" />
    <glyph glyph-name="uni04EE" unicode="&#x4ee;" horiz-adv-x="651" 
d="M174 0l90 181l-274 529h133l206 -398l198 398h134l-356 -710h-131zM181 875h306v-76h-306v76z" />
    <glyph glyph-name="uni0430" unicode="&#x430;" horiz-adv-x="623" 
d="M435 36q-26 -21 -60 -32.5t-74 -11.5q-56 0 -103 20t-81 54.5t-53.5 81.5t-19.5 102t19.5 102t53.5 81.5t81 54.5t103 20q40 0 74 -12t60 -33v37h110v-500h-110v36zM302 97q42 0 77.5 18.5t55.5 49.5v170q-20 31 -55.5 49.5t-77.5 18.5q-32 0 -58.5 -11.5t-46 -32
t-30 -48.5t-10.5 -61t10.5 -61t30 -48.5t46 -32t58.5 -11.5z" />
    <glyph glyph-name="uni0431" unicode="&#x431;" horiz-adv-x="602" 
d="M302 393q-35 0 -62 -11.5t-46 -31t-29 -45.5t-10 -56q0 -34 10.5 -62.5t30 -49.5t46.5 -32.5t60 -11.5q32 0 59 11.5t46.5 32t30 49t10.5 63.5q0 30 -10.5 56t-29.5 45.5t-46 31t-60 11.5zM338 595q-51 -12 -84.5 -30.5t-54.5 -42t-31.5 -51t-16.5 -57.5q30 37 72.5 56.5
t94.5 19.5q56 0 100.5 -19.5t75.5 -52.5t47.5 -76.5t16.5 -91.5q0 -54 -19.5 -101t-53.5 -82t-81 -55t-102 -20q-60 0 -107.5 21t-81 59t-51 90.5t-17.5 115.5v41q0 159 70 250.5t202 123.5l192 46v-103z" />
    <glyph glyph-name="uni0432" unicode="&#x432;" horiz-adv-x="514" 
d="M79 500h200q49 0 84 -11t56.5 -30t31.5 -45t10 -56q0 -24 -7 -49t-31 -43q38 -18 54 -50.5t16 -67.5q0 -30 -10.5 -56.5t-33.5 -47t-58.5 -32.5t-86.5 -12h-225v500zM189 215v-119h119q75 2 75 59q0 60 -75 60h-119zM189 404v-109h96q29 1 47.5 13.5t18.5 40.5
q0 29 -18.5 42t-47.5 13h-96z" />
    <glyph glyph-name="uni0433" unicode="&#x433;" horiz-adv-x="416" 
d="M187 402v-402h-109v500h311v-98h-202z" />
    <glyph glyph-name="uni0434" unicode="&#x434;" horiz-adv-x="618" 
d="M603 98v-221h-98v123h-392v-123h-98v221h70l224 410l224 -410h70zM410 98l-100 190l-102 -190h202z" />
    <glyph glyph-name="uni0435" unicode="&#x435;" horiz-adv-x="583" 
d="M302 -8q-56 0 -103 20t-81.5 54.5t-54 81.5t-19.5 102t19.5 102t54 81.5t81 54.5t101.5 20q52 0 95 -18t74 -51t49 -81t21 -108v-30h-381q8 -54 47.5 -86.5t96.5 -32.5q45 0 77.5 17.5t52.5 39.5l74 -79q-32 -38 -85 -62.5t-119 -24.5zM292 407q-45 0 -81 -27t-50 -75
h257q-10 51 -43 76.5t-83 25.5z" />
    <glyph glyph-name="uni0451" unicode="&#x451;" horiz-adv-x="583" 
d="M302 -8q-56 0 -103 20t-81.5 54.5t-54 81.5t-19.5 102t19.5 102t54 81.5t81 54.5t101.5 20q52 0 95 -18t74 -51t49 -81t21 -108v-30h-381q8 -54 47.5 -86.5t96.5 -32.5q45 0 77.5 17.5t52.5 39.5l74 -79q-32 -38 -85 -62.5t-119 -24.5zM292 407q-45 0 -81 -27t-50 -75
h257q-10 51 -43 76.5t-83 25.5zM184 562q-28 0 -48 19.5t-20 47.5t20 48t48 20t48 -20t20 -48t-20 -47.5t-48 -19.5zM414 562q-29 0 -48 19.5t-19 47.5t19 48t48 20q28 0 47.5 -20t19.5 -48t-19.5 -47.5t-47.5 -19.5z" />
    <glyph glyph-name="uni0436" unicode="&#x436;" horiz-adv-x="818" 
d="M139 0h-134l229 248l-203 252h125l198 -249v249h110v-249l198 249h125l-203 -252l229 -248h-134l-215 234v-234h-110v234z" />
    <glyph glyph-name="uni0437" unicode="&#x437;" horiz-adv-x="440" 
d="M40 417q35 46 78.5 68.5t106.5 22.5q41 0 74 -11.5t56 -31.5t35.5 -46.5t12.5 -55.5q0 -33 -15 -58t-41 -44q36 -18 54 -51t18 -68q0 -26 -10.5 -53t-34 -48.5t-61.5 -35t-92 -13.5q-66 0 -116 24t-85 78l81 55q20 -31 48.5 -47.5t70.5 -16.5q45 0 66 19.5t21 46.5
q0 29 -21.5 47t-63.5 18h-72v84h67q14 0 28 3.5t25.5 10.5t18.5 18.5t7 27.5q0 30 -21 43.5t-56 13.5q-74 0 -108 -55z" />
    <glyph glyph-name="uni0438" unicode="&#x438;" horiz-adv-x="616" 
d="M429 0v294l-351 -302v508h109v-298l351 306v-508h-109z" />
    <glyph glyph-name="uni0439" unicode="&#x439;" horiz-adv-x="616" 
d="M429 0v294l-351 -302v508h109v-298l351 306v-508h-109zM497 710q-3 -82 -49 -122.5t-119 -40.5t-119.5 41t-48.5 122h85q1 -48 24 -71.5t59 -23.5t58.5 23.5t24.5 71.5h85z" />
    <glyph glyph-name="uni043A" unicode="&#x43a;" horiz-adv-x="543" 
d="M79 500h110v-249l198 249h125l-203 -252l229 -248h-134l-215 234v-234h-110v500z" />
    <glyph glyph-name="uni043B" unicode="&#x43b;" horiz-adv-x="556" 
d="M430 0l-152 288l-156 -288h-119l274 508l274 -508h-121z" />
    <glyph glyph-name="uni043C" unicode="&#x43c;" horiz-adv-x="756" 
d="M569 0v310l-191 -318l-191 318v-310h-109v500h109l191 -321l191 321h109v-500h-109z" />
    <glyph glyph-name="uni043D" unicode="&#x43d;" horiz-adv-x="612" 
d="M425 0v204h-238v-204h-109v500h109v-198h238v198h109v-500h-109z" />
    <glyph glyph-name="uni043E" unicode="&#x43e;" horiz-adv-x="606" 
d="M303 97q32 0 58.5 11.5t46 32t30.5 48.5t11 61t-11 61t-30.5 48.5t-46 32t-58.5 11.5t-59 -11.5t-46.5 -32t-30 -48.5t-10.5 -61t10.5 -61t30 -48.5t46.5 -32t59 -11.5zM303 -8q-56 0 -103.5 20t-82 54.5t-54 81.5t-19.5 102t19.5 102t54 81.5t82 54.5t103.5 20
q55 0 102.5 -20t82.5 -54.5t54.5 -81.5t19.5 -102t-19.5 -102t-54.5 -81.5t-82.5 -54.5t-102.5 -20z" />
    <glyph glyph-name="uni043F" unicode="&#x43f;" horiz-adv-x="601" 
d="M414 0v402h-227v-402h-109v500h445v-500h-109z" />
    <glyph glyph-name="uni0440" unicode="&#x440;" horiz-adv-x="623" 
d="M187 457q57 51 142 51q55 0 101 -20.5t79 -55.5t51.5 -82t18.5 -100t-18.5 -100t-51.5 -82t-79 -55.5t-101 -20.5q-85 0 -142 51v-227h-109v684h109v-43zM187 160q20 -30 53 -48t78 -18q33 0 60.5 12t47 33t30.5 49.5t11 61.5t-11 61.5t-30.5 49.5t-47 33t-60.5 12
q-45 0 -78 -18t-53 -48v-180z" />
    <glyph glyph-name="uni0441" unicode="&#x441;" horiz-adv-x="529" 
d="M302 -8q-56 0 -103 20t-81.5 54.5t-54 81.5t-19.5 102t19.5 102t54 81.5t81.5 54.5t103 20q60 0 108 -22.5t83 -60.5l-75 -77q-20 23 -48.5 38t-67.5 15q-32 0 -58.5 -11.5t-46 -31.5t-30 -47.5t-10.5 -60.5t10.5 -60.5t30 -47.5t46 -31.5t58.5 -11.5q39 0 67.5 15
t48.5 38l75 -77q-35 -38 -83 -60.5t-108 -22.5z" />
    <glyph glyph-name="uni0442" unicode="&#x442;" horiz-adv-x="443" 
d="M272 402v-402h-109v402h-135v98h387v-98h-143z" />
    <glyph glyph-name="uni0443" unicode="&#x443;" horiz-adv-x="511" 
d="M197 26l-197 474h118l136 -345l137 345h118l-286 -684h-116z" />
    <glyph glyph-name="uni0444" unicode="&#x444;" horiz-adv-x="759" 
d="M452 508q61 0 110 -20.5t83 -56t52 -82.5t18 -99q0 -53 -18 -99.5t-52 -82t-83 -56t-110 -20.5h-18v-176h-108v176h-18q-61 0 -110 20.5t-83 56t-52.5 82t-18.5 99.5q0 52 18.5 99t52.5 82.5t83 56t110 20.5h18v202h108v-202h18zM308 408q-35 0 -63.5 -12.5t-48.5 -34
t-30.5 -50.5t-10.5 -61t10.5 -61t30.5 -50.5t48.5 -34t63.5 -12.5h18v316h-18zM434 92h18q35 0 63.5 12.5t48.5 34t30.5 50.5t10.5 61t-10.5 61t-30.5 50.5t-48.5 34t-63.5 12.5h-18v-316z" />
    <glyph glyph-name="uni0445" unicode="&#x445;" horiz-adv-x="542" 
d="M202 253l-179 247h127l121 -166l121 166h127l-179 -247l189 -253h-128l-130 178l-130 -178h-128z" />
    <glyph glyph-name="uni0446" unicode="&#x446;" horiz-adv-x="631" 
d="M601 98v-223h-98v125h-425v500h109v-402h223v402h110v-402h81z" />
    <glyph glyph-name="uni0447" unicode="&#x447;" horiz-adv-x="554" 
d="M367 190q-30 -13 -62 -20t-68 -7q-41 0 -76 11.5t-61 34.5t-40.5 57.5t-14.5 80.5v153h110v-133q0 -29 8 -48.5t22.5 -31.5t33.5 -17t41 -5q25 0 53 7t54 22v206h109v-500h-109v190z" />
    <glyph glyph-name="uni0448" unicode="&#x448;" horiz-adv-x="814" 
d="M78 0v500h109v-402h165v402h109v-402h166v402h109v-500h-658z" />
    <glyph glyph-name="uni0449" unicode="&#x449;" horiz-adv-x="838" 
d="M808 98v-223h-98v125h-632v500h109v-402h165v402h109v-402h166v402h109v-402h72z" />
    <glyph glyph-name="uni044A" unicode="&#x44a;" horiz-adv-x="589" 
d="M367 330q51 0 86.5 -14t58 -37.5t32.5 -52.5t10 -59t-10 -60t-32.5 -53.5t-58 -38.5t-86.5 -15h-206v403h-133v97h242v-170h97zM270 97h94q86 0 86 71q0 35 -21.5 54t-61.5 19h-97v-144z" />
    <glyph glyph-name="uni044B" unicode="&#x44b;" horiz-adv-x="699" 
d="M187 97h77q42 0 64.5 18t22.5 53t-21.5 53.5t-61.5 19.5h-81v-144zM267 330q51 0 86.5 -14t58 -37.5t33 -52.5t10.5 -59t-10.5 -60t-33 -53.5t-58 -38.5t-86.5 -15h-189v500h109v-170h80zM529 500h110v-500h-110v500z" />
    <glyph glyph-name="uni044C" unicode="&#x44c;" horiz-adv-x="507" 
d="M284 330q51 0 86.5 -14t58 -37.5t33 -52.5t10.5 -59t-10.5 -60t-33 -53.5t-58 -38.5t-86.5 -15h-206v500h109v-170h97zM187 97h94q42 0 64.5 18t22.5 53t-21.5 54t-61.5 19h-98v-144z" />
    <glyph glyph-name="uni044D" unicode="&#x44d;" horiz-adv-x="537" 
d="M34 415q34 42 84.5 67.5t116.5 25.5q55 0 102.5 -20t82 -55t54 -82t19.5 -101t-19.5 -101t-54 -82t-82 -55t-102.5 -20q-66 0 -116.5 25.5t-84.5 67.5l78 69q21 -26 51 -42.5t72 -16.5q54 0 92 32t49 84h-190v89h187q-14 46 -50.5 75.5t-87.5 29.5q-42 0 -72 -16.5
t-51 -42.5z" />
    <glyph glyph-name="uni044E" unicode="&#x44e;" horiz-adv-x="847" 
d="M289 301q9 45 31.5 82.5t55.5 65.5t75.5 43.5t92.5 15.5q55 0 102.5 -20t82.5 -55t54.5 -82t19.5 -101t-19.5 -101t-54.5 -82t-82.5 -55t-102.5 -20q-50 0 -93 16t-77 44.5t-56 67.5t-30 84h-101v-204h-109v500h109v-199h102zM544 405q-33 0 -60.5 -12t-47 -32.5t-30 -49
t-10.5 -61.5t10.5 -61.5t30 -49t47 -32.5t60.5 -12t60 12t46.5 32.5t30 49t10.5 61.5t-10.5 61.5t-30 49t-46.5 32.5t-60 12z" />
    <glyph glyph-name="uni044F" unicode="&#x44f;" horiz-adv-x="524" 
d="M337 0v175h-57l-137 -175h-129l148 187q-51 20 -77 59.5t-26 93.5q0 71 46 115.5t141 44.5h200v-500h-109zM246 409q-83 0 -83 -73q0 -35 22.5 -52.5t60.5 -17.5h91v143h-91z" />
    <glyph glyph-name="uni0452" unicode="&#x452;" horiz-adv-x="594" 
d="M408 598v-98h-193v-154q26 31 65 44.5t81 13.5q47 0 84 -18t62.5 -48.5t38.5 -71t13 -85.5v-30q0 -75 -18.5 -136.5t-50.5 -105.5t-75.5 -68.5t-93.5 -24.5h-25v103h16q34 0 60 18t43 48.5t25.5 71t8.5 85.5v21q0 30 -7.5 55.5t-22 44.5t-35.5 30t-49 11q-43 0 -73 -21.5
t-47 -57.5v-225h-109v500h-96v98h96v112h109v-112h193z" />
    <glyph glyph-name="uni0453" unicode="&#x453;" horiz-adv-x="416" 
d="M187 402v-402h-109v500h311v-98h-202zM266 710h133l-131 -165h-87z" />
    <glyph glyph-name="uni0454" unicode="&#x454;" horiz-adv-x="524" 
d="M503 85q-33 -42 -84 -67.5t-117 -25.5q-55 0 -102 20t-81.5 55t-54.5 82t-20 101t20 101t54.5 82t81.5 55t102 20q66 0 117 -25.5t84 -67.5l-78 -69q-21 26 -51 42.5t-72 16.5q-51 0 -87.5 -28.5t-50.5 -76.5h200v-89h-203q11 -51 49.5 -83.5t91.5 -32.5q42 0 72 16.5
t51 42.5z" />
    <glyph glyph-name="uni0455" unicode="&#x455;" horiz-adv-x="418" 
d="M205 -8q-60 0 -107.5 24.5t-78.5 77.5l84 60q18 -31 41 -47.5t61 -16.5q29 0 46.5 13t17.5 33q0 22 -16 36t-51 27l-35 14q-64 25 -93 64t-29 90q0 30 12 56t33.5 45t51 29.5t64.5 10.5q48 0 88 -20t68 -67l-81 -56q-25 45 -73 45q-22 0 -38.5 -10.5t-16.5 -29.5
q0 -20 14.5 -33.5t49.5 -27.5l36 -13q63 -25 97 -60.5t34 -94.5q0 -33 -13 -60.5t-36.5 -47t-56.5 -30.5t-73 -11z" />
    <glyph glyph-name="uni0456" unicode="&#x456;" 
d="M70 597q-18 21 -18 48q0 30 21.5 51.5t51.5 21.5t51.5 -21.5t21.5 -51.5q0 -27 -18 -48h-110zM70 500h110v-500h-110v500z" />
    <glyph glyph-name="uni0457" unicode="&#x457;" 
d="M27 690q26 0 43.5 -17t17.5 -42q0 -26 -17.5 -43t-43.5 -17q-24 0 -42 17t-18 43q0 25 18 42t42 17zM223 690q26 0 43 -17t17 -42q0 -26 -17 -43t-43 -17q-25 0 -42.5 17t-17.5 43q0 25 17.5 42t42.5 17zM70 500h110v-500h-110v500z" />
    <glyph glyph-name="uni0458" unicode="&#x458;" horiz-adv-x="244" 
d="M70 597q-18 21 -18 48q0 30 21.5 51.5t51.5 21.5t51.5 -21.5t21.5 -51.5q0 -27 -18 -48h-110zM-35 -80h30q38 0 56.5 15t18.5 53v512h110v-518q0 -91 -46 -128.5t-134 -37.5h-35v104z" />
    <glyph glyph-name="uni0459" unicode="&#x459;" horiz-adv-x="767" 
d="M545 330q51 0 86.5 -14t58 -37.5t32.5 -52.5t10 -59t-10 -60t-32.5 -53.5t-57.5 -38.5t-86 -15h-121l-152 289l-156 -289h-119l274 508l95 -178h178zM493 97h49q86 0 86 71q0 35 -21.5 53.5t-61.5 19.5h-129z" />
    <glyph glyph-name="uni045A" unicode="&#x45a;" horiz-adv-x="808" 
d="M586 330q51 0 86.5 -14t58 -37.5t32.5 -52.5t10 -59t-10 -60t-32.5 -53.5t-58 -38.5t-86.5 -15h-190v204h-209v-204h-109v500h109v-199h209v199h109v-170h81zM505 97h78q86 0 86 71q0 35 -21.5 54t-61.5 19h-81v-144z" />
    <glyph glyph-name="uni045B" unicode="&#x45b;" horiz-adv-x="609" 
d="M408 598v-98h-193v-154q26 31 62.5 44.5t78.5 13.5q47 0 84.5 -15.5t63.5 -43t40 -67t14 -87.5v-191h-109v173q0 60 -28.5 95.5t-85.5 35.5q-42 0 -72.5 -21.5t-47.5 -57.5v-225h-109v500h-96v98h96v112h109v-112h193z" />
    <glyph glyph-name="uni045C" unicode="&#x45c;" horiz-adv-x="543" 
d="M79 500h110v-249l198 249h125l-203 -252l229 -248h-134l-215 234v-234h-110v500zM308 710h133l-131 -165h-87z" />
    <glyph glyph-name="uni045E" unicode="&#x45e;" horiz-adv-x="511" 
d="M423 710q-3 -82 -49 -122.5t-119 -40.5t-119.5 41t-48.5 122h85q1 -48 24 -71.5t59 -23.5t58.5 23.5t24.5 71.5h85zM197 26l-197 474h118l136 -345l137 345h118l-286 -684h-116z" />
    <glyph glyph-name="uni045F" unicode="&#x45f;" horiz-adv-x="601" 
d="M351 0v-125h-98v125h-175v500h109v-402h227v402h109v-500h-172z" />
    <glyph glyph-name="uni0491" unicode="&#x491;" horiz-adv-x="416" 
d="M187 402v-402h-109v500h213v125h98v-223h-202z" />
    <glyph glyph-name="uni0463" unicode="&#x463;" horiz-adv-x="545" 
d="M408 500v-98h-193v-77h104q52 0 88.5 -13t59 -35t33 -50.5t10.5 -58.5q0 -31 -10.5 -61t-33 -54t-59 -38.5t-88.5 -14.5h-213v402h-96v98h96v210h109v-210h193zM215 91h104q90 0 90 78q0 38 -22 54t-67 17h-105v-149z" />
    <glyph glyph-name="uni0473" unicode="&#x473;" horiz-adv-x="607" 
d="M304 508q55 0 102.5 -20t82.5 -55t54.5 -82t19.5 -101t-19.5 -101t-54.5 -82t-82.5 -55t-102.5 -20q-56 0 -103.5 20t-82 55t-54.5 82t-20 101t20 101t54.5 82t82 55t103.5 20zM445 295q-12 49 -49.5 79.5t-91.5 30.5t-91.5 -30.5t-50.5 -79.5h283zM159 219q9 -54 48 -89
t97 -35t97 35t47 89h-289z" />
    <glyph glyph-name="uni0475" unicode="&#x475;" horiz-adv-x="540" 
d="M368 403q24 54 56.5 75.5t90.5 21.5v-103q-23 0 -36 -12.5t-23 -32.5l-184 -360l-274 508h125l150 -296z" />
    <glyph glyph-name="uni0493" unicode="&#x493;" horiz-adv-x="438" 
d="M209 402v-97h121v-98h-121v-207h-110v207h-84v98h84v195h312v-98h-202z" />
    <glyph glyph-name="uni0497" unicode="&#x497;" horiz-adv-x="829" 
d="M716 -125v125h-37l-215 234v-234h-110v234l-215 -234h-134l229 248l-203 252h125l198 -249v249h110v-249l198 249h125l-203 -252l139 -150h91v-223h-98z" />
    <glyph glyph-name="uni049B" unicode="&#x49b;" horiz-adv-x="549" 
d="M436 -125v125h-32l-215 234v-234h-110v500h110v-249l198 249h125l-203 -252l139 -150h86v-223h-98z" />
    <glyph glyph-name="uni04A3" unicode="&#x4a3;" horiz-adv-x="642" 
d="M612 98v-223h-98v125h-90v204h-237v-204h-109v500h109v-199h237v199h110v-402h78z" />
    <glyph glyph-name="uni04AF" unicode="&#x4af;" horiz-adv-x="548" 
d="M218 0l-219 500h124l150 -352l148 352h126l-219 -500v-181h-110v181z" />
    <glyph glyph-name="uni04B1" unicode="&#x4b1;" horiz-adv-x="546" 
d="M218 0l-219 500h124l150 -352l148 352h126l-219 -500h108v-98h-108v-83h-110v83h-108v98h108z" />
    <glyph glyph-name="uni04B3" unicode="&#x4b3;" horiz-adv-x="583" 
d="M457 98h102v-223h-98v125h-59l-131 178l-131 -178h-127l189 253l-180 247h127l122 -169l123 169h126l-180 -246z" />
    <glyph glyph-name="uni04B7" unicode="&#x4b7;" horiz-adv-x="578" 
d="M367 0v190q-30 -13 -62 -20t-68 -7q-41 0 -76 11.5t-61 34.5t-40.5 57.5t-14.5 80.5v153h110v-133q0 -29 8 -48.5t22.5 -31.5t33.5 -17t41 -5q25 0 53 7t54 22v206h109v-402h72v-223h-98v125h-83z" />
    <glyph glyph-name="uni04BB" unicode="&#x4bb;" horiz-adv-x="586" 
d="M78 710h110v-257q26 29 63.5 42t76.5 13q46 0 84 -15.5t64 -43.5t40.5 -68t14.5 -88v-293h-110v291q0 20 -7.5 40t-22 36t-35.5 26t-49 10q-42 0 -73 -21.5t-46 -66.5v-315h-110v710z" />
    <glyph glyph-name="uni04CF" unicode="&#x4cf;" horiz-adv-x="266" 
d="M78 710h110v-710h-110v710z" />
    <glyph glyph-name="uni04D9" unicode="&#x4d9;" horiz-adv-x="585" 
d="M283 508q55 0 102.5 -20t82 -54.5t54 -81.5t19.5 -102t-19 -102t-52.5 -81.5t-79.5 -54.5t-101 -20q-53 0 -96 18t-75 51t-50.5 81t-21.5 108v30h381q-8 54 -47.5 86.5t-96.5 32.5q-45 0 -77.5 -17.5t-52.5 -39.5l-74 79q32 38 85 62.5t119 24.5zM297 93q45 0 79 27
t48 75h-257q10 -51 44.5 -76.5t85.5 -25.5z" />
    <glyph glyph-name="uni04E3" unicode="&#x4e3;" horiz-adv-x="616" 
d="M429 0v294l-351 -302v508h109v-298l351 306v-508h-109zM180 677h306v-76h-306v76z" />
    <glyph glyph-name="uni04E9" unicode="&#x4e9;" horiz-adv-x="607" 
d="M304 508q55 0 102.5 -20t82.5 -55t54.5 -82t19.5 -101t-19.5 -101t-54.5 -82t-82.5 -55t-102.5 -20q-56 0 -103.5 20t-82 55t-54.5 82t-20 101t20 101t54.5 82t82 55t103.5 20zM445 295q-12 49 -49.5 79.5t-91.5 30.5t-91.5 -30.5t-50.5 -79.5h283zM159 219q9 -54 48 -89
t97 -35t97 35t47 89h-289z" />
    <glyph glyph-name="uni04EF" unicode="&#x4ef;" horiz-adv-x="511" 
d="M197 26l-197 474h118l136 -345l137 345h118l-286 -684h-116zM108 677h306v-76h-306v76z" />
    <glyph glyph-name="uniF6D4" unicode="&#xf6d4;" horiz-adv-x="460" 
d="M398 710q-3 -82 -49 -122.5t-119 -40.5t-119.5 41t-48.5 122h85q1 -48 24 -71.5t59 -23.5t58.5 23.5t24.5 71.5h85z" />
    <glyph glyph-name="uniF6D1" unicode="&#xf6d1;" horiz-adv-x="460" 
d="M398 914q-2 -81 -48.5 -122t-119.5 -41t-119.5 41t-48.5 122h91q1 -43 21 -65.5t56 -22.5t56 22.5t21 65.5h91z" />
    <glyph glyph-name="uni20BD" unicode="&#x20bd;" horiz-adv-x="569" 
d="M291 366q64 0 99.5 32t35.5 86t-35.5 86t-99.5 32h-71v-236h71zM220 118v-118h-116v118h-69v98h69v42h-69v108h69v344h192q55 0 100.5 -16.5t78.5 -46.5t51 -71.5t18 -91.5t-18 -91.5t-51 -71.5t-78.5 -46.5t-100.5 -16.5h-76v-42h191v-98h-191z" />
    <glyph glyph-name="uni20B4" unicode="&#x20b4;" horiz-adv-x="623" 
d="M320 -8q-52 0 -94 12.5t-72 36t-46 57t-16 74.5q0 30 11 57l4 8h-42v88h493v-88h-319q-17 -26 -17 -59q0 -76 102 -76q54 0 93 25.5t64 59.5l88 -74q-35 -55 -101.5 -88t-147.5 -33zM65 477h324q19 23 19 54q0 37 -27 57t-65 20t-67.5 -15t-57.5 -48l-80 83
q39 48 90.5 69t114.5 21q40 0 78.5 -11.5t68 -34t47.5 -55.5t18 -76q0 -18 -7 -39q-2 -7 -4.5 -13.5t-5.5 -11.5h47v-88h-493v88z" />
    <glyph glyph-name="ellipsis" unicode="&#x2026;" horiz-adv-x="717" 
d="M121 -8q-36 0 -61.5 25.5t-25.5 61.5q0 18 7 33.5t18.5 27t27.5 18.5t34 7t33.5 -7t27.5 -18.5t18.5 -27t6.5 -33.5q0 -36 -25 -61.5t-61 -25.5zM359 -8q-36 0 -61.5 25.5t-25.5 61.5q0 18 7 33.5t18.5 27t27.5 18.5t34 7t33.5 -7t27.5 -18.5t18.5 -27t6.5 -33.5
q0 -36 -25 -61.5t-61 -25.5zM598 -8q-36 0 -61.5 25.5t-25.5 61.5q0 18 7 33.5t18.5 27t27.5 18.5t34 7t33.5 -7t27.5 -18.5t18.5 -27t6.5 -33.5q0 -36 -25 -61.5t-61 -25.5z" />
    <glyph glyph-name="endash" unicode="&#x2013;" horiz-adv-x="541" 
d="M44 329h453v-105h-453v105z" />
    <glyph glyph-name="emdash" unicode="&#x2014;" horiz-adv-x="841" 
d="M44 329h753v-105h-753v105z" />
    <glyph glyph-name="guilsinglleft" unicode="&#x2039;" horiz-adv-x="306" 
d="M31 250l156 228l75 -51l-121 -177l121 -177l-75 -51z" />
    <glyph glyph-name="guilsinglright" unicode="&#x203a;" horiz-adv-x="306" 
d="M122 22l-75 51l121 177l-121 177l75 51l156 -228z" />
    <glyph glyph-name="quoteleft" unicode="&#x2018;" horiz-adv-x="271" 
d="M148 564h58v-141h-141v141l59 146h68z" />
    <glyph glyph-name="quoteright" unicode="&#x2019;" horiz-adv-x="271" 
d="M123 569h-58v141h141v-141l-59 -146h-68z" />
    <glyph glyph-name="quotedblleft" unicode="&#x201c;" horiz-adv-x="477" 
d="M148 564h58v-141h-141v141l59 146h68zM354 564h58v-141h-141v141l59 146h68z" />
    <glyph glyph-name="quotedblright" unicode="&#x201d;" horiz-adv-x="477" 
d="M123 569h-58v141h141v-141l-59 -146h-68zM329 569h-58v141h141v-141l-59 -146h-68z" />
    <glyph glyph-name="quotesinglbase" unicode="&#x201a;" horiz-adv-x="271" 
d="M123 0h-58v141h141v-141l-59 -146h-68z" />
    <glyph glyph-name="quotedblbase" unicode="&#x201e;" horiz-adv-x="477" 
d="M123 0h-58v141h141v-141l-59 -146h-68zM329 0h-58v141h141v-141l-59 -146h-68z" />
    <glyph glyph-name="bullet" unicode="&#x2022;" horiz-adv-x="400" 
d="M200 166q-28 0 -53 10.5t-43.5 29t-29 43.5t-10.5 53t10.5 53t29 43.5t43.5 29t53 10.5t53 -10.5t43.5 -29t29 -43.5t10.5 -53t-10.5 -53t-29 -43.5t-43.5 -29t-53 -10.5z" />
    <glyph glyph-name="minus" unicode="&#x2212;" horiz-adv-x="615" 
d="M89 321h437v-88h-437v88z" />
    <glyph glyph-name="Euro" unicode="&#x20ac;" horiz-adv-x="711" 
d="M40 459h85q16 57 49 104.5t78 82t101 53.5t118 19q64 0 116 -17t97 -49l-39 -100q-31 27 -75 45.5t-99 18.5q-79 0 -141 -42.5t-90 -114.5h363l-26 -62h-353q-3 -21 -3 -42v-21t2 -20h318l-26 -62h-276q28 -73 90 -115.5t142 -42.5q45 0 80 12t67 32v-115
q-70 -31 -147 -31q-63 0 -118.5 19t-101 53.5t-78 82.5t-48.5 105h-111l26 62h73q-2 10 -2 20v21v21t2 21h-99z" />
    <glyph glyph-name="uniFB01" unicode="&#xfb01;" horiz-adv-x="609" 
d="M20 500h79q-16 17 -25 38.5t-9 47.5q0 27 10 49.5t28.5 39t44.5 26t58 9.5h132v-98h-102q-30 0 -48 -14t-18 -40t16.5 -41t36.5 -17h115v-98h-130v-402h-110v402h-78v98zM429 597q-18 21 -18 48q0 30 21.5 51.5t51.5 21.5t51.5 -21.5t21.5 -51.5q0 -27 -18 -48h-110z
M429 500h110v-500h-110v500z" />
    <glyph glyph-name="uniFB02" unicode="&#xfb02;" horiz-adv-x="609" 
d="M20 500h79q-16 17 -25 38.5t-9 47.5q0 27 10 49.5t28.5 39t44.5 26t58 9.5h132v-98h-102q-30 0 -48 -14t-18 -40t16.5 -41t36.5 -17h115v-98h-130v-402h-110v402h-78v98zM429 710h110v-710h-110v710z" />
    <glyph glyph-name="breve" unicode="&#x2d8;" horiz-adv-x="419" 
d="M209 556q-36 0 -66 12t-52 33t-34.5 49t-13.5 60h71q2 -35 27.5 -60.5t68.5 -25.5q42 0 68 25.5t27 60.5h72q-1 -32 -13.5 -60t-34.5 -49t-52.5 -33t-67.5 -12z" />
    <glyph glyph-name="caron" unicode="&#x2c7;" horiz-adv-x="442" 
d="M217 553l-173 105l42 70l131 -81l133 81l40 -70z" />
    <glyph glyph-name="circumflex" unicode="&#x2c6;" horiz-adv-x="435" 
d="M43 613l173 105l173 -105l-40 -70l-133 81l-131 -81z" />
    <glyph glyph-name="dotaccent" unicode="&#x2d9;" horiz-adv-x="229" 
d="M114 558q-29 0 -50 20.5t-21 50.5t21 50.5t50 20.5q30 0 51 -20.5t21 -50.5t-21 -50.5t-51 -20.5z" />
    <glyph glyph-name="glyph464" horiz-adv-x="229" 
d="M114 -194q-29 0 -50 20.5t-21 50.5t21 50.5t50 20.5q30 0 51 -20.5t21 -50.5t-21 -50.5t-51 -20.5z" />
    <glyph glyph-name="hungarumlaut" unicode="&#x2dd;" horiz-adv-x="484" 
d="M140 710h117l-132 -165h-70zM318 710h116l-131 -165h-70z" />
    <glyph glyph-name="glyph466" horiz-adv-x="283" 
d="M113 -50h114l-100 -193h-73z" />
    <glyph glyph-name="ogonek" unicode="&#x2db;" horiz-adv-x="279" 
d="M157 -182q-43 0 -74.5 25.5t-31.5 69.5q0 29 19 51t45 36h110q-38 -17 -55 -33.5t-17 -34.5q0 -14 11 -24.5t31 -10.5q11 0 18.5 3t12.5 6v-69q-14 -11 -31.5 -15t-37.5 -4z" />
    <glyph glyph-name="ring" unicode="&#x2da;" horiz-adv-x="303" 
d="M153 608q20 0 33.5 13.5t13.5 33.5t-13.5 33.5t-33.5 13.5t-34 -13.5t-14 -33.5t14 -33.5t34 -13.5zM153 551q-23 0 -42.5 8t-33.5 22t-22.5 33t-8.5 41t8.5 41t23 33t34 22t41.5 8t41.5 -8t34 -22t23 -33t8.5 -41t-8.5 -41t-23 -33t-34 -22t-41.5 -8z" />
    <glyph glyph-name="tilde" unicode="&#x2dc;" horiz-adv-x="474" 
d="M60 584q8 49 40 75.5t68 26.5q21 0 39 -6.5t33 -14.5t28.5 -14.5t25.5 -6.5q20 0 30 10t16 33h77l-3 -22q-8 -47 -39 -74.5t-69 -27.5q-22 0 -40 6.5t-33.5 14.5t-28.5 14.5t-25 6.5q-20 0 -30.5 -10t-15.5 -33h-77z" />
    <glyph glyph-name="glyph470" horiz-adv-x="500" 
d="M231 710h109l-57 -163h-75z" />
    <glyph glyph-name="glyph471" horiz-adv-x="319" 
d="M138 913h130l-117 -145h-87z" />
    <glyph glyph-name="glyph472" horiz-adv-x="419" 
d="M209 763q-36 0 -66 12t-52 33t-34.5 49.5t-13.5 60.5h71q2 -35 27.5 -60.5t68.5 -25.5q42 0 68 25.5t27 60.5h72q-1 -32 -13.5 -60.5t-34.5 -49.5t-52.5 -33t-67.5 -12z" />
    <glyph glyph-name="glyph473" horiz-adv-x="436" 
d="M44 851l37 72l137 -73l138 73l37 -73l-175 -91z" />
    <glyph glyph-name="glyph474" horiz-adv-x="267" 
d="M110 0h82l-40 -132h-100z" />
    <glyph glyph-name="glyph475" horiz-adv-x="435" 
d="M43 833l175 91l174 -91l-37 -73l-137 73l-138 -73z" />
    <glyph glyph-name="glyph476" horiz-adv-x="468" 
d="M140 774q-27 0 -47.5 19.5t-20.5 48.5q0 28 20.5 48t47.5 20q29 0 48.5 -20t19.5 -48q0 -29 -19.5 -48.5t-48.5 -19.5zM370 774q-28 0 -48 19.5t-20 48.5q0 28 20 48t48 20q29 0 48.5 -20t19.5 -48q0 -29 -19.5 -48.5t-48.5 -19.5z" />
    <glyph glyph-name="glyph477" horiz-adv-x="230" 
d="M115 770q-29 0 -50.5 21t-21.5 51t21.5 51t50.5 21q30 0 51 -21t21 -51t-21 -51t-51 -21z" />
    <glyph glyph-name="glyph478" horiz-adv-x="319" 
d="M51 913h130l75 -145h-87z" />
    <glyph glyph-name="glyph479" horiz-adv-x="508" 
d="M138 913h121l-117 -145h-78zM339 913h120l-117 -145h-78z" />
    <glyph glyph-name="glyph480" horiz-adv-x="410" 
d="M52 875h306v-76h-306v76z" />
    <glyph glyph-name="glyph481" horiz-adv-x="288" 
d="M162 -189q-47 0 -79 27t-32 71q0 29 19 53t45 38h119q-37 -17 -57 -34t-20 -38q0 -17 11.5 -27.5t31.5 -10.5q11 0 20.5 3t15.5 6v-69q-17 -10 -35.5 -14.5t-38.5 -4.5z" />
    <glyph glyph-name="glyph482" horiz-adv-x="303" 
d="M153 807q20 0 33.5 13t13.5 34q0 20 -13.5 34t-33.5 14t-34 -14t-14 -34q0 -21 14 -34t34 -13zM153 750q-23 0 -42.5 8t-33.5 22t-22.5 33t-8.5 41q0 45 31 74.5t76 29.5q22 0 41.5 -8t34 -22t23 -33t8.5 -41t-8.5 -41t-23 -33t-34 -22t-41.5 -8z" />
    <glyph glyph-name="glyph483" horiz-adv-x="474" 
d="M58 800q4 24 15 43.5t26 32.5t33 20t36 7q21 0 39 -6.5t33 -15t28.5 -15t25.5 -6.5q20 0 30 10t16 33h78l-3 -22q-4 -24 -14.5 -43.5t-25.5 -32.5t-32.5 -20t-36.5 -7q-22 0 -40 6.5t-33.5 15t-28.5 15t-25 6.5q-20 0 -30.5 -10.5t-15.5 -33.5h-79z" />
    <glyph glyph-name="glyph484" horiz-adv-x="523" 
d="M70 500h200q49 0 84 -11t56.5 -30t31.5 -45t10 -56q0 -24 -7 -49t-31 -43q38 -18 54 -50.5t16 -67.5q0 -30 -10.5 -56.5t-33.5 -47t-58.5 -32.5t-86.5 -12h-225v500zM180 215v-119h119q75 2 75 59q0 60 -75 60h-119zM180 404v-109h96q29 1 47.5 13.5t18.5 40.5
q0 29 -18.5 42t-47.5 13h-96z" />
    </font>
</defs>
</svg>
